SplineFontDB: 3.2
FontName: TractorFeedSans-Cond
FullName: Tractor Feed Sans Condensed
FamilyName: Tractor Feed Sans
Weight: Medium

StartChar: exclam
Encoding: 33 33 1
Width: 364
Flags: HW
LayerCount: 2
Back
Fore
SplineSet
164 500 m 0
 174 500 206 519 206 542 c 0
 206 565 174 584 164 584 c 0
 154 584 122 565 122 542 c 0
 122 519 154 500 164 500 c 0
164 416 m 0
 174 416 206 435 206 458 c 0
 206 481 174 500 164 500 c 0
 154 500 122 481 122 458 c 0
 122 435 154 416 164 416 c 0
164 333 m 0
 174 333 206 352 206 375 c 0
 206 398 174 417 164 417 c 0
 154 417 122 398 122 375 c 0
 122 352 154 333 164 333 c 0
164 250 m 0
 174 250 206 269 206 292 c 0
 206 315 174 334 164 334 c 0
 154 334 122 315 122 292 c 0
 122 269 154 250 164 250 c 0
164 166 m 0
 174 166 206 185 206 208 c 0
 206 231 174 250 164 250 c 0
 154 250 122 231 122 208 c 0
 122 185 154 166 164 166 c 0
164 0 m 0
 174 0 206 19 206 42 c 0
 206 65 174 84 164 84 c 0
 154 84 122 65 122 42 c 0
 122 19 154 0 164 0 c 0
EndSplineSet
EndChar

StartChar: quotedbl
Encoding: 34 34 2
Width: 364
Flags: HW
LayerCount: 2
Back
Fore
SplineSet
127 500 m 0
 137 500 169 519 169 542 c 0
 169 565 137 584 127 584 c 0
 117 584 85 565 85 542 c 0
 85 519 117 500 127 500 c 0
200 500 m 0
 210 500 242 519 242 542 c 0
 242 565 210 584 200 584 c 0
 190 584 158 565 158 542 c 0
 158 519 190 500 200 500 c 0
127 416 m 0
 137 416 169 435 169 458 c 0
 169 481 137 500 127 500 c 0
 117 500 85 481 85 458 c 0
 85 435 117 416 127 416 c 0
200 416 m 0
 210 416 242 435 242 458 c 0
 242 481 210 500 200 500 c 0
 190 500 158 481 158 458 c 0
 158 435 190 416 200 416 c 0
127 333 m 0
 137 333 169 352 169 375 c 0
 169 398 137 417 127 417 c 0
 117 417 85 398 85 375 c 0
 85 352 117 333 127 333 c 0
200 333 m 0
 210 333 242 352 242 375 c 0
 242 398 210 417 200 417 c 0
 190 417 158 398 158 375 c 0
 158 352 190 333 200 333 c 0
EndSplineSet
EndChar

StartChar: numbersign
Encoding: 35 35 3
Width: 364
Flags: HW
LayerCount: 2
Back
Fore
SplineSet
127 500 m 0
 137 500 169 519 169 542 c 0
 169 565 137 584 127 584 c 0
 117 584 85 565 85 542 c 0
 85 519 117 500 127 500 c 0
200 500 m 0
 210 500 242 519 242 542 c 0
 242 565 210 584 200 584 c 0
 190 584 158 565 158 542 c 0
 158 519 190 500 200 500 c 0
127 416 m 0
 137 416 169 435 169 458 c 0
 169 481 137 500 127 500 c 0
 117 500 85 481 85 458 c 0
 85 435 117 416 127 416 c 0
200 416 m 0
 210 416 242 435 242 458 c 0
 242 481 210 500 200 500 c 0
 190 500 158 481 158 458 c 0
 158 435 190 416 200 416 c 0
55 333 m 0
 65 333 97 352 97 375 c 0
 97 398 65 417 55 417 c 0
 45 417 13 398 13 375 c 0
 13 352 45 333 55 333 c 0
127 333 m 0
 137 333 169 352 169 375 c 0
 169 398 137 417 127 417 c 0
 117 417 85 398 85 375 c 0
 85 352 117 333 127 333 c 0
200 333 m 0
 210 333 242 352 242 375 c 0
 242 398 210 417 200 417 c 0
 190 417 158 398 158 375 c 0
 158 352 190 333 200 333 c 0
273 333 m 0
 283 333 315 352 315 375 c 0
 315 398 283 417 273 417 c 0
 263 417 231 398 231 375 c 0
 231 352 263 333 273 333 c 0
127 250 m 0
 137 250 169 269 169 292 c 0
 169 315 137 334 127 334 c 0
 117 334 85 315 85 292 c 0
 85 269 117 250 127 250 c 0
200 250 m 0
 210 250 242 269 242 292 c 0
 242 315 210 334 200 334 c 0
 190 334 158 315 158 292 c 0
 158 269 190 250 200 250 c 0
55 166 m 0
 65 166 97 185 97 208 c 0
 97 231 65 250 55 250 c 0
 45 250 13 231 13 208 c 0
 13 185 45 166 55 166 c 0
127 166 m 0
 137 166 169 185 169 208 c 0
 169 231 137 250 127 250 c 0
 117 250 85 231 85 208 c 0
 85 185 117 166 127 166 c 0
200 166 m 0
 210 166 242 185 242 208 c 0
 242 231 210 250 200 250 c 0
 190 250 158 231 158 208 c 0
 158 185 190 166 200 166 c 0
273 166 m 0
 283 166 315 185 315 208 c 0
 315 231 283 250 273 250 c 0
 263 250 231 231 231 208 c 0
 231 185 263 166 273 166 c 0
127 83 m 0
 137 83 169 102 169 125 c 0
 169 148 137 167 127 167 c 0
 117 167 85 148 85 125 c 0
 85 102 117 83 127 83 c 0
200 83 m 0
 210 83 242 102 242 125 c 0
 242 148 210 167 200 167 c 0
 190 167 158 148 158 125 c 0
 158 102 190 83 200 83 c 0
127 0 m 0
 137 0 169 19 169 42 c 0
 169 65 137 84 127 84 c 0
 117 84 85 65 85 42 c 0
 85 19 117 0 127 0 c 0
200 0 m 0
 210 0 242 19 242 42 c 0
 242 65 210 84 200 84 c 0
 190 84 158 65 158 42 c 0
 158 19 190 0 200 0 c 0
EndSplineSet
EndChar

StartChar: dollar
Encoding: 36 36 4
Width: 364
Flags: HW
LayerCount: 2
Back
Fore
SplineSet
164 500 m 0
 174 500 206 519 206 542 c 0
 206 565 174 584 164 584 c 0
 154 584 122 565 122 542 c 0
 122 519 154 500 164 500 c 0
91 416 m 0
 101 416 133 435 133 458 c 0
 133 481 101 500 91 500 c 0
 81 500 49 481 49 458 c 0
 49 435 81 416 91 416 c 0
164 416 m 0
 174 416 206 435 206 458 c 0
 206 481 174 500 164 500 c 0
 154 500 122 481 122 458 c 0
 122 435 154 416 164 416 c 0
236 416 m 0
 246 416 278 435 278 458 c 0
 278 481 246 500 236 500 c 0
 226 500 194 481 194 458 c 0
 194 435 226 416 236 416 c 0
55 333 m 0
 65 333 97 352 97 375 c 0
 97 398 65 417 55 417 c 0
 45 417 13 398 13 375 c 0
 13 352 45 333 55 333 c 0
164 333 m 0
 174 333 206 352 206 375 c 0
 206 398 174 417 164 417 c 0
 154 417 122 398 122 375 c 0
 122 352 154 333 164 333 c 0
91 250 m 0
 101 250 133 269 133 292 c 0
 133 315 101 334 91 334 c 0
 81 334 49 315 49 292 c 0
 49 269 81 250 91 250 c 0
164 250 m 0
 174 250 206 269 206 292 c 0
 206 315 174 334 164 334 c 0
 154 334 122 315 122 292 c 0
 122 269 154 250 164 250 c 0
236 250 m 0
 246 250 278 269 278 292 c 0
 278 315 246 334 236 334 c 0
 226 334 194 315 194 292 c 0
 194 269 226 250 236 250 c 0
164 166 m 0
 174 166 206 185 206 208 c 0
 206 231 174 250 164 250 c 0
 154 250 122 231 122 208 c 0
 122 185 154 166 164 166 c 0
273 166 m 0
 283 166 315 185 315 208 c 0
 315 231 283 250 273 250 c 0
 263 250 231 231 231 208 c 0
 231 185 263 166 273 166 c 0
91 83 m 0
 101 83 133 102 133 125 c 0
 133 148 101 167 91 167 c 0
 81 167 49 148 49 125 c 0
 49 102 81 83 91 83 c 0
164 83 m 0
 174 83 206 102 206 125 c 0
 206 148 174 167 164 167 c 0
 154 167 122 148 122 125 c 0
 122 102 154 83 164 83 c 0
236 83 m 0
 246 83 278 102 278 125 c 0
 278 148 246 167 236 167 c 0
 226 167 194 148 194 125 c 0
 194 102 226 83 236 83 c 0
164 0 m 0
 174 0 206 19 206 42 c 0
 206 65 174 84 164 84 c 0
 154 84 122 65 122 42 c 0
 122 19 154 0 164 0 c 0
EndSplineSet
EndChar

StartChar: percent
Encoding: 37 37 5
Width: 364
Flags: HW
LayerCount: 2
Back
Fore
SplineSet
55 500 m 0
 65 500 97 519 97 542 c 0
 97 565 65 584 55 584 c 0
 45 584 13 565 13 542 c 0
 13 519 45 500 55 500 c 0
127 500 m 0
 137 500 169 519 169 542 c 0
 169 565 137 584 127 584 c 0
 117 584 85 565 85 542 c 0
 85 519 117 500 127 500 c 0
273 500 m 0
 283 500 315 519 315 542 c 0
 315 565 283 584 273 584 c 0
 263 584 231 565 231 542 c 0
 231 519 263 500 273 500 c 0
55 416 m 0
 65 416 97 435 97 458 c 0
 97 481 65 500 55 500 c 0
 45 500 13 481 13 458 c 0
 13 435 45 416 55 416 c 0
127 416 m 0
 137 416 169 435 169 458 c 0
 169 481 137 500 127 500 c 0
 117 500 85 481 85 458 c 0
 85 435 117 416 127 416 c 0
236 416 m 0
 246 416 278 435 278 458 c 0
 278 481 246 500 236 500 c 0
 226 500 194 481 194 458 c 0
 194 435 226 416 236 416 c 0
200 333 m 0
 210 333 242 352 242 375 c 0
 242 398 210 417 200 417 c 0
 190 417 158 398 158 375 c 0
 158 352 190 333 200 333 c 0
164 250 m 0
 174 250 206 269 206 292 c 0
 206 315 174 334 164 334 c 0
 154 334 122 315 122 292 c 0
 122 269 154 250 164 250 c 0
127 166 m 0
 137 166 169 185 169 208 c 0
 169 231 137 250 127 250 c 0
 117 250 85 231 85 208 c 0
 85 185 117 166 127 166 c 0
91 83 m 0
 101 83 133 102 133 125 c 0
 133 148 101 167 91 167 c 0
 81 167 49 148 49 125 c 0
 49 102 81 83 91 83 c 0
200 83 m 0
 210 83 242 102 242 125 c 0
 242 148 210 167 200 167 c 0
 190 167 158 148 158 125 c 0
 158 102 190 83 200 83 c 0
273 83 m 0
 283 83 315 102 315 125 c 0
 315 148 283 167 273 167 c 0
 263 167 231 148 231 125 c 0
 231 102 263 83 273 83 c 0
55 0 m 0
 65 0 97 19 97 42 c 0
 97 65 65 84 55 84 c 0
 45 84 13 65 13 42 c 0
 13 19 45 0 55 0 c 0
200 0 m 0
 210 0 242 19 242 42 c 0
 242 65 210 84 200 84 c 0
 190 84 158 65 158 42 c 0
 158 19 190 0 200 0 c 0
273 0 m 0
 283 0 315 19 315 42 c 0
 315 65 283 84 273 84 c 0
 263 84 231 65 231 42 c 0
 231 19 263 0 273 0 c 0
EndSplineSet
EndChar

StartChar: ampersand
Encoding: 38 38 6
Width: 364
Flags: HW
LayerCount: 2
Back
Fore
SplineSet
127 500 m 0
 137 500 169 519 169 542 c 0
 169 565 137 584 127 584 c 0
 117 584 85 565 85 542 c 0
 85 519 117 500 127 500 c 0
200 500 m 0
 210 500 242 519 242 542 c 0
 242 565 210 584 200 584 c 0
 190 584 158 565 158 542 c 0
 158 519 190 500 200 500 c 0
91 416 m 0
 101 416 133 435 133 458 c 0
 133 481 101 500 91 500 c 0
 81 500 49 481 49 458 c 0
 49 435 81 416 91 416 c 0
236 416 m 0
 246 416 278 435 278 458 c 0
 278 481 246 500 236 500 c 0
 226 500 194 481 194 458 c 0
 194 435 226 416 236 416 c 0
127 333 m 0
 137 333 169 352 169 375 c 0
 169 398 137 417 127 417 c 0
 117 417 85 398 85 375 c 0
 85 352 117 333 127 333 c 0
200 333 m 0
 210 333 242 352 242 375 c 0
 242 398 210 417 200 417 c 0
 190 417 158 398 158 375 c 0
 158 352 190 333 200 333 c 0
164 250 m 0
 174 250 206 269 206 292 c 0
 206 315 174 334 164 334 c 0
 154 334 122 315 122 292 c 0
 122 269 154 250 164 250 c 0
127 166 m 0
 137 166 169 185 169 208 c 0
 169 231 137 250 127 250 c 0
 117 250 85 231 85 208 c 0
 85 185 117 166 127 166 c 0
200 166 m 0
 210 166 242 185 242 208 c 0
 242 231 210 250 200 250 c 0
 190 250 158 231 158 208 c 0
 158 185 190 166 200 166 c 0
273 166 m 0
 283 166 315 185 315 208 c 0
 315 231 283 250 273 250 c 0
 263 250 231 231 231 208 c 0
 231 185 263 166 273 166 c 0
91 83 m 0
 101 83 133 102 133 125 c 0
 133 148 101 167 91 167 c 0
 81 167 49 148 49 125 c 0
 49 102 81 83 91 83 c 0
236 83 m 0
 246 83 278 102 278 125 c 0
 278 148 246 167 236 167 c 0
 226 167 194 148 194 125 c 0
 194 102 226 83 236 83 c 0
127 0 m 0
 137 0 169 19 169 42 c 0
 169 65 137 84 127 84 c 0
 117 84 85 65 85 42 c 0
 85 19 117 0 127 0 c 0
200 0 m 0
 210 0 242 19 242 42 c 0
 242 65 210 84 200 84 c 0
 190 84 158 65 158 42 c 0
 158 19 190 0 200 0 c 0
273 0 m 0
 283 0 315 19 315 42 c 0
 315 65 283 84 273 84 c 0
 263 84 231 65 231 42 c 0
 231 19 263 0 273 0 c 0
EndSplineSet
EndChar

StartChar: quotesingle
Encoding: 39 39 7
Width: 364
Flags: HW
LayerCount: 2
Back
Fore
SplineSet
200 500 m 0
 210 500 242 519 242 542 c 0
 242 565 210 584 200 584 c 0
 190 584 158 565 158 542 c 0
 158 519 190 500 200 500 c 0
164 416 m 0
 174 416 206 435 206 458 c 0
 206 481 174 500 164 500 c 0
 154 500 122 481 122 458 c 0
 122 435 154 416 164 416 c 0
127 333 m 0
 137 333 169 352 169 375 c 0
 169 398 137 417 127 417 c 0
 117 417 85 398 85 375 c 0
 85 352 117 333 127 333 c 0
EndSplineSet
EndChar

StartChar: parenleft
Encoding: 40 40 8
Width: 364
Flags: HW
LayerCount: 2
Back
Fore
SplineSet
200 500 m 0
 210 500 242 519 242 542 c 0
 242 565 210 584 200 584 c 0
 190 584 158 565 158 542 c 0
 158 519 190 500 200 500 c 0
164 416 m 0
 174 416 206 435 206 458 c 0
 206 481 174 500 164 500 c 0
 154 500 122 481 122 458 c 0
 122 435 154 416 164 416 c 0
127 333 m 0
 137 333 169 352 169 375 c 0
 169 398 137 417 127 417 c 0
 117 417 85 398 85 375 c 0
 85 352 117 333 127 333 c 0
127 250 m 0
 137 250 169 269 169 292 c 0
 169 315 137 334 127 334 c 0
 117 334 85 315 85 292 c 0
 85 269 117 250 127 250 c 0
127 166 m 0
 137 166 169 185 169 208 c 0
 169 231 137 250 127 250 c 0
 117 250 85 231 85 208 c 0
 85 185 117 166 127 166 c 0
164 83 m 0
 174 83 206 102 206 125 c 0
 206 148 174 167 164 167 c 0
 154 167 122 148 122 125 c 0
 122 102 154 83 164 83 c 0
200 0 m 0
 210 0 242 19 242 42 c 0
 242 65 210 84 200 84 c 0
 190 84 158 65 158 42 c 0
 158 19 190 0 200 0 c 0
EndSplineSet
EndChar

StartChar: parenright
Encoding: 41 41 9
Width: 364
Flags: HW
LayerCount: 2
Back
Fore
SplineSet
127 500 m 0
 137 500 169 519 169 542 c 0
 169 565 137 584 127 584 c 0
 117 584 85 565 85 542 c 0
 85 519 117 500 127 500 c 0
164 416 m 0
 174 416 206 435 206 458 c 0
 206 481 174 500 164 500 c 0
 154 500 122 481 122 458 c 0
 122 435 154 416 164 416 c 0
200 333 m 0
 210 333 242 352 242 375 c 0
 242 398 210 417 200 417 c 0
 190 417 158 398 158 375 c 0
 158 352 190 333 200 333 c 0
200 250 m 0
 210 250 242 269 242 292 c 0
 242 315 210 334 200 334 c 0
 190 334 158 315 158 292 c 0
 158 269 190 250 200 250 c 0
200 166 m 0
 210 166 242 185 242 208 c 0
 242 231 210 250 200 250 c 0
 190 250 158 231 158 208 c 0
 158 185 190 166 200 166 c 0
164 83 m 0
 174 83 206 102 206 125 c 0
 206 148 174 167 164 167 c 0
 154 167 122 148 122 125 c 0
 122 102 154 83 164 83 c 0
127 0 m 0
 137 0 169 19 169 42 c 0
 169 65 137 84 127 84 c 0
 117 84 85 65 85 42 c 0
 85 19 117 0 127 0 c 0
EndSplineSet
EndChar

StartChar: asterisk
Encoding: 42 42 10
Width: 364
Flags: HW
LayerCount: 2
Back
Fore
SplineSet
164 500 m 0
 174 500 206 519 206 542 c 0
 206 565 174 584 164 584 c 0
 154 584 122 565 122 542 c 0
 122 519 154 500 164 500 c 0
55 416 m 0
 65 416 97 435 97 458 c 0
 97 481 65 500 55 500 c 0
 45 500 13 481 13 458 c 0
 13 435 45 416 55 416 c 0
164 416 m 0
 174 416 206 435 206 458 c 0
 206 481 174 500 164 500 c 0
 154 500 122 481 122 458 c 0
 122 435 154 416 164 416 c 0
273 416 m 0
 283 416 315 435 315 458 c 0
 315 481 283 500 273 500 c 0
 263 500 231 481 231 458 c 0
 231 435 263 416 273 416 c 0
91 333 m 0
 101 333 133 352 133 375 c 0
 133 398 101 417 91 417 c 0
 81 417 49 398 49 375 c 0
 49 352 81 333 91 333 c 0
164 333 m 0
 174 333 206 352 206 375 c 0
 206 398 174 417 164 417 c 0
 154 417 122 398 122 375 c 0
 122 352 154 333 164 333 c 0
236 333 m 0
 246 333 278 352 278 375 c 0
 278 398 246 417 236 417 c 0
 226 417 194 398 194 375 c 0
 194 352 226 333 236 333 c 0
127 250 m 0
 137 250 169 269 169 292 c 0
 169 315 137 334 127 334 c 0
 117 334 85 315 85 292 c 0
 85 269 117 250 127 250 c 0
200 250 m 0
 210 250 242 269 242 292 c 0
 242 315 210 334 200 334 c 0
 190 334 158 315 158 292 c 0
 158 269 190 250 200 250 c 0
91 166 m 0
 101 166 133 185 133 208 c 0
 133 231 101 250 91 250 c 0
 81 250 49 231 49 208 c 0
 49 185 81 166 91 166 c 0
164 166 m 0
 174 166 206 185 206 208 c 0
 206 231 174 250 164 250 c 0
 154 250 122 231 122 208 c 0
 122 185 154 166 164 166 c 0
236 166 m 0
 246 166 278 185 278 208 c 0
 278 231 246 250 236 250 c 0
 226 250 194 231 194 208 c 0
 194 185 226 166 236 166 c 0
55 83 m 0
 65 83 97 102 97 125 c 0
 97 148 65 167 55 167 c 0
 45 167 13 148 13 125 c 0
 13 102 45 83 55 83 c 0
164 83 m 0
 174 83 206 102 206 125 c 0
 206 148 174 167 164 167 c 0
 154 167 122 148 122 125 c 0
 122 102 154 83 164 83 c 0
273 83 m 0
 283 83 315 102 315 125 c 0
 315 148 283 167 273 167 c 0
 263 167 231 148 231 125 c 0
 231 102 263 83 273 83 c 0
164 0 m 0
 174 0 206 19 206 42 c 0
 206 65 174 84 164 84 c 0
 154 84 122 65 122 42 c 0
 122 19 154 0 164 0 c 0
EndSplineSet
EndChar

StartChar: plus
Encoding: 43 43 11
Width: 364
Flags: HW
LayerCount: 2
Back
Fore
SplineSet
164 500 m 0
 174 500 206 519 206 542 c 0
 206 565 174 584 164 584 c 0
 154 584 122 565 122 542 c 0
 122 519 154 500 164 500 c 0
164 416 m 0
 174 416 206 435 206 458 c 0
 206 481 174 500 164 500 c 0
 154 500 122 481 122 458 c 0
 122 435 154 416 164 416 c 0
164 333 m 0
 174 333 206 352 206 375 c 0
 206 398 174 417 164 417 c 0
 154 417 122 398 122 375 c 0
 122 352 154 333 164 333 c 0
55 250 m 0
 65 250 97 269 97 292 c 0
 97 315 65 334 55 334 c 0
 45 334 13 315 13 292 c 0
 13 269 45 250 55 250 c 0
127 250 m 0
 137 250 169 269 169 292 c 0
 169 315 137 334 127 334 c 0
 117 334 85 315 85 292 c 0
 85 269 117 250 127 250 c 0
200 250 m 0
 210 250 242 269 242 292 c 0
 242 315 210 334 200 334 c 0
 190 334 158 315 158 292 c 0
 158 269 190 250 200 250 c 0
273 250 m 0
 283 250 315 269 315 292 c 0
 315 315 283 334 273 334 c 0
 263 334 231 315 231 292 c 0
 231 269 263 250 273 250 c 0
164 166 m 0
 174 166 206 185 206 208 c 0
 206 231 174 250 164 250 c 0
 154 250 122 231 122 208 c 0
 122 185 154 166 164 166 c 0
164 83 m 0
 174 83 206 102 206 125 c 0
 206 148 174 167 164 167 c 0
 154 167 122 148 122 125 c 0
 122 102 154 83 164 83 c 0
164 0 m 0
 174 0 206 19 206 42 c 0
 206 65 174 84 164 84 c 0
 154 84 122 65 122 42 c 0
 122 19 154 0 164 0 c 0
EndSplineSet
EndChar

StartChar: comma
Encoding: 44 44 12
Width: 364
Flags: HW
LayerCount: 2
Back
Fore
SplineSet
127 250 m 0
 137 250 169 269 169 292 c 0
 169 315 137 334 127 334 c 0
 117 334 85 315 85 292 c 0
 85 269 117 250 127 250 c 0
200 250 m 0
 210 250 242 269 242 292 c 0
 242 315 210 334 200 334 c 0
 190 334 158 315 158 292 c 0
 158 269 190 250 200 250 c 0
127 166 m 0
 137 166 169 185 169 208 c 0
 169 231 137 250 127 250 c 0
 117 250 85 231 85 208 c 0
 85 185 117 166 127 166 c 0
200 166 m 0
 210 166 242 185 242 208 c 0
 242 231 210 250 200 250 c 0
 190 250 158 231 158 208 c 0
 158 185 190 166 200 166 c 0
164 83 m 0
 174 83 206 102 206 125 c 0
 206 148 174 167 164 167 c 0
 154 167 122 148 122 125 c 0
 122 102 154 83 164 83 c 0
127 0 m 0
 137 0 169 19 169 42 c 0
 169 65 137 84 127 84 c 0
 117 84 85 65 85 42 c 0
 85 19 117 0 127 0 c 0
EndSplineSet
EndChar

StartChar: hyphen
Encoding: 45 45 13
Width: 364
Flags: HW
LayerCount: 2
Back
Fore
SplineSet
55 250 m 0
 65 250 97 269 97 292 c 0
 97 315 65 334 55 334 c 0
 45 334 13 315 13 292 c 0
 13 269 45 250 55 250 c 0
127 250 m 0
 137 250 169 269 169 292 c 0
 169 315 137 334 127 334 c 0
 117 334 85 315 85 292 c 0
 85 269 117 250 127 250 c 0
200 250 m 0
 210 250 242 269 242 292 c 0
 242 315 210 334 200 334 c 0
 190 334 158 315 158 292 c 0
 158 269 190 250 200 250 c 0
273 250 m 0
 283 250 315 269 315 292 c 0
 315 315 283 334 273 334 c 0
 263 334 231 315 231 292 c 0
 231 269 263 250 273 250 c 0
EndSplineSet
EndChar

StartChar: period
Encoding: 46 46 14
Width: 364
Flags: HW
LayerCount: 2
Back
Fore
SplineSet
164 166 m 0
 174 166 206 185 206 208 c 0
 206 231 174 250 164 250 c 0
 154 250 122 231 122 208 c 0
 122 185 154 166 164 166 c 0
127 83 m 0
 137 83 169 102 169 125 c 0
 169 148 137 167 127 167 c 0
 117 167 85 148 85 125 c 0
 85 102 117 83 127 83 c 0
200 83 m 0
 210 83 242 102 242 125 c 0
 242 148 210 167 200 167 c 0
 190 167 158 148 158 125 c 0
 158 102 190 83 200 83 c 0
164 0 m 0
 174 0 206 19 206 42 c 0
 206 65 174 84 164 84 c 0
 154 84 122 65 122 42 c 0
 122 19 154 0 164 0 c 0
EndSplineSet
EndChar

StartChar: slash
Encoding: 47 47 15
Width: 364
Flags: HW
LayerCount: 2
Back
Fore
SplineSet
273 500 m 0
 283 500 315 519 315 542 c 0
 315 565 283 584 273 584 c 0
 263 584 231 565 231 542 c 0
 231 519 263 500 273 500 c 0
236 416 m 0
 246 416 278 435 278 458 c 0
 278 481 246 500 236 500 c 0
 226 500 194 481 194 458 c 0
 194 435 226 416 236 416 c 0
200 333 m 0
 210 333 242 352 242 375 c 0
 242 398 210 417 200 417 c 0
 190 417 158 398 158 375 c 0
 158 352 190 333 200 333 c 0
164 250 m 0
 174 250 206 269 206 292 c 0
 206 315 174 334 164 334 c 0
 154 334 122 315 122 292 c 0
 122 269 154 250 164 250 c 0
127 166 m 0
 137 166 169 185 169 208 c 0
 169 231 137 250 127 250 c 0
 117 250 85 231 85 208 c 0
 85 185 117 166 127 166 c 0
91 83 m 0
 101 83 133 102 133 125 c 0
 133 148 101 167 91 167 c 0
 81 167 49 148 49 125 c 0
 49 102 81 83 91 83 c 0
55 0 m 0
 65 0 97 19 97 42 c 0
 97 65 65 84 55 84 c 0
 45 84 13 65 13 42 c 0
 13 19 45 0 55 0 c 0
EndSplineSet
EndChar

StartChar: zero
Encoding: 48 48 16
Width: 364
Flags: HW
LayerCount: 2
Back
Fore
SplineSet
127 500 m 0
 137 500 169 519 169 542 c 0
 169 565 137 584 127 584 c 0
 117 584 85 565 85 542 c 0
 85 519 117 500 127 500 c 0
200 500 m 0
 210 500 242 519 242 542 c 0
 242 565 210 584 200 584 c 0
 190 584 158 565 158 542 c 0
 158 519 190 500 200 500 c 0
91 416 m 0
 101 416 133 435 133 458 c 0
 133 481 101 500 91 500 c 0
 81 500 49 481 49 458 c 0
 49 435 81 416 91 416 c 0
236 416 m 0
 246 416 278 435 278 458 c 0
 278 481 246 500 236 500 c 0
 226 500 194 481 194 458 c 0
 194 435 226 416 236 416 c 0
55 333 m 0
 65 333 97 352 97 375 c 0
 97 398 65 417 55 417 c 0
 45 417 13 398 13 375 c 0
 13 352 45 333 55 333 c 0
273 333 m 0
 283 333 315 352 315 375 c 0
 315 398 283 417 273 417 c 0
 263 417 231 398 231 375 c 0
 231 352 263 333 273 333 c 0
55 250 m 0
 65 250 97 269 97 292 c 0
 97 315 65 334 55 334 c 0
 45 334 13 315 13 292 c 0
 13 269 45 250 55 250 c 0
273 250 m 0
 283 250 315 269 315 292 c 0
 315 315 283 334 273 334 c 0
 263 334 231 315 231 292 c 0
 231 269 263 250 273 250 c 0
55 166 m 0
 65 166 97 185 97 208 c 0
 97 231 65 250 55 250 c 0
 45 250 13 231 13 208 c 0
 13 185 45 166 55 166 c 0
273 166 m 0
 283 166 315 185 315 208 c 0
 315 231 283 250 273 250 c 0
 263 250 231 231 231 208 c 0
 231 185 263 166 273 166 c 0
91 83 m 0
 101 83 133 102 133 125 c 0
 133 148 101 167 91 167 c 0
 81 167 49 148 49 125 c 0
 49 102 81 83 91 83 c 0
236 83 m 0
 246 83 278 102 278 125 c 0
 278 148 246 167 236 167 c 0
 226 167 194 148 194 125 c 0
 194 102 226 83 236 83 c 0
127 0 m 0
 137 0 169 19 169 42 c 0
 169 65 137 84 127 84 c 0
 117 84 85 65 85 42 c 0
 85 19 117 0 127 0 c 0
200 0 m 0
 210 0 242 19 242 42 c 0
 242 65 210 84 200 84 c 0
 190 84 158 65 158 42 c 0
 158 19 190 0 200 0 c 0
EndSplineSet
EndChar

StartChar: one
Encoding: 49 49 17
Width: 364
Flags: HW
LayerCount: 2
Back
Fore
SplineSet
164 500 m 0
 174 500 206 519 206 542 c 0
 206 565 174 584 164 584 c 0
 154 584 122 565 122 542 c 0
 122 519 154 500 164 500 c 0
91 416 m 0
 101 416 133 435 133 458 c 0
 133 481 101 500 91 500 c 0
 81 500 49 481 49 458 c 0
 49 435 81 416 91 416 c 0
164 416 m 0
 174 416 206 435 206 458 c 0
 206 481 174 500 164 500 c 0
 154 500 122 481 122 458 c 0
 122 435 154 416 164 416 c 0
164 333 m 0
 174 333 206 352 206 375 c 0
 206 398 174 417 164 417 c 0
 154 417 122 398 122 375 c 0
 122 352 154 333 164 333 c 0
164 250 m 0
 174 250 206 269 206 292 c 0
 206 315 174 334 164 334 c 0
 154 334 122 315 122 292 c 0
 122 269 154 250 164 250 c 0
164 166 m 0
 174 166 206 185 206 208 c 0
 206 231 174 250 164 250 c 0
 154 250 122 231 122 208 c 0
 122 185 154 166 164 166 c 0
164 83 m 0
 174 83 206 102 206 125 c 0
 206 148 174 167 164 167 c 0
 154 167 122 148 122 125 c 0
 122 102 154 83 164 83 c 0
91 0 m 0
 101 0 133 19 133 42 c 0
 133 65 101 84 91 84 c 0
 81 84 49 65 49 42 c 0
 49 19 81 0 91 0 c 0
164 0 m 0
 174 0 206 19 206 42 c 0
 206 65 174 84 164 84 c 0
 154 84 122 65 122 42 c 0
 122 19 154 0 164 0 c 0
236 0 m 0
 246 0 278 19 278 42 c 0
 278 65 246 84 236 84 c 0
 226 84 194 65 194 42 c 0
 194 19 226 0 236 0 c 0
EndSplineSet
EndChar

StartChar: two
Encoding: 50 50 18
Width: 364
Flags: HW
LayerCount: 2
Back
Fore
SplineSet
91 500 m 0
 101 500 133 519 133 542 c 0
 133 565 101 584 91 584 c 0
 81 584 49 565 49 542 c 0
 49 519 81 500 91 500 c 0
164 500 m 0
 174 500 206 519 206 542 c 0
 206 565 174 584 164 584 c 0
 154 584 122 565 122 542 c 0
 122 519 154 500 164 500 c 0
236 500 m 0
 246 500 278 519 278 542 c 0
 278 565 246 584 236 584 c 0
 226 584 194 565 194 542 c 0
 194 519 226 500 236 500 c 0
55 416 m 0
 65 416 97 435 97 458 c 0
 97 481 65 500 55 500 c 0
 45 500 13 481 13 458 c 0
 13 435 45 416 55 416 c 0
273 416 m 0
 283 416 315 435 315 458 c 0
 315 481 283 500 273 500 c 0
 263 500 231 481 231 458 c 0
 231 435 263 416 273 416 c 0
273 333 m 0
 283 333 315 352 315 375 c 0
 315 398 283 417 273 417 c 0
 263 417 231 398 231 375 c 0
 231 352 263 333 273 333 c 0
236 250 m 0
 246 250 278 269 278 292 c 0
 278 315 246 334 236 334 c 0
 226 334 194 315 194 292 c 0
 194 269 226 250 236 250 c 0
164 166 m 0
 174 166 206 185 206 208 c 0
 206 231 174 250 164 250 c 0
 154 250 122 231 122 208 c 0
 122 185 154 166 164 166 c 0
91 83 m 0
 101 83 133 102 133 125 c 0
 133 148 101 167 91 167 c 0
 81 167 49 148 49 125 c 0
 49 102 81 83 91 83 c 0
55 0 m 0
 65 0 97 19 97 42 c 0
 97 65 65 84 55 84 c 0
 45 84 13 65 13 42 c 0
 13 19 45 0 55 0 c 0
127 0 m 0
 137 0 169 19 169 42 c 0
 169 65 137 84 127 84 c 0
 117 84 85 65 85 42 c 0
 85 19 117 0 127 0 c 0
200 0 m 0
 210 0 242 19 242 42 c 0
 242 65 210 84 200 84 c 0
 190 84 158 65 158 42 c 0
 158 19 190 0 200 0 c 0
273 0 m 0
 283 0 315 19 315 42 c 0
 315 65 283 84 273 84 c 0
 263 84 231 65 231 42 c 0
 231 19 263 0 273 0 c 0
EndSplineSet
EndChar

StartChar: three
Encoding: 51 51 19
Width: 364
Flags: HW
LayerCount: 2
Back
Fore
SplineSet
55 500 m 0
 65 500 97 519 97 542 c 0
 97 565 65 584 55 584 c 0
 45 584 13 565 13 542 c 0
 13 519 45 500 55 500 c 0
127 500 m 0
 137 500 169 519 169 542 c 0
 169 565 137 584 127 584 c 0
 117 584 85 565 85 542 c 0
 85 519 117 500 127 500 c 0
200 500 m 0
 210 500 242 519 242 542 c 0
 242 565 210 584 200 584 c 0
 190 584 158 565 158 542 c 0
 158 519 190 500 200 500 c 0
273 500 m 0
 283 500 315 519 315 542 c 0
 315 565 283 584 273 584 c 0
 263 584 231 565 231 542 c 0
 231 519 263 500 273 500 c 0
236 416 m 0
 246 416 278 435 278 458 c 0
 278 481 246 500 236 500 c 0
 226 500 194 481 194 458 c 0
 194 435 226 416 236 416 c 0
200 333 m 0
 210 333 242 352 242 375 c 0
 242 398 210 417 200 417 c 0
 190 417 158 398 158 375 c 0
 158 352 190 333 200 333 c 0
164 250 m 0
 174 250 206 269 206 292 c 0
 206 315 174 334 164 334 c 0
 154 334 122 315 122 292 c 0
 122 269 154 250 164 250 c 0
236 250 m 0
 246 250 278 269 278 292 c 0
 278 315 246 334 236 334 c 0
 226 334 194 315 194 292 c 0
 194 269 226 250 236 250 c 0
273 166 m 0
 283 166 315 185 315 208 c 0
 315 231 283 250 273 250 c 0
 263 250 231 231 231 208 c 0
 231 185 263 166 273 166 c 0
55 83 m 0
 65 83 97 102 97 125 c 0
 97 148 65 167 55 167 c 0
 45 167 13 148 13 125 c 0
 13 102 45 83 55 83 c 0
273 83 m 0
 283 83 315 102 315 125 c 0
 315 148 283 167 273 167 c 0
 263 167 231 148 231 125 c 0
 231 102 263 83 273 83 c 0
91 0 m 0
 101 0 133 19 133 42 c 0
 133 65 101 84 91 84 c 0
 81 84 49 65 49 42 c 0
 49 19 81 0 91 0 c 0
164 0 m 0
 174 0 206 19 206 42 c 0
 206 65 174 84 164 84 c 0
 154 84 122 65 122 42 c 0
 122 19 154 0 164 0 c 0
236 0 m 0
 246 0 278 19 278 42 c 0
 278 65 246 84 236 84 c 0
 226 84 194 65 194 42 c 0
 194 19 226 0 236 0 c 0
EndSplineSet
EndChar

StartChar: four
Encoding: 52 52 20
Width: 364
Flags: HW
LayerCount: 2
Back
Fore
SplineSet
200 500 m 0
 210 500 242 519 242 542 c 0
 242 565 210 584 200 584 c 0
 190 584 158 565 158 542 c 0
 158 519 190 500 200 500 c 0
164 416 m 0
 174 416 206 435 206 458 c 0
 206 481 174 500 164 500 c 0
 154 500 122 481 122 458 c 0
 122 435 154 416 164 416 c 0
236 416 m 0
 246 416 278 435 278 458 c 0
 278 481 246 500 236 500 c 0
 226 500 194 481 194 458 c 0
 194 435 226 416 236 416 c 0
127 333 m 0
 137 333 169 352 169 375 c 0
 169 398 137 417 127 417 c 0
 117 417 85 398 85 375 c 0
 85 352 117 333 127 333 c 0
236 333 m 0
 246 333 278 352 278 375 c 0
 278 398 246 417 236 417 c 0
 226 417 194 398 194 375 c 0
 194 352 226 333 236 333 c 0
91 250 m 0
 101 250 133 269 133 292 c 0
 133 315 101 334 91 334 c 0
 81 334 49 315 49 292 c 0
 49 269 81 250 91 250 c 0
236 250 m 0
 246 250 278 269 278 292 c 0
 278 315 246 334 236 334 c 0
 226 334 194 315 194 292 c 0
 194 269 226 250 236 250 c 0
55 166 m 0
 65 166 97 185 97 208 c 0
 97 231 65 250 55 250 c 0
 45 250 13 231 13 208 c 0
 13 185 45 166 55 166 c 0
127 166 m 0
 137 166 169 185 169 208 c 0
 169 231 137 250 127 250 c 0
 117 250 85 231 85 208 c 0
 85 185 117 166 127 166 c 0
200 166 m 0
 210 166 242 185 242 208 c 0
 242 231 210 250 200 250 c 0
 190 250 158 231 158 208 c 0
 158 185 190 166 200 166 c 0
273 166 m 0
 283 166 315 185 315 208 c 0
 315 231 283 250 273 250 c 0
 263 250 231 231 231 208 c 0
 231 185 263 166 273 166 c 0
236 83 m 0
 246 83 278 102 278 125 c 0
 278 148 246 167 236 167 c 0
 226 167 194 148 194 125 c 0
 194 102 226 83 236 83 c 0
236 0 m 0
 246 0 278 19 278 42 c 0
 278 65 246 84 236 84 c 0
 226 84 194 65 194 42 c 0
 194 19 226 0 236 0 c 0
EndSplineSet
EndChar

StartChar: five
Encoding: 53 53 21
Width: 364
Flags: HW
LayerCount: 2
Back
Fore
SplineSet
55 500 m 0
 65 500 97 519 97 542 c 0
 97 565 65 584 55 584 c 0
 45 584 13 565 13 542 c 0
 13 519 45 500 55 500 c 0
127 500 m 0
 137 500 169 519 169 542 c 0
 169 565 137 584 127 584 c 0
 117 584 85 565 85 542 c 0
 85 519 117 500 127 500 c 0
200 500 m 0
 210 500 242 519 242 542 c 0
 242 565 210 584 200 584 c 0
 190 584 158 565 158 542 c 0
 158 519 190 500 200 500 c 0
273 500 m 0
 283 500 315 519 315 542 c 0
 315 565 283 584 273 584 c 0
 263 584 231 565 231 542 c 0
 231 519 263 500 273 500 c 0
55 416 m 0
 65 416 97 435 97 458 c 0
 97 481 65 500 55 500 c 0
 45 500 13 481 13 458 c 0
 13 435 45 416 55 416 c 0
55 333 m 0
 65 333 97 352 97 375 c 0
 97 398 65 417 55 417 c 0
 45 417 13 398 13 375 c 0
 13 352 45 333 55 333 c 0
127 333 m 0
 137 333 169 352 169 375 c 0
 169 398 137 417 127 417 c 0
 117 417 85 398 85 375 c 0
 85 352 117 333 127 333 c 0
200 333 m 0
 210 333 242 352 242 375 c 0
 242 398 210 417 200 417 c 0
 190 417 158 398 158 375 c 0
 158 352 190 333 200 333 c 0
273 250 m 0
 283 250 315 269 315 292 c 0
 315 315 283 334 273 334 c 0
 263 334 231 315 231 292 c 0
 231 269 263 250 273 250 c 0
273 166 m 0
 283 166 315 185 315 208 c 0
 315 231 283 250 273 250 c 0
 263 250 231 231 231 208 c 0
 231 185 263 166 273 166 c 0
55 83 m 0
 65 83 97 102 97 125 c 0
 97 148 65 167 55 167 c 0
 45 167 13 148 13 125 c 0
 13 102 45 83 55 83 c 0
273 83 m 0
 283 83 315 102 315 125 c 0
 315 148 283 167 273 167 c 0
 263 167 231 148 231 125 c 0
 231 102 263 83 273 83 c 0
91 0 m 0
 101 0 133 19 133 42 c 0
 133 65 101 84 91 84 c 0
 81 84 49 65 49 42 c 0
 49 19 81 0 91 0 c 0
164 0 m 0
 174 0 206 19 206 42 c 0
 206 65 174 84 164 84 c 0
 154 84 122 65 122 42 c 0
 122 19 154 0 164 0 c 0
236 0 m 0
 246 0 278 19 278 42 c 0
 278 65 246 84 236 84 c 0
 226 84 194 65 194 42 c 0
 194 19 226 0 236 0 c 0
EndSplineSet
EndChar

StartChar: six
Encoding: 54 54 22
Width: 364
Flags: HW
LayerCount: 2
Back
Fore
SplineSet
200 500 m 0
 210 500 242 519 242 542 c 0
 242 565 210 584 200 584 c 0
 190 584 158 565 158 542 c 0
 158 519 190 500 200 500 c 0
164 416 m 0
 174 416 206 435 206 458 c 0
 206 481 174 500 164 500 c 0
 154 500 122 481 122 458 c 0
 122 435 154 416 164 416 c 0
127 333 m 0
 137 333 169 352 169 375 c 0
 169 398 137 417 127 417 c 0
 117 417 85 398 85 375 c 0
 85 352 117 333 127 333 c 0
91 250 m 0
 101 250 133 269 133 292 c 0
 133 315 101 334 91 334 c 0
 81 334 49 315 49 292 c 0
 49 269 81 250 91 250 c 0
164 250 m 0
 174 250 206 269 206 292 c 0
 206 315 174 334 164 334 c 0
 154 334 122 315 122 292 c 0
 122 269 154 250 164 250 c 0
236 250 m 0
 246 250 278 269 278 292 c 0
 278 315 246 334 236 334 c 0
 226 334 194 315 194 292 c 0
 194 269 226 250 236 250 c 0
55 166 m 0
 65 166 97 185 97 208 c 0
 97 231 65 250 55 250 c 0
 45 250 13 231 13 208 c 0
 13 185 45 166 55 166 c 0
273 166 m 0
 283 166 315 185 315 208 c 0
 315 231 283 250 273 250 c 0
 263 250 231 231 231 208 c 0
 231 185 263 166 273 166 c 0
55 83 m 0
 65 83 97 102 97 125 c 0
 97 148 65 167 55 167 c 0
 45 167 13 148 13 125 c 0
 13 102 45 83 55 83 c 0
273 83 m 0
 283 83 315 102 315 125 c 0
 315 148 283 167 273 167 c 0
 263 167 231 148 231 125 c 0
 231 102 263 83 273 83 c 0
91 0 m 0
 101 0 133 19 133 42 c 0
 133 65 101 84 91 84 c 0
 81 84 49 65 49 42 c 0
 49 19 81 0 91 0 c 0
164 0 m 0
 174 0 206 19 206 42 c 0
 206 65 174 84 164 84 c 0
 154 84 122 65 122 42 c 0
 122 19 154 0 164 0 c 0
236 0 m 0
 246 0 278 19 278 42 c 0
 278 65 246 84 236 84 c 0
 226 84 194 65 194 42 c 0
 194 19 226 0 236 0 c 0
EndSplineSet
EndChar

StartChar: seven
Encoding: 55 55 23
Width: 364
Flags: HW
LayerCount: 2
Back
Fore
SplineSet
55 500 m 0
 65 500 97 519 97 542 c 0
 97 565 65 584 55 584 c 0
 45 584 13 565 13 542 c 0
 13 519 45 500 55 500 c 0
127 500 m 0
 137 500 169 519 169 542 c 0
 169 565 137 584 127 584 c 0
 117 584 85 565 85 542 c 0
 85 519 117 500 127 500 c 0
200 500 m 0
 210 500 242 519 242 542 c 0
 242 565 210 584 200 584 c 0
 190 584 158 565 158 542 c 0
 158 519 190 500 200 500 c 0
273 500 m 0
 283 500 315 519 315 542 c 0
 315 565 283 584 273 584 c 0
 263 584 231 565 231 542 c 0
 231 519 263 500 273 500 c 0
273 416 m 0
 283 416 315 435 315 458 c 0
 315 481 283 500 273 500 c 0
 263 500 231 481 231 458 c 0
 231 435 263 416 273 416 c 0
236 333 m 0
 246 333 278 352 278 375 c 0
 278 398 246 417 236 417 c 0
 226 417 194 398 194 375 c 0
 194 352 226 333 236 333 c 0
200 250 m 0
 210 250 242 269 242 292 c 0
 242 315 210 334 200 334 c 0
 190 334 158 315 158 292 c 0
 158 269 190 250 200 250 c 0
164 166 m 0
 174 166 206 185 206 208 c 0
 206 231 174 250 164 250 c 0
 154 250 122 231 122 208 c 0
 122 185 154 166 164 166 c 0
127 83 m 0
 137 83 169 102 169 125 c 0
 169 148 137 167 127 167 c 0
 117 167 85 148 85 125 c 0
 85 102 117 83 127 83 c 0
91 0 m 0
 101 0 133 19 133 42 c 0
 133 65 101 84 91 84 c 0
 81 84 49 65 49 42 c 0
 49 19 81 0 91 0 c 0
EndSplineSet
EndChar

StartChar: eight
Encoding: 56 56 24
Width: 364
Flags: HW
LayerCount: 2
Back
Fore
SplineSet
91 500 m 0
 101 500 133 519 133 542 c 0
 133 565 101 584 91 584 c 0
 81 584 49 565 49 542 c 0
 49 519 81 500 91 500 c 0
164 500 m 0
 174 500 206 519 206 542 c 0
 206 565 174 584 164 584 c 0
 154 584 122 565 122 542 c 0
 122 519 154 500 164 500 c 0
236 500 m 0
 246 500 278 519 278 542 c 0
 278 565 246 584 236 584 c 0
 226 584 194 565 194 542 c 0
 194 519 226 500 236 500 c 0
55 416 m 0
 65 416 97 435 97 458 c 0
 97 481 65 500 55 500 c 0
 45 500 13 481 13 458 c 0
 13 435 45 416 55 416 c 0
273 416 m 0
 283 416 315 435 315 458 c 0
 315 481 283 500 273 500 c 0
 263 500 231 481 231 458 c 0
 231 435 263 416 273 416 c 0
55 333 m 0
 65 333 97 352 97 375 c 0
 97 398 65 417 55 417 c 0
 45 417 13 398 13 375 c 0
 13 352 45 333 55 333 c 0
273 333 m 0
 283 333 315 352 315 375 c 0
 315 398 283 417 273 417 c 0
 263 417 231 398 231 375 c 0
 231 352 263 333 273 333 c 0
91 250 m 0
 101 250 133 269 133 292 c 0
 133 315 101 334 91 334 c 0
 81 334 49 315 49 292 c 0
 49 269 81 250 91 250 c 0
164 250 m 0
 174 250 206 269 206 292 c 0
 206 315 174 334 164 334 c 0
 154 334 122 315 122 292 c 0
 122 269 154 250 164 250 c 0
236 250 m 0
 246 250 278 269 278 292 c 0
 278 315 246 334 236 334 c 0
 226 334 194 315 194 292 c 0
 194 269 226 250 236 250 c 0
55 166 m 0
 65 166 97 185 97 208 c 0
 97 231 65 250 55 250 c 0
 45 250 13 231 13 208 c 0
 13 185 45 166 55 166 c 0
273 166 m 0
 283 166 315 185 315 208 c 0
 315 231 283 250 273 250 c 0
 263 250 231 231 231 208 c 0
 231 185 263 166 273 166 c 0
55 83 m 0
 65 83 97 102 97 125 c 0
 97 148 65 167 55 167 c 0
 45 167 13 148 13 125 c 0
 13 102 45 83 55 83 c 0
273 83 m 0
 283 83 315 102 315 125 c 0
 315 148 283 167 273 167 c 0
 263 167 231 148 231 125 c 0
 231 102 263 83 273 83 c 0
91 0 m 0
 101 0 133 19 133 42 c 0
 133 65 101 84 91 84 c 0
 81 84 49 65 49 42 c 0
 49 19 81 0 91 0 c 0
164 0 m 0
 174 0 206 19 206 42 c 0
 206 65 174 84 164 84 c 0
 154 84 122 65 122 42 c 0
 122 19 154 0 164 0 c 0
236 0 m 0
 246 0 278 19 278 42 c 0
 278 65 246 84 236 84 c 0
 226 84 194 65 194 42 c 0
 194 19 226 0 236 0 c 0
EndSplineSet
EndChar

StartChar: nine
Encoding: 57 57 25
Width: 364
Flags: HW
LayerCount: 2
Back
Fore
SplineSet
91 500 m 0
 101 500 133 519 133 542 c 0
 133 565 101 584 91 584 c 0
 81 584 49 565 49 542 c 0
 49 519 81 500 91 500 c 0
164 500 m 0
 174 500 206 519 206 542 c 0
 206 565 174 584 164 584 c 0
 154 584 122 565 122 542 c 0
 122 519 154 500 164 500 c 0
236 500 m 0
 246 500 278 519 278 542 c 0
 278 565 246 584 236 584 c 0
 226 584 194 565 194 542 c 0
 194 519 226 500 236 500 c 0
55 416 m 0
 65 416 97 435 97 458 c 0
 97 481 65 500 55 500 c 0
 45 500 13 481 13 458 c 0
 13 435 45 416 55 416 c 0
273 416 m 0
 283 416 315 435 315 458 c 0
 315 481 283 500 273 500 c 0
 263 500 231 481 231 458 c 0
 231 435 263 416 273 416 c 0
55 333 m 0
 65 333 97 352 97 375 c 0
 97 398 65 417 55 417 c 0
 45 417 13 398 13 375 c 0
 13 352 45 333 55 333 c 0
273 333 m 0
 283 333 315 352 315 375 c 0
 315 398 283 417 273 417 c 0
 263 417 231 398 231 375 c 0
 231 352 263 333 273 333 c 0
91 250 m 0
 101 250 133 269 133 292 c 0
 133 315 101 334 91 334 c 0
 81 334 49 315 49 292 c 0
 49 269 81 250 91 250 c 0
164 250 m 0
 174 250 206 269 206 292 c 0
 206 315 174 334 164 334 c 0
 154 334 122 315 122 292 c 0
 122 269 154 250 164 250 c 0
236 250 m 0
 246 250 278 269 278 292 c 0
 278 315 246 334 236 334 c 0
 226 334 194 315 194 292 c 0
 194 269 226 250 236 250 c 0
200 166 m 0
 210 166 242 185 242 208 c 0
 242 231 210 250 200 250 c 0
 190 250 158 231 158 208 c 0
 158 185 190 166 200 166 c 0
164 83 m 0
 174 83 206 102 206 125 c 0
 206 148 174 167 164 167 c 0
 154 167 122 148 122 125 c 0
 122 102 154 83 164 83 c 0
127 0 m 0
 137 0 169 19 169 42 c 0
 169 65 137 84 127 84 c 0
 117 84 85 65 85 42 c 0
 85 19 117 0 127 0 c 0
EndSplineSet
EndChar

StartChar: colon
Encoding: 58 58 26
Width: 364
Flags: HW
LayerCount: 2
Back
Fore
SplineSet
164 500 m 0
 174 500 206 519 206 542 c 0
 206 565 174 584 164 584 c 0
 154 584 122 565 122 542 c 0
 122 519 154 500 164 500 c 0
127 416 m 0
 137 416 169 435 169 458 c 0
 169 481 137 500 127 500 c 0
 117 500 85 481 85 458 c 0
 85 435 117 416 127 416 c 0
200 416 m 0
 210 416 242 435 242 458 c 0
 242 481 210 500 200 500 c 0
 190 500 158 481 158 458 c 0
 158 435 190 416 200 416 c 0
164 333 m 0
 174 333 206 352 206 375 c 0
 206 398 174 417 164 417 c 0
 154 417 122 398 122 375 c 0
 122 352 154 333 164 333 c 0
164 166 m 0
 174 166 206 185 206 208 c 0
 206 231 174 250 164 250 c 0
 154 250 122 231 122 208 c 0
 122 185 154 166 164 166 c 0
127 83 m 0
 137 83 169 102 169 125 c 0
 169 148 137 167 127 167 c 0
 117 167 85 148 85 125 c 0
 85 102 117 83 127 83 c 0
200 83 m 0
 210 83 242 102 242 125 c 0
 242 148 210 167 200 167 c 0
 190 167 158 148 158 125 c 0
 158 102 190 83 200 83 c 0
164 0 m 0
 174 0 206 19 206 42 c 0
 206 65 174 84 164 84 c 0
 154 84 122 65 122 42 c 0
 122 19 154 0 164 0 c 0
EndSplineSet
EndChar

StartChar: semicolon
Encoding: 59 59 27
Width: 364
Flags: HW
LayerCount: 2
Back
Fore
SplineSet
164 500 m 0
 174 500 206 519 206 542 c 0
 206 565 174 584 164 584 c 0
 154 584 122 565 122 542 c 0
 122 519 154 500 164 500 c 0
127 416 m 0
 137 416 169 435 169 458 c 0
 169 481 137 500 127 500 c 0
 117 500 85 481 85 458 c 0
 85 435 117 416 127 416 c 0
200 416 m 0
 210 416 242 435 242 458 c 0
 242 481 210 500 200 500 c 0
 190 500 158 481 158 458 c 0
 158 435 190 416 200 416 c 0
127 250 m 0
 137 250 169 269 169 292 c 0
 169 315 137 334 127 334 c 0
 117 334 85 315 85 292 c 0
 85 269 117 250 127 250 c 0
200 250 m 0
 210 250 242 269 242 292 c 0
 242 315 210 334 200 334 c 0
 190 334 158 315 158 292 c 0
 158 269 190 250 200 250 c 0
127 166 m 0
 137 166 169 185 169 208 c 0
 169 231 137 250 127 250 c 0
 117 250 85 231 85 208 c 0
 85 185 117 166 127 166 c 0
200 166 m 0
 210 166 242 185 242 208 c 0
 242 231 210 250 200 250 c 0
 190 250 158 231 158 208 c 0
 158 185 190 166 200 166 c 0
164 83 m 0
 174 83 206 102 206 125 c 0
 206 148 174 167 164 167 c 0
 154 167 122 148 122 125 c 0
 122 102 154 83 164 83 c 0
127 0 m 0
 137 0 169 19 169 42 c 0
 169 65 137 84 127 84 c 0
 117 84 85 65 85 42 c 0
 85 19 117 0 127 0 c 0
EndSplineSet
EndChar

StartChar: less
Encoding: 60 60 28
Width: 364
Flags: HW
LayerCount: 2
Back
Fore
SplineSet
273 500 m 0
 283 500 315 519 315 542 c 0
 315 565 283 584 273 584 c 0
 263 584 231 565 231 542 c 0
 231 519 263 500 273 500 c 0
200 416 m 0
 210 416 242 435 242 458 c 0
 242 481 210 500 200 500 c 0
 190 500 158 481 158 458 c 0
 158 435 190 416 200 416 c 0
127 333 m 0
 137 333 169 352 169 375 c 0
 169 398 137 417 127 417 c 0
 117 417 85 398 85 375 c 0
 85 352 117 333 127 333 c 0
55 250 m 0
 65 250 97 269 97 292 c 0
 97 315 65 334 55 334 c 0
 45 334 13 315 13 292 c 0
 13 269 45 250 55 250 c 0
127 166 m 0
 137 166 169 185 169 208 c 0
 169 231 137 250 127 250 c 0
 117 250 85 231 85 208 c 0
 85 185 117 166 127 166 c 0
200 83 m 0
 210 83 242 102 242 125 c 0
 242 148 210 167 200 167 c 0
 190 167 158 148 158 125 c 0
 158 102 190 83 200 83 c 0
273 0 m 0
 283 0 315 19 315 42 c 0
 315 65 283 84 273 84 c 0
 263 84 231 65 231 42 c 0
 231 19 263 0 273 0 c 0
EndSplineSet
EndChar

StartChar: equal
Encoding: 61 61 29
Width: 364
Flags: HW
LayerCount: 2
Back
Fore
SplineSet
55 333 m 0
 65 333 97 352 97 375 c 0
 97 398 65 417 55 417 c 0
 45 417 13 398 13 375 c 0
 13 352 45 333 55 333 c 0
127 333 m 0
 137 333 169 352 169 375 c 0
 169 398 137 417 127 417 c 0
 117 417 85 398 85 375 c 0
 85 352 117 333 127 333 c 0
200 333 m 0
 210 333 242 352 242 375 c 0
 242 398 210 417 200 417 c 0
 190 417 158 398 158 375 c 0
 158 352 190 333 200 333 c 0
273 333 m 0
 283 333 315 352 315 375 c 0
 315 398 283 417 273 417 c 0
 263 417 231 398 231 375 c 0
 231 352 263 333 273 333 c 0
55 166 m 0
 65 166 97 185 97 208 c 0
 97 231 65 250 55 250 c 0
 45 250 13 231 13 208 c 0
 13 185 45 166 55 166 c 0
127 166 m 0
 137 166 169 185 169 208 c 0
 169 231 137 250 127 250 c 0
 117 250 85 231 85 208 c 0
 85 185 117 166 127 166 c 0
200 166 m 0
 210 166 242 185 242 208 c 0
 242 231 210 250 200 250 c 0
 190 250 158 231 158 208 c 0
 158 185 190 166 200 166 c 0
273 166 m 0
 283 166 315 185 315 208 c 0
 315 231 283 250 273 250 c 0
 263 250 231 231 231 208 c 0
 231 185 263 166 273 166 c 0
EndSplineSet
EndChar

StartChar: greater
Encoding: 62 62 30
Width: 364
Flags: HW
LayerCount: 2
Back
Fore
SplineSet
55 500 m 0
 65 500 97 519 97 542 c 0
 97 565 65 584 55 584 c 0
 45 584 13 565 13 542 c 0
 13 519 45 500 55 500 c 0
127 416 m 0
 137 416 169 435 169 458 c 0
 169 481 137 500 127 500 c 0
 117 500 85 481 85 458 c 0
 85 435 117 416 127 416 c 0
200 333 m 0
 210 333 242 352 242 375 c 0
 242 398 210 417 200 417 c 0
 190 417 158 398 158 375 c 0
 158 352 190 333 200 333 c 0
273 250 m 0
 283 250 315 269 315 292 c 0
 315 315 283 334 273 334 c 0
 263 334 231 315 231 292 c 0
 231 269 263 250 273 250 c 0
200 166 m 0
 210 166 242 185 242 208 c 0
 242 231 210 250 200 250 c 0
 190 250 158 231 158 208 c 0
 158 185 190 166 200 166 c 0
127 83 m 0
 137 83 169 102 169 125 c 0
 169 148 137 167 127 167 c 0
 117 167 85 148 85 125 c 0
 85 102 117 83 127 83 c 0
55 0 m 0
 65 0 97 19 97 42 c 0
 97 65 65 84 55 84 c 0
 45 84 13 65 13 42 c 0
 13 19 45 0 55 0 c 0
EndSplineSet
EndChar

StartChar: question
Encoding: 63 63 31
Width: 364
Flags: HW
LayerCount: 2
Back
Fore
SplineSet
91 500 m 0
 101 500 133 519 133 542 c 0
 133 565 101 584 91 584 c 0
 81 584 49 565 49 542 c 0
 49 519 81 500 91 500 c 0
164 500 m 0
 174 500 206 519 206 542 c 0
 206 565 174 584 164 584 c 0
 154 584 122 565 122 542 c 0
 122 519 154 500 164 500 c 0
236 500 m 0
 246 500 278 519 278 542 c 0
 278 565 246 584 236 584 c 0
 226 584 194 565 194 542 c 0
 194 519 226 500 236 500 c 0
55 416 m 0
 65 416 97 435 97 458 c 0
 97 481 65 500 55 500 c 0
 45 500 13 481 13 458 c 0
 13 435 45 416 55 416 c 0
273 416 m 0
 283 416 315 435 315 458 c 0
 315 481 283 500 273 500 c 0
 263 500 231 481 231 458 c 0
 231 435 263 416 273 416 c 0
164 333 m 0
 174 333 206 352 206 375 c 0
 206 398 174 417 164 417 c 0
 154 417 122 398 122 375 c 0
 122 352 154 333 164 333 c 0
236 333 m 0
 246 333 278 352 278 375 c 0
 278 398 246 417 236 417 c 0
 226 417 194 398 194 375 c 0
 194 352 226 333 236 333 c 0
164 250 m 0
 174 250 206 269 206 292 c 0
 206 315 174 334 164 334 c 0
 154 334 122 315 122 292 c 0
 122 269 154 250 164 250 c 0
164 166 m 0
 174 166 206 185 206 208 c 0
 206 231 174 250 164 250 c 0
 154 250 122 231 122 208 c 0
 122 185 154 166 164 166 c 0
164 0 m 0
 174 0 206 19 206 42 c 0
 206 65 174 84 164 84 c 0
 154 84 122 65 122 42 c 0
 122 19 154 0 164 0 c 0
EndSplineSet
EndChar

StartChar: at
Encoding: 64 64 32
Width: 364
Flags: HW
LayerCount: 2
Back
Fore
SplineSet
91 500 m 0
 101 500 133 519 133 542 c 0
 133 565 101 584 91 584 c 0
 81 584 49 565 49 542 c 0
 49 519 81 500 91 500 c 0
164 500 m 0
 174 500 206 519 206 542 c 0
 206 565 174 584 164 584 c 0
 154 584 122 565 122 542 c 0
 122 519 154 500 164 500 c 0
236 500 m 0
 246 500 278 519 278 542 c 0
 278 565 246 584 236 584 c 0
 226 584 194 565 194 542 c 0
 194 519 226 500 236 500 c 0
55 416 m 0
 65 416 97 435 97 458 c 0
 97 481 65 500 55 500 c 0
 45 500 13 481 13 458 c 0
 13 435 45 416 55 416 c 0
273 416 m 0
 283 416 315 435 315 458 c 0
 315 481 283 500 273 500 c 0
 263 500 231 481 231 458 c 0
 231 435 263 416 273 416 c 0
55 333 m 0
 65 333 97 352 97 375 c 0
 97 398 65 417 55 417 c 0
 45 417 13 398 13 375 c 0
 13 352 45 333 55 333 c 0
200 333 m 0
 210 333 242 352 242 375 c 0
 242 398 210 417 200 417 c 0
 190 417 158 398 158 375 c 0
 158 352 190 333 200 333 c 0
273 333 m 0
 283 333 315 352 315 375 c 0
 315 398 283 417 273 417 c 0
 263 417 231 398 231 375 c 0
 231 352 263 333 273 333 c 0
55 250 m 0
 65 250 97 269 97 292 c 0
 97 315 65 334 55 334 c 0
 45 334 13 315 13 292 c 0
 13 269 45 250 55 250 c 0
164 250 m 0
 174 250 206 269 206 292 c 0
 206 315 174 334 164 334 c 0
 154 334 122 315 122 292 c 0
 122 269 154 250 164 250 c 0
273 250 m 0
 283 250 315 269 315 292 c 0
 315 315 283 334 273 334 c 0
 263 334 231 315 231 292 c 0
 231 269 263 250 273 250 c 0
55 166 m 0
 65 166 97 185 97 208 c 0
 97 231 65 250 55 250 c 0
 45 250 13 231 13 208 c 0
 13 185 45 166 55 166 c 0
164 166 m 0
 174 166 206 185 206 208 c 0
 206 231 174 250 164 250 c 0
 154 250 122 231 122 208 c 0
 122 185 154 166 164 166 c 0
236 166 m 0
 246 166 278 185 278 208 c 0
 278 231 246 250 236 250 c 0
 226 250 194 231 194 208 c 0
 194 185 226 166 236 166 c 0
55 83 m 0
 65 83 97 102 97 125 c 0
 97 148 65 167 55 167 c 0
 45 167 13 148 13 125 c 0
 13 102 45 83 55 83 c 0
91 0 m 0
 101 0 133 19 133 42 c 0
 133 65 101 84 91 84 c 0
 81 84 49 65 49 42 c 0
 49 19 81 0 91 0 c 0
164 0 m 0
 174 0 206 19 206 42 c 0
 206 65 174 84 164 84 c 0
 154 84 122 65 122 42 c 0
 122 19 154 0 164 0 c 0
236 0 m 0
 246 0 278 19 278 42 c 0
 278 65 246 84 236 84 c 0
 226 84 194 65 194 42 c 0
 194 19 226 0 236 0 c 0
EndSplineSet
EndChar

StartChar: A
Encoding: 65 65 33
Width: 364
Flags: HW
LayerCount: 2
Back
Fore
SplineSet
164 500 m 0
 174 500 206 519 206 542 c 0
 206 565 174 584 164 584 c 0
 154 584 122 565 122 542 c 0
 122 519 154 500 164 500 c 0
127 416 m 0
 137 416 169 435 169 458 c 0
 169 481 137 500 127 500 c 0
 117 500 85 481 85 458 c 0
 85 435 117 416 127 416 c 0
200 416 m 0
 210 416 242 435 242 458 c 0
 242 481 210 500 200 500 c 0
 190 500 158 481 158 458 c 0
 158 435 190 416 200 416 c 0
91 333 m 0
 101 333 133 352 133 375 c 0
 133 398 101 417 91 417 c 0
 81 417 49 398 49 375 c 0
 49 352 81 333 91 333 c 0
236 333 m 0
 246 333 278 352 278 375 c 0
 278 398 246 417 236 417 c 0
 226 417 194 398 194 375 c 0
 194 352 226 333 236 333 c 0
55 250 m 0
 65 250 97 269 97 292 c 0
 97 315 65 334 55 334 c 0
 45 334 13 315 13 292 c 0
 13 269 45 250 55 250 c 0
273 250 m 0
 283 250 315 269 315 292 c 0
 315 315 283 334 273 334 c 0
 263 334 231 315 231 292 c 0
 231 269 263 250 273 250 c 0
55 166 m 0
 65 166 97 185 97 208 c 0
 97 231 65 250 55 250 c 0
 45 250 13 231 13 208 c 0
 13 185 45 166 55 166 c 0
127 166 m 0
 137 166 169 185 169 208 c 0
 169 231 137 250 127 250 c 0
 117 250 85 231 85 208 c 0
 85 185 117 166 127 166 c 0
200 166 m 0
 210 166 242 185 242 208 c 0
 242 231 210 250 200 250 c 0
 190 250 158 231 158 208 c 0
 158 185 190 166 200 166 c 0
273 166 m 0
 283 166 315 185 315 208 c 0
 315 231 283 250 273 250 c 0
 263 250 231 231 231 208 c 0
 231 185 263 166 273 166 c 0
55 83 m 0
 65 83 97 102 97 125 c 0
 97 148 65 167 55 167 c 0
 45 167 13 148 13 125 c 0
 13 102 45 83 55 83 c 0
273 83 m 0
 283 83 315 102 315 125 c 0
 315 148 283 167 273 167 c 0
 263 167 231 148 231 125 c 0
 231 102 263 83 273 83 c 0
55 0 m 0
 65 0 97 19 97 42 c 0
 97 65 65 84 55 84 c 0
 45 84 13 65 13 42 c 0
 13 19 45 0 55 0 c 0
273 0 m 0
 283 0 315 19 315 42 c 0
 315 65 283 84 273 84 c 0
 263 84 231 65 231 42 c 0
 231 19 263 0 273 0 c 0
EndSplineSet
EndChar

StartChar: B
Encoding: 66 66 34
Width: 364
Flags: HW
LayerCount: 2
Back
Fore
SplineSet
55 500 m 0
 65 500 97 519 97 542 c 0
 97 565 65 584 55 584 c 0
 45 584 13 565 13 542 c 0
 13 519 45 500 55 500 c 0
127 500 m 0
 137 500 169 519 169 542 c 0
 169 565 137 584 127 584 c 0
 117 584 85 565 85 542 c 0
 85 519 117 500 127 500 c 0
200 500 m 0
 210 500 242 519 242 542 c 0
 242 565 210 584 200 584 c 0
 190 584 158 565 158 542 c 0
 158 519 190 500 200 500 c 0
91 416 m 0
 101 416 133 435 133 458 c 0
 133 481 101 500 91 500 c 0
 81 500 49 481 49 458 c 0
 49 435 81 416 91 416 c 0
273 416 m 0
 283 416 315 435 315 458 c 0
 315 481 283 500 273 500 c 0
 263 500 231 481 231 458 c 0
 231 435 263 416 273 416 c 0
91 333 m 0
 101 333 133 352 133 375 c 0
 133 398 101 417 91 417 c 0
 81 417 49 398 49 375 c 0
 49 352 81 333 91 333 c 0
273 333 m 0
 283 333 315 352 315 375 c 0
 315 398 283 417 273 417 c 0
 263 417 231 398 231 375 c 0
 231 352 263 333 273 333 c 0
91 250 m 0
 101 250 133 269 133 292 c 0
 133 315 101 334 91 334 c 0
 81 334 49 315 49 292 c 0
 49 269 81 250 91 250 c 0
164 250 m 0
 174 250 206 269 206 292 c 0
 206 315 174 334 164 334 c 0
 154 334 122 315 122 292 c 0
 122 269 154 250 164 250 c 0
236 250 m 0
 246 250 278 269 278 292 c 0
 278 315 246 334 236 334 c 0
 226 334 194 315 194 292 c 0
 194 269 226 250 236 250 c 0
91 166 m 0
 101 166 133 185 133 208 c 0
 133 231 101 250 91 250 c 0
 81 250 49 231 49 208 c 0
 49 185 81 166 91 166 c 0
273 166 m 0
 283 166 315 185 315 208 c 0
 315 231 283 250 273 250 c 0
 263 250 231 231 231 208 c 0
 231 185 263 166 273 166 c 0
91 83 m 0
 101 83 133 102 133 125 c 0
 133 148 101 167 91 167 c 0
 81 167 49 148 49 125 c 0
 49 102 81 83 91 83 c 0
273 83 m 0
 283 83 315 102 315 125 c 0
 315 148 283 167 273 167 c 0
 263 167 231 148 231 125 c 0
 231 102 263 83 273 83 c 0
55 0 m 0
 65 0 97 19 97 42 c 0
 97 65 65 84 55 84 c 0
 45 84 13 65 13 42 c 0
 13 19 45 0 55 0 c 0
127 0 m 0
 137 0 169 19 169 42 c 0
 169 65 137 84 127 84 c 0
 117 84 85 65 85 42 c 0
 85 19 117 0 127 0 c 0
200 0 m 0
 210 0 242 19 242 42 c 0
 242 65 210 84 200 84 c 0
 190 84 158 65 158 42 c 0
 158 19 190 0 200 0 c 0
EndSplineSet
EndChar

StartChar: C
Encoding: 67 67 35
Width: 364
Flags: HW
LayerCount: 2
Back
Fore
SplineSet
91 500 m 0
 101 500 133 519 133 542 c 0
 133 565 101 584 91 584 c 0
 81 584 49 565 49 542 c 0
 49 519 81 500 91 500 c 0
164 500 m 0
 174 500 206 519 206 542 c 0
 206 565 174 584 164 584 c 0
 154 584 122 565 122 542 c 0
 122 519 154 500 164 500 c 0
236 500 m 0
 246 500 278 519 278 542 c 0
 278 565 246 584 236 584 c 0
 226 584 194 565 194 542 c 0
 194 519 226 500 236 500 c 0
55 416 m 0
 65 416 97 435 97 458 c 0
 97 481 65 500 55 500 c 0
 45 500 13 481 13 458 c 0
 13 435 45 416 55 416 c 0
273 416 m 0
 283 416 315 435 315 458 c 0
 315 481 283 500 273 500 c 0
 263 500 231 481 231 458 c 0
 231 435 263 416 273 416 c 0
55 333 m 0
 65 333 97 352 97 375 c 0
 97 398 65 417 55 417 c 0
 45 417 13 398 13 375 c 0
 13 352 45 333 55 333 c 0
55 250 m 0
 65 250 97 269 97 292 c 0
 97 315 65 334 55 334 c 0
 45 334 13 315 13 292 c 0
 13 269 45 250 55 250 c 0
55 166 m 0
 65 166 97 185 97 208 c 0
 97 231 65 250 55 250 c 0
 45 250 13 231 13 208 c 0
 13 185 45 166 55 166 c 0
55 83 m 0
 65 83 97 102 97 125 c 0
 97 148 65 167 55 167 c 0
 45 167 13 148 13 125 c 0
 13 102 45 83 55 83 c 0
273 83 m 0
 283 83 315 102 315 125 c 0
 315 148 283 167 273 167 c 0
 263 167 231 148 231 125 c 0
 231 102 263 83 273 83 c 0
91 0 m 0
 101 0 133 19 133 42 c 0
 133 65 101 84 91 84 c 0
 81 84 49 65 49 42 c 0
 49 19 81 0 91 0 c 0
164 0 m 0
 174 0 206 19 206 42 c 0
 206 65 174 84 164 84 c 0
 154 84 122 65 122 42 c 0
 122 19 154 0 164 0 c 0
236 0 m 0
 246 0 278 19 278 42 c 0
 278 65 246 84 236 84 c 0
 226 84 194 65 194 42 c 0
 194 19 226 0 236 0 c 0
EndSplineSet
EndChar

StartChar: D
Encoding: 68 68 36
Width: 364
Flags: HW
LayerCount: 2
Back
Fore
SplineSet
55 500 m 0
 65 500 97 519 97 542 c 0
 97 565 65 584 55 584 c 0
 45 584 13 565 13 542 c 0
 13 519 45 500 55 500 c 0
127 500 m 0
 137 500 169 519 169 542 c 0
 169 565 137 584 127 584 c 0
 117 584 85 565 85 542 c 0
 85 519 117 500 127 500 c 0
200 500 m 0
 210 500 242 519 242 542 c 0
 242 565 210 584 200 584 c 0
 190 584 158 565 158 542 c 0
 158 519 190 500 200 500 c 0
91 416 m 0
 101 416 133 435 133 458 c 0
 133 481 101 500 91 500 c 0
 81 500 49 481 49 458 c 0
 49 435 81 416 91 416 c 0
273 416 m 0
 283 416 315 435 315 458 c 0
 315 481 283 500 273 500 c 0
 263 500 231 481 231 458 c 0
 231 435 263 416 273 416 c 0
91 333 m 0
 101 333 133 352 133 375 c 0
 133 398 101 417 91 417 c 0
 81 417 49 398 49 375 c 0
 49 352 81 333 91 333 c 0
273 333 m 0
 283 333 315 352 315 375 c 0
 315 398 283 417 273 417 c 0
 263 417 231 398 231 375 c 0
 231 352 263 333 273 333 c 0
91 250 m 0
 101 250 133 269 133 292 c 0
 133 315 101 334 91 334 c 0
 81 334 49 315 49 292 c 0
 49 269 81 250 91 250 c 0
273 250 m 0
 283 250 315 269 315 292 c 0
 315 315 283 334 273 334 c 0
 263 334 231 315 231 292 c 0
 231 269 263 250 273 250 c 0
91 166 m 0
 101 166 133 185 133 208 c 0
 133 231 101 250 91 250 c 0
 81 250 49 231 49 208 c 0
 49 185 81 166 91 166 c 0
273 166 m 0
 283 166 315 185 315 208 c 0
 315 231 283 250 273 250 c 0
 263 250 231 231 231 208 c 0
 231 185 263 166 273 166 c 0
91 83 m 0
 101 83 133 102 133 125 c 0
 133 148 101 167 91 167 c 0
 81 167 49 148 49 125 c 0
 49 102 81 83 91 83 c 0
273 83 m 0
 283 83 315 102 315 125 c 0
 315 148 283 167 273 167 c 0
 263 167 231 148 231 125 c 0
 231 102 263 83 273 83 c 0
55 0 m 0
 65 0 97 19 97 42 c 0
 97 65 65 84 55 84 c 0
 45 84 13 65 13 42 c 0
 13 19 45 0 55 0 c 0
127 0 m 0
 137 0 169 19 169 42 c 0
 169 65 137 84 127 84 c 0
 117 84 85 65 85 42 c 0
 85 19 117 0 127 0 c 0
200 0 m 0
 210 0 242 19 242 42 c 0
 242 65 210 84 200 84 c 0
 190 84 158 65 158 42 c 0
 158 19 190 0 200 0 c 0
EndSplineSet
EndChar

StartChar: E
Encoding: 69 69 37
Width: 364
Flags: HW
LayerCount: 2
Back
Fore
SplineSet
55 500 m 0
 65 500 97 519 97 542 c 0
 97 565 65 584 55 584 c 0
 45 584 13 565 13 542 c 0
 13 519 45 500 55 500 c 0
127 500 m 0
 137 500 169 519 169 542 c 0
 169 565 137 584 127 584 c 0
 117 584 85 565 85 542 c 0
 85 519 117 500 127 500 c 0
200 500 m 0
 210 500 242 519 242 542 c 0
 242 565 210 584 200 584 c 0
 190 584 158 565 158 542 c 0
 158 519 190 500 200 500 c 0
273 500 m 0
 283 500 315 519 315 542 c 0
 315 565 283 584 273 584 c 0
 263 584 231 565 231 542 c 0
 231 519 263 500 273 500 c 0
55 416 m 0
 65 416 97 435 97 458 c 0
 97 481 65 500 55 500 c 0
 45 500 13 481 13 458 c 0
 13 435 45 416 55 416 c 0
55 333 m 0
 65 333 97 352 97 375 c 0
 97 398 65 417 55 417 c 0
 45 417 13 398 13 375 c 0
 13 352 45 333 55 333 c 0
55 250 m 0
 65 250 97 269 97 292 c 0
 97 315 65 334 55 334 c 0
 45 334 13 315 13 292 c 0
 13 269 45 250 55 250 c 0
127 250 m 0
 137 250 169 269 169 292 c 0
 169 315 137 334 127 334 c 0
 117 334 85 315 85 292 c 0
 85 269 117 250 127 250 c 0
200 250 m 0
 210 250 242 269 242 292 c 0
 242 315 210 334 200 334 c 0
 190 334 158 315 158 292 c 0
 158 269 190 250 200 250 c 0
55 166 m 0
 65 166 97 185 97 208 c 0
 97 231 65 250 55 250 c 0
 45 250 13 231 13 208 c 0
 13 185 45 166 55 166 c 0
55 83 m 0
 65 83 97 102 97 125 c 0
 97 148 65 167 55 167 c 0
 45 167 13 148 13 125 c 0
 13 102 45 83 55 83 c 0
55 0 m 0
 65 0 97 19 97 42 c 0
 97 65 65 84 55 84 c 0
 45 84 13 65 13 42 c 0
 13 19 45 0 55 0 c 0
127 0 m 0
 137 0 169 19 169 42 c 0
 169 65 137 84 127 84 c 0
 117 84 85 65 85 42 c 0
 85 19 117 0 127 0 c 0
200 0 m 0
 210 0 242 19 242 42 c 0
 242 65 210 84 200 84 c 0
 190 84 158 65 158 42 c 0
 158 19 190 0 200 0 c 0
273 0 m 0
 283 0 315 19 315 42 c 0
 315 65 283 84 273 84 c 0
 263 84 231 65 231 42 c 0
 231 19 263 0 273 0 c 0
EndSplineSet
EndChar

StartChar: F
Encoding: 70 70 38
Width: 364
Flags: HW
LayerCount: 2
Back
Fore
SplineSet
55 500 m 0
 65 500 97 519 97 542 c 0
 97 565 65 584 55 584 c 0
 45 584 13 565 13 542 c 0
 13 519 45 500 55 500 c 0
127 500 m 0
 137 500 169 519 169 542 c 0
 169 565 137 584 127 584 c 0
 117 584 85 565 85 542 c 0
 85 519 117 500 127 500 c 0
200 500 m 0
 210 500 242 519 242 542 c 0
 242 565 210 584 200 584 c 0
 190 584 158 565 158 542 c 0
 158 519 190 500 200 500 c 0
273 500 m 0
 283 500 315 519 315 542 c 0
 315 565 283 584 273 584 c 0
 263 584 231 565 231 542 c 0
 231 519 263 500 273 500 c 0
55 416 m 0
 65 416 97 435 97 458 c 0
 97 481 65 500 55 500 c 0
 45 500 13 481 13 458 c 0
 13 435 45 416 55 416 c 0
55 333 m 0
 65 333 97 352 97 375 c 0
 97 398 65 417 55 417 c 0
 45 417 13 398 13 375 c 0
 13 352 45 333 55 333 c 0
55 250 m 0
 65 250 97 269 97 292 c 0
 97 315 65 334 55 334 c 0
 45 334 13 315 13 292 c 0
 13 269 45 250 55 250 c 0
127 250 m 0
 137 250 169 269 169 292 c 0
 169 315 137 334 127 334 c 0
 117 334 85 315 85 292 c 0
 85 269 117 250 127 250 c 0
200 250 m 0
 210 250 242 269 242 292 c 0
 242 315 210 334 200 334 c 0
 190 334 158 315 158 292 c 0
 158 269 190 250 200 250 c 0
55 166 m 0
 65 166 97 185 97 208 c 0
 97 231 65 250 55 250 c 0
 45 250 13 231 13 208 c 0
 13 185 45 166 55 166 c 0
55 83 m 0
 65 83 97 102 97 125 c 0
 97 148 65 167 55 167 c 0
 45 167 13 148 13 125 c 0
 13 102 45 83 55 83 c 0
55 0 m 0
 65 0 97 19 97 42 c 0
 97 65 65 84 55 84 c 0
 45 84 13 65 13 42 c 0
 13 19 45 0 55 0 c 0
EndSplineSet
EndChar

StartChar: G
Encoding: 71 71 39
Width: 364
Flags: HW
LayerCount: 2
Back
Fore
SplineSet
91 500 m 0
 101 500 133 519 133 542 c 0
 133 565 101 584 91 584 c 0
 81 584 49 565 49 542 c 0
 49 519 81 500 91 500 c 0
164 500 m 0
 174 500 206 519 206 542 c 0
 206 565 174 584 164 584 c 0
 154 584 122 565 122 542 c 0
 122 519 154 500 164 500 c 0
236 500 m 0
 246 500 278 519 278 542 c 0
 278 565 246 584 236 584 c 0
 226 584 194 565 194 542 c 0
 194 519 226 500 236 500 c 0
55 416 m 0
 65 416 97 435 97 458 c 0
 97 481 65 500 55 500 c 0
 45 500 13 481 13 458 c 0
 13 435 45 416 55 416 c 0
273 416 m 0
 283 416 315 435 315 458 c 0
 315 481 283 500 273 500 c 0
 263 500 231 481 231 458 c 0
 231 435 263 416 273 416 c 0
55 333 m 0
 65 333 97 352 97 375 c 0
 97 398 65 417 55 417 c 0
 45 417 13 398 13 375 c 0
 13 352 45 333 55 333 c 0
55 250 m 0
 65 250 97 269 97 292 c 0
 97 315 65 334 55 334 c 0
 45 334 13 315 13 292 c 0
 13 269 45 250 55 250 c 0
200 250 m 0
 210 250 242 269 242 292 c 0
 242 315 210 334 200 334 c 0
 190 334 158 315 158 292 c 0
 158 269 190 250 200 250 c 0
273 250 m 0
 283 250 315 269 315 292 c 0
 315 315 283 334 273 334 c 0
 263 334 231 315 231 292 c 0
 231 269 263 250 273 250 c 0
55 166 m 0
 65 166 97 185 97 208 c 0
 97 231 65 250 55 250 c 0
 45 250 13 231 13 208 c 0
 13 185 45 166 55 166 c 0
273 166 m 0
 283 166 315 185 315 208 c 0
 315 231 283 250 273 250 c 0
 263 250 231 231 231 208 c 0
 231 185 263 166 273 166 c 0
55 83 m 0
 65 83 97 102 97 125 c 0
 97 148 65 167 55 167 c 0
 45 167 13 148 13 125 c 0
 13 102 45 83 55 83 c 0
273 83 m 0
 283 83 315 102 315 125 c 0
 315 148 283 167 273 167 c 0
 263 167 231 148 231 125 c 0
 231 102 263 83 273 83 c 0
91 0 m 0
 101 0 133 19 133 42 c 0
 133 65 101 84 91 84 c 0
 81 84 49 65 49 42 c 0
 49 19 81 0 91 0 c 0
164 0 m 0
 174 0 206 19 206 42 c 0
 206 65 174 84 164 84 c 0
 154 84 122 65 122 42 c 0
 122 19 154 0 164 0 c 0
236 0 m 0
 246 0 278 19 278 42 c 0
 278 65 246 84 236 84 c 0
 226 84 194 65 194 42 c 0
 194 19 226 0 236 0 c 0
EndSplineSet
EndChar

StartChar: H
Encoding: 72 72 40
Width: 364
Flags: HW
LayerCount: 2
Back
Fore
SplineSet
55 500 m 0
 65 500 97 519 97 542 c 0
 97 565 65 584 55 584 c 0
 45 584 13 565 13 542 c 0
 13 519 45 500 55 500 c 0
273 500 m 0
 283 500 315 519 315 542 c 0
 315 565 283 584 273 584 c 0
 263 584 231 565 231 542 c 0
 231 519 263 500 273 500 c 0
55 416 m 0
 65 416 97 435 97 458 c 0
 97 481 65 500 55 500 c 0
 45 500 13 481 13 458 c 0
 13 435 45 416 55 416 c 0
273 416 m 0
 283 416 315 435 315 458 c 0
 315 481 283 500 273 500 c 0
 263 500 231 481 231 458 c 0
 231 435 263 416 273 416 c 0
55 333 m 0
 65 333 97 352 97 375 c 0
 97 398 65 417 55 417 c 0
 45 417 13 398 13 375 c 0
 13 352 45 333 55 333 c 0
273 333 m 0
 283 333 315 352 315 375 c 0
 315 398 283 417 273 417 c 0
 263 417 231 398 231 375 c 0
 231 352 263 333 273 333 c 0
55 250 m 0
 65 250 97 269 97 292 c 0
 97 315 65 334 55 334 c 0
 45 334 13 315 13 292 c 0
 13 269 45 250 55 250 c 0
127 250 m 0
 137 250 169 269 169 292 c 0
 169 315 137 334 127 334 c 0
 117 334 85 315 85 292 c 0
 85 269 117 250 127 250 c 0
200 250 m 0
 210 250 242 269 242 292 c 0
 242 315 210 334 200 334 c 0
 190 334 158 315 158 292 c 0
 158 269 190 250 200 250 c 0
273 250 m 0
 283 250 315 269 315 292 c 0
 315 315 283 334 273 334 c 0
 263 334 231 315 231 292 c 0
 231 269 263 250 273 250 c 0
55 166 m 0
 65 166 97 185 97 208 c 0
 97 231 65 250 55 250 c 0
 45 250 13 231 13 208 c 0
 13 185 45 166 55 166 c 0
273 166 m 0
 283 166 315 185 315 208 c 0
 315 231 283 250 273 250 c 0
 263 250 231 231 231 208 c 0
 231 185 263 166 273 166 c 0
55 83 m 0
 65 83 97 102 97 125 c 0
 97 148 65 167 55 167 c 0
 45 167 13 148 13 125 c 0
 13 102 45 83 55 83 c 0
273 83 m 0
 283 83 315 102 315 125 c 0
 315 148 283 167 273 167 c 0
 263 167 231 148 231 125 c 0
 231 102 263 83 273 83 c 0
55 0 m 0
 65 0 97 19 97 42 c 0
 97 65 65 84 55 84 c 0
 45 84 13 65 13 42 c 0
 13 19 45 0 55 0 c 0
273 0 m 0
 283 0 315 19 315 42 c 0
 315 65 283 84 273 84 c 0
 263 84 231 65 231 42 c 0
 231 19 263 0 273 0 c 0
EndSplineSet
EndChar

StartChar: I
Encoding: 73 73 41
Width: 364
Flags: HW
LayerCount: 2
Back
Fore
SplineSet
91 500 m 0
 101 500 133 519 133 542 c 0
 133 565 101 584 91 584 c 0
 81 584 49 565 49 542 c 0
 49 519 81 500 91 500 c 0
164 500 m 0
 174 500 206 519 206 542 c 0
 206 565 174 584 164 584 c 0
 154 584 122 565 122 542 c 0
 122 519 154 500 164 500 c 0
236 500 m 0
 246 500 278 519 278 542 c 0
 278 565 246 584 236 584 c 0
 226 584 194 565 194 542 c 0
 194 519 226 500 236 500 c 0
164 416 m 0
 174 416 206 435 206 458 c 0
 206 481 174 500 164 500 c 0
 154 500 122 481 122 458 c 0
 122 435 154 416 164 416 c 0
164 333 m 0
 174 333 206 352 206 375 c 0
 206 398 174 417 164 417 c 0
 154 417 122 398 122 375 c 0
 122 352 154 333 164 333 c 0
164 250 m 0
 174 250 206 269 206 292 c 0
 206 315 174 334 164 334 c 0
 154 334 122 315 122 292 c 0
 122 269 154 250 164 250 c 0
164 166 m 0
 174 166 206 185 206 208 c 0
 206 231 174 250 164 250 c 0
 154 250 122 231 122 208 c 0
 122 185 154 166 164 166 c 0
164 83 m 0
 174 83 206 102 206 125 c 0
 206 148 174 167 164 167 c 0
 154 167 122 148 122 125 c 0
 122 102 154 83 164 83 c 0
91 0 m 0
 101 0 133 19 133 42 c 0
 133 65 101 84 91 84 c 0
 81 84 49 65 49 42 c 0
 49 19 81 0 91 0 c 0
164 0 m 0
 174 0 206 19 206 42 c 0
 206 65 174 84 164 84 c 0
 154 84 122 65 122 42 c 0
 122 19 154 0 164 0 c 0
236 0 m 0
 246 0 278 19 278 42 c 0
 278 65 246 84 236 84 c 0
 226 84 194 65 194 42 c 0
 194 19 226 0 236 0 c 0
EndSplineSet
EndChar

StartChar: J
Encoding: 74 74 42
Width: 364
Flags: HW
LayerCount: 2
Back
Fore
SplineSet
273 500 m 0
 283 500 315 519 315 542 c 0
 315 565 283 584 273 584 c 0
 263 584 231 565 231 542 c 0
 231 519 263 500 273 500 c 0
273 416 m 0
 283 416 315 435 315 458 c 0
 315 481 283 500 273 500 c 0
 263 500 231 481 231 458 c 0
 231 435 263 416 273 416 c 0
273 333 m 0
 283 333 315 352 315 375 c 0
 315 398 283 417 273 417 c 0
 263 417 231 398 231 375 c 0
 231 352 263 333 273 333 c 0
273 250 m 0
 283 250 315 269 315 292 c 0
 315 315 283 334 273 334 c 0
 263 334 231 315 231 292 c 0
 231 269 263 250 273 250 c 0
273 166 m 0
 283 166 315 185 315 208 c 0
 315 231 283 250 273 250 c 0
 263 250 231 231 231 208 c 0
 231 185 263 166 273 166 c 0
55 83 m 0
 65 83 97 102 97 125 c 0
 97 148 65 167 55 167 c 0
 45 167 13 148 13 125 c 0
 13 102 45 83 55 83 c 0
273 83 m 0
 283 83 315 102 315 125 c 0
 315 148 283 167 273 167 c 0
 263 167 231 148 231 125 c 0
 231 102 263 83 273 83 c 0
91 0 m 0
 101 0 133 19 133 42 c 0
 133 65 101 84 91 84 c 0
 81 84 49 65 49 42 c 0
 49 19 81 0 91 0 c 0
164 0 m 0
 174 0 206 19 206 42 c 0
 206 65 174 84 164 84 c 0
 154 84 122 65 122 42 c 0
 122 19 154 0 164 0 c 0
236 0 m 0
 246 0 278 19 278 42 c 0
 278 65 246 84 236 84 c 0
 226 84 194 65 194 42 c 0
 194 19 226 0 236 0 c 0
EndSplineSet
EndChar

StartChar: K
Encoding: 75 75 43
Width: 364
Flags: HW
LayerCount: 2
Back
Fore
SplineSet
55 500 m 0
 65 500 97 519 97 542 c 0
 97 565 65 584 55 584 c 0
 45 584 13 565 13 542 c 0
 13 519 45 500 55 500 c 0
273 500 m 0
 283 500 315 519 315 542 c 0
 315 565 283 584 273 584 c 0
 263 584 231 565 231 542 c 0
 231 519 263 500 273 500 c 0
55 416 m 0
 65 416 97 435 97 458 c 0
 97 481 65 500 55 500 c 0
 45 500 13 481 13 458 c 0
 13 435 45 416 55 416 c 0
200 416 m 0
 210 416 242 435 242 458 c 0
 242 481 210 500 200 500 c 0
 190 500 158 481 158 458 c 0
 158 435 190 416 200 416 c 0
55 333 m 0
 65 333 97 352 97 375 c 0
 97 398 65 417 55 417 c 0
 45 417 13 398 13 375 c 0
 13 352 45 333 55 333 c 0
127 333 m 0
 137 333 169 352 169 375 c 0
 169 398 137 417 127 417 c 0
 117 417 85 398 85 375 c 0
 85 352 117 333 127 333 c 0
55 250 m 0
 65 250 97 269 97 292 c 0
 97 315 65 334 55 334 c 0
 45 334 13 315 13 292 c 0
 13 269 45 250 55 250 c 0
164 250 m 0
 174 250 206 269 206 292 c 0
 206 315 174 334 164 334 c 0
 154 334 122 315 122 292 c 0
 122 269 154 250 164 250 c 0
55 166 m 0
 65 166 97 185 97 208 c 0
 97 231 65 250 55 250 c 0
 45 250 13 231 13 208 c 0
 13 185 45 166 55 166 c 0
200 166 m 0
 210 166 242 185 242 208 c 0
 242 231 210 250 200 250 c 0
 190 250 158 231 158 208 c 0
 158 185 190 166 200 166 c 0
55 83 m 0
 65 83 97 102 97 125 c 0
 97 148 65 167 55 167 c 0
 45 167 13 148 13 125 c 0
 13 102 45 83 55 83 c 0
236 83 m 0
 246 83 278 102 278 125 c 0
 278 148 246 167 236 167 c 0
 226 167 194 148 194 125 c 0
 194 102 226 83 236 83 c 0
55 0 m 0
 65 0 97 19 97 42 c 0
 97 65 65 84 55 84 c 0
 45 84 13 65 13 42 c 0
 13 19 45 0 55 0 c 0
273 0 m 0
 283 0 315 19 315 42 c 0
 315 65 283 84 273 84 c 0
 263 84 231 65 231 42 c 0
 231 19 263 0 273 0 c 0
EndSplineSet
EndChar

StartChar: L
Encoding: 76 76 44
Width: 364
Flags: HW
LayerCount: 2
Back
Fore
SplineSet
55 500 m 0
 65 500 97 519 97 542 c 0
 97 565 65 584 55 584 c 0
 45 584 13 565 13 542 c 0
 13 519 45 500 55 500 c 0
55 416 m 0
 65 416 97 435 97 458 c 0
 97 481 65 500 55 500 c 0
 45 500 13 481 13 458 c 0
 13 435 45 416 55 416 c 0
55 333 m 0
 65 333 97 352 97 375 c 0
 97 398 65 417 55 417 c 0
 45 417 13 398 13 375 c 0
 13 352 45 333 55 333 c 0
55 250 m 0
 65 250 97 269 97 292 c 0
 97 315 65 334 55 334 c 0
 45 334 13 315 13 292 c 0
 13 269 45 250 55 250 c 0
55 166 m 0
 65 166 97 185 97 208 c 0
 97 231 65 250 55 250 c 0
 45 250 13 231 13 208 c 0
 13 185 45 166 55 166 c 0
55 83 m 0
 65 83 97 102 97 125 c 0
 97 148 65 167 55 167 c 0
 45 167 13 148 13 125 c 0
 13 102 45 83 55 83 c 0
55 0 m 0
 65 0 97 19 97 42 c 0
 97 65 65 84 55 84 c 0
 45 84 13 65 13 42 c 0
 13 19 45 0 55 0 c 0
127 0 m 0
 137 0 169 19 169 42 c 0
 169 65 137 84 127 84 c 0
 117 84 85 65 85 42 c 0
 85 19 117 0 127 0 c 0
200 0 m 0
 210 0 242 19 242 42 c 0
 242 65 210 84 200 84 c 0
 190 84 158 65 158 42 c 0
 158 19 190 0 200 0 c 0
273 0 m 0
 283 0 315 19 315 42 c 0
 315 65 283 84 273 84 c 0
 263 84 231 65 231 42 c 0
 231 19 263 0 273 0 c 0
EndSplineSet
EndChar

StartChar: M
Encoding: 77 77 45
Width: 364
Flags: HW
LayerCount: 2
Back
Fore
SplineSet
55 500 m 0
 65 500 97 519 97 542 c 0
 97 565 65 584 55 584 c 0
 45 584 13 565 13 542 c 0
 13 519 45 500 55 500 c 0
273 500 m 0
 283 500 315 519 315 542 c 0
 315 565 283 584 273 584 c 0
 263 584 231 565 231 542 c 0
 231 519 263 500 273 500 c 0
91 416 m 0
 101 416 133 435 133 458 c 0
 133 481 101 500 91 500 c 0
 81 500 49 481 49 458 c 0
 49 435 81 416 91 416 c 0
236 416 m 0
 246 416 278 435 278 458 c 0
 278 481 246 500 236 500 c 0
 226 500 194 481 194 458 c 0
 194 435 226 416 236 416 c 0
55 333 m 0
 65 333 97 352 97 375 c 0
 97 398 65 417 55 417 c 0
 45 417 13 398 13 375 c 0
 13 352 45 333 55 333 c 0
127 333 m 0
 137 333 169 352 169 375 c 0
 169 398 137 417 127 417 c 0
 117 417 85 398 85 375 c 0
 85 352 117 333 127 333 c 0
200 333 m 0
 210 333 242 352 242 375 c 0
 242 398 210 417 200 417 c 0
 190 417 158 398 158 375 c 0
 158 352 190 333 200 333 c 0
273 333 m 0
 283 333 315 352 315 375 c 0
 315 398 283 417 273 417 c 0
 263 417 231 398 231 375 c 0
 231 352 263 333 273 333 c 0
55 250 m 0
 65 250 97 269 97 292 c 0
 97 315 65 334 55 334 c 0
 45 334 13 315 13 292 c 0
 13 269 45 250 55 250 c 0
164 250 m 0
 174 250 206 269 206 292 c 0
 206 315 174 334 164 334 c 0
 154 334 122 315 122 292 c 0
 122 269 154 250 164 250 c 0
273 250 m 0
 283 250 315 269 315 292 c 0
 315 315 283 334 273 334 c 0
 263 334 231 315 231 292 c 0
 231 269 263 250 273 250 c 0
55 166 m 0
 65 166 97 185 97 208 c 0
 97 231 65 250 55 250 c 0
 45 250 13 231 13 208 c 0
 13 185 45 166 55 166 c 0
273 166 m 0
 283 166 315 185 315 208 c 0
 315 231 283 250 273 250 c 0
 263 250 231 231 231 208 c 0
 231 185 263 166 273 166 c 0
55 83 m 0
 65 83 97 102 97 125 c 0
 97 148 65 167 55 167 c 0
 45 167 13 148 13 125 c 0
 13 102 45 83 55 83 c 0
273 83 m 0
 283 83 315 102 315 125 c 0
 315 148 283 167 273 167 c 0
 263 167 231 148 231 125 c 0
 231 102 263 83 273 83 c 0
55 0 m 0
 65 0 97 19 97 42 c 0
 97 65 65 84 55 84 c 0
 45 84 13 65 13 42 c 0
 13 19 45 0 55 0 c 0
273 0 m 0
 283 0 315 19 315 42 c 0
 315 65 283 84 273 84 c 0
 263 84 231 65 231 42 c 0
 231 19 263 0 273 0 c 0
EndSplineSet
EndChar

StartChar: N
Encoding: 78 78 46
Width: 364
Flags: HW
LayerCount: 2
Back
Fore
SplineSet
55 500 m 0
 65 500 97 519 97 542 c 0
 97 565 65 584 55 584 c 0
 45 584 13 565 13 542 c 0
 13 519 45 500 55 500 c 0
273 500 m 0
 283 500 315 519 315 542 c 0
 315 565 283 584 273 584 c 0
 263 584 231 565 231 542 c 0
 231 519 263 500 273 500 c 0
91 416 m 0
 101 416 133 435 133 458 c 0
 133 481 101 500 91 500 c 0
 81 500 49 481 49 458 c 0
 49 435 81 416 91 416 c 0
273 416 m 0
 283 416 315 435 315 458 c 0
 315 481 283 500 273 500 c 0
 263 500 231 481 231 458 c 0
 231 435 263 416 273 416 c 0
55 333 m 0
 65 333 97 352 97 375 c 0
 97 398 65 417 55 417 c 0
 45 417 13 398 13 375 c 0
 13 352 45 333 55 333 c 0
127 333 m 0
 137 333 169 352 169 375 c 0
 169 398 137 417 127 417 c 0
 117 417 85 398 85 375 c 0
 85 352 117 333 127 333 c 0
273 333 m 0
 283 333 315 352 315 375 c 0
 315 398 283 417 273 417 c 0
 263 417 231 398 231 375 c 0
 231 352 263 333 273 333 c 0
55 250 m 0
 65 250 97 269 97 292 c 0
 97 315 65 334 55 334 c 0
 45 334 13 315 13 292 c 0
 13 269 45 250 55 250 c 0
164 250 m 0
 174 250 206 269 206 292 c 0
 206 315 174 334 164 334 c 0
 154 334 122 315 122 292 c 0
 122 269 154 250 164 250 c 0
273 250 m 0
 283 250 315 269 315 292 c 0
 315 315 283 334 273 334 c 0
 263 334 231 315 231 292 c 0
 231 269 263 250 273 250 c 0
55 166 m 0
 65 166 97 185 97 208 c 0
 97 231 65 250 55 250 c 0
 45 250 13 231 13 208 c 0
 13 185 45 166 55 166 c 0
200 166 m 0
 210 166 242 185 242 208 c 0
 242 231 210 250 200 250 c 0
 190 250 158 231 158 208 c 0
 158 185 190 166 200 166 c 0
273 166 m 0
 283 166 315 185 315 208 c 0
 315 231 283 250 273 250 c 0
 263 250 231 231 231 208 c 0
 231 185 263 166 273 166 c 0
55 83 m 0
 65 83 97 102 97 125 c 0
 97 148 65 167 55 167 c 0
 45 167 13 148 13 125 c 0
 13 102 45 83 55 83 c 0
236 83 m 0
 246 83 278 102 278 125 c 0
 278 148 246 167 236 167 c 0
 226 167 194 148 194 125 c 0
 194 102 226 83 236 83 c 0
55 0 m 0
 65 0 97 19 97 42 c 0
 97 65 65 84 55 84 c 0
 45 84 13 65 13 42 c 0
 13 19 45 0 55 0 c 0
273 0 m 0
 283 0 315 19 315 42 c 0
 315 65 283 84 273 84 c 0
 263 84 231 65 231 42 c 0
 231 19 263 0 273 0 c 0
EndSplineSet
EndChar

StartChar: O
Encoding: 79 79 47
Width: 364
Flags: HW
LayerCount: 2
Back
Fore
SplineSet
91 500 m 0
 101 500 133 519 133 542 c 0
 133 565 101 584 91 584 c 0
 81 584 49 565 49 542 c 0
 49 519 81 500 91 500 c 0
164 500 m 0
 174 500 206 519 206 542 c 0
 206 565 174 584 164 584 c 0
 154 584 122 565 122 542 c 0
 122 519 154 500 164 500 c 0
236 500 m 0
 246 500 278 519 278 542 c 0
 278 565 246 584 236 584 c 0
 226 584 194 565 194 542 c 0
 194 519 226 500 236 500 c 0
55 416 m 0
 65 416 97 435 97 458 c 0
 97 481 65 500 55 500 c 0
 45 500 13 481 13 458 c 0
 13 435 45 416 55 416 c 0
273 416 m 0
 283 416 315 435 315 458 c 0
 315 481 283 500 273 500 c 0
 263 500 231 481 231 458 c 0
 231 435 263 416 273 416 c 0
55 333 m 0
 65 333 97 352 97 375 c 0
 97 398 65 417 55 417 c 0
 45 417 13 398 13 375 c 0
 13 352 45 333 55 333 c 0
273 333 m 0
 283 333 315 352 315 375 c 0
 315 398 283 417 273 417 c 0
 263 417 231 398 231 375 c 0
 231 352 263 333 273 333 c 0
55 250 m 0
 65 250 97 269 97 292 c 0
 97 315 65 334 55 334 c 0
 45 334 13 315 13 292 c 0
 13 269 45 250 55 250 c 0
273 250 m 0
 283 250 315 269 315 292 c 0
 315 315 283 334 273 334 c 0
 263 334 231 315 231 292 c 0
 231 269 263 250 273 250 c 0
55 166 m 0
 65 166 97 185 97 208 c 0
 97 231 65 250 55 250 c 0
 45 250 13 231 13 208 c 0
 13 185 45 166 55 166 c 0
273 166 m 0
 283 166 315 185 315 208 c 0
 315 231 283 250 273 250 c 0
 263 250 231 231 231 208 c 0
 231 185 263 166 273 166 c 0
55 83 m 0
 65 83 97 102 97 125 c 0
 97 148 65 167 55 167 c 0
 45 167 13 148 13 125 c 0
 13 102 45 83 55 83 c 0
273 83 m 0
 283 83 315 102 315 125 c 0
 315 148 283 167 273 167 c 0
 263 167 231 148 231 125 c 0
 231 102 263 83 273 83 c 0
91 0 m 0
 101 0 133 19 133 42 c 0
 133 65 101 84 91 84 c 0
 81 84 49 65 49 42 c 0
 49 19 81 0 91 0 c 0
164 0 m 0
 174 0 206 19 206 42 c 0
 206 65 174 84 164 84 c 0
 154 84 122 65 122 42 c 0
 122 19 154 0 164 0 c 0
236 0 m 0
 246 0 278 19 278 42 c 0
 278 65 246 84 236 84 c 0
 226 84 194 65 194 42 c 0
 194 19 226 0 236 0 c 0
EndSplineSet
EndChar

StartChar: P
Encoding: 80 80 48
Width: 364
Flags: HW
LayerCount: 2
Back
Fore
SplineSet
55 500 m 0
 65 500 97 519 97 542 c 0
 97 565 65 584 55 584 c 0
 45 584 13 565 13 542 c 0
 13 519 45 500 55 500 c 0
127 500 m 0
 137 500 169 519 169 542 c 0
 169 565 137 584 127 584 c 0
 117 584 85 565 85 542 c 0
 85 519 117 500 127 500 c 0
200 500 m 0
 210 500 242 519 242 542 c 0
 242 565 210 584 200 584 c 0
 190 584 158 565 158 542 c 0
 158 519 190 500 200 500 c 0
55 416 m 0
 65 416 97 435 97 458 c 0
 97 481 65 500 55 500 c 0
 45 500 13 481 13 458 c 0
 13 435 45 416 55 416 c 0
273 416 m 0
 283 416 315 435 315 458 c 0
 315 481 283 500 273 500 c 0
 263 500 231 481 231 458 c 0
 231 435 263 416 273 416 c 0
55 333 m 0
 65 333 97 352 97 375 c 0
 97 398 65 417 55 417 c 0
 45 417 13 398 13 375 c 0
 13 352 45 333 55 333 c 0
273 333 m 0
 283 333 315 352 315 375 c 0
 315 398 283 417 273 417 c 0
 263 417 231 398 231 375 c 0
 231 352 263 333 273 333 c 0
55 250 m 0
 65 250 97 269 97 292 c 0
 97 315 65 334 55 334 c 0
 45 334 13 315 13 292 c 0
 13 269 45 250 55 250 c 0
127 250 m 0
 137 250 169 269 169 292 c 0
 169 315 137 334 127 334 c 0
 117 334 85 315 85 292 c 0
 85 269 117 250 127 250 c 0
200 250 m 0
 210 250 242 269 242 292 c 0
 242 315 210 334 200 334 c 0
 190 334 158 315 158 292 c 0
 158 269 190 250 200 250 c 0
55 166 m 0
 65 166 97 185 97 208 c 0
 97 231 65 250 55 250 c 0
 45 250 13 231 13 208 c 0
 13 185 45 166 55 166 c 0
55 83 m 0
 65 83 97 102 97 125 c 0
 97 148 65 167 55 167 c 0
 45 167 13 148 13 125 c 0
 13 102 45 83 55 83 c 0
55 0 m 0
 65 0 97 19 97 42 c 0
 97 65 65 84 55 84 c 0
 45 84 13 65 13 42 c 0
 13 19 45 0 55 0 c 0
EndSplineSet
EndChar

StartChar: Q
Encoding: 81 81 49
Width: 364
Flags: HW
LayerCount: 2
Back
Fore
SplineSet
91 500 m 0
 101 500 133 519 133 542 c 0
 133 565 101 584 91 584 c 0
 81 584 49 565 49 542 c 0
 49 519 81 500 91 500 c 0
164 500 m 0
 174 500 206 519 206 542 c 0
 206 565 174 584 164 584 c 0
 154 584 122 565 122 542 c 0
 122 519 154 500 164 500 c 0
236 500 m 0
 246 500 278 519 278 542 c 0
 278 565 246 584 236 584 c 0
 226 584 194 565 194 542 c 0
 194 519 226 500 236 500 c 0
55 416 m 0
 65 416 97 435 97 458 c 0
 97 481 65 500 55 500 c 0
 45 500 13 481 13 458 c 0
 13 435 45 416 55 416 c 0
273 416 m 0
 283 416 315 435 315 458 c 0
 315 481 283 500 273 500 c 0
 263 500 231 481 231 458 c 0
 231 435 263 416 273 416 c 0
55 333 m 0
 65 333 97 352 97 375 c 0
 97 398 65 417 55 417 c 0
 45 417 13 398 13 375 c 0
 13 352 45 333 55 333 c 0
273 333 m 0
 283 333 315 352 315 375 c 0
 315 398 283 417 273 417 c 0
 263 417 231 398 231 375 c 0
 231 352 263 333 273 333 c 0
55 250 m 0
 65 250 97 269 97 292 c 0
 97 315 65 334 55 334 c 0
 45 334 13 315 13 292 c 0
 13 269 45 250 55 250 c 0
273 250 m 0
 283 250 315 269 315 292 c 0
 315 315 283 334 273 334 c 0
 263 334 231 315 231 292 c 0
 231 269 263 250 273 250 c 0
55 166 m 0
 65 166 97 185 97 208 c 0
 97 231 65 250 55 250 c 0
 45 250 13 231 13 208 c 0
 13 185 45 166 55 166 c 0
200 166 m 0
 210 166 242 185 242 208 c 0
 242 231 210 250 200 250 c 0
 190 250 158 231 158 208 c 0
 158 185 190 166 200 166 c 0
273 166 m 0
 283 166 315 185 315 208 c 0
 315 231 283 250 273 250 c 0
 263 250 231 231 231 208 c 0
 231 185 263 166 273 166 c 0
55 83 m 0
 65 83 97 102 97 125 c 0
 97 148 65 167 55 167 c 0
 45 167 13 148 13 125 c 0
 13 102 45 83 55 83 c 0
236 83 m 0
 246 83 278 102 278 125 c 0
 278 148 246 167 236 167 c 0
 226 167 194 148 194 125 c 0
 194 102 226 83 236 83 c 0
91 0 m 0
 101 0 133 19 133 42 c 0
 133 65 101 84 91 84 c 0
 81 84 49 65 49 42 c 0
 49 19 81 0 91 0 c 0
164 0 m 0
 174 0 206 19 206 42 c 0
 206 65 174 84 164 84 c 0
 154 84 122 65 122 42 c 0
 122 19 154 0 164 0 c 0
273 0 m 0
 283 0 315 19 315 42 c 0
 315 65 283 84 273 84 c 0
 263 84 231 65 231 42 c 0
 231 19 263 0 273 0 c 0
EndSplineSet
EndChar

StartChar: R
Encoding: 82 82 50
Width: 364
Flags: HW
LayerCount: 2
Back
Fore
SplineSet
55 500 m 0
 65 500 97 519 97 542 c 0
 97 565 65 584 55 584 c 0
 45 584 13 565 13 542 c 0
 13 519 45 500 55 500 c 0
127 500 m 0
 137 500 169 519 169 542 c 0
 169 565 137 584 127 584 c 0
 117 584 85 565 85 542 c 0
 85 519 117 500 127 500 c 0
200 500 m 0
 210 500 242 519 242 542 c 0
 242 565 210 584 200 584 c 0
 190 584 158 565 158 542 c 0
 158 519 190 500 200 500 c 0
55 416 m 0
 65 416 97 435 97 458 c 0
 97 481 65 500 55 500 c 0
 45 500 13 481 13 458 c 0
 13 435 45 416 55 416 c 0
273 416 m 0
 283 416 315 435 315 458 c 0
 315 481 283 500 273 500 c 0
 263 500 231 481 231 458 c 0
 231 435 263 416 273 416 c 0
55 333 m 0
 65 333 97 352 97 375 c 0
 97 398 65 417 55 417 c 0
 45 417 13 398 13 375 c 0
 13 352 45 333 55 333 c 0
273 333 m 0
 283 333 315 352 315 375 c 0
 315 398 283 417 273 417 c 0
 263 417 231 398 231 375 c 0
 231 352 263 333 273 333 c 0
55 250 m 0
 65 250 97 269 97 292 c 0
 97 315 65 334 55 334 c 0
 45 334 13 315 13 292 c 0
 13 269 45 250 55 250 c 0
127 250 m 0
 137 250 169 269 169 292 c 0
 169 315 137 334 127 334 c 0
 117 334 85 315 85 292 c 0
 85 269 117 250 127 250 c 0
200 250 m 0
 210 250 242 269 242 292 c 0
 242 315 210 334 200 334 c 0
 190 334 158 315 158 292 c 0
 158 269 190 250 200 250 c 0
55 166 m 0
 65 166 97 185 97 208 c 0
 97 231 65 250 55 250 c 0
 45 250 13 231 13 208 c 0
 13 185 45 166 55 166 c 0
200 166 m 0
 210 166 242 185 242 208 c 0
 242 231 210 250 200 250 c 0
 190 250 158 231 158 208 c 0
 158 185 190 166 200 166 c 0
55 83 m 0
 65 83 97 102 97 125 c 0
 97 148 65 167 55 167 c 0
 45 167 13 148 13 125 c 0
 13 102 45 83 55 83 c 0
236 83 m 0
 246 83 278 102 278 125 c 0
 278 148 246 167 236 167 c 0
 226 167 194 148 194 125 c 0
 194 102 226 83 236 83 c 0
55 0 m 0
 65 0 97 19 97 42 c 0
 97 65 65 84 55 84 c 0
 45 84 13 65 13 42 c 0
 13 19 45 0 55 0 c 0
273 0 m 0
 283 0 315 19 315 42 c 0
 315 65 283 84 273 84 c 0
 263 84 231 65 231 42 c 0
 231 19 263 0 273 0 c 0
EndSplineSet
EndChar

StartChar: S
Encoding: 83 83 51
Width: 364
Flags: HW
LayerCount: 2
Back
Fore
SplineSet
91 500 m 0
 101 500 133 519 133 542 c 0
 133 565 101 584 91 584 c 0
 81 584 49 565 49 542 c 0
 49 519 81 500 91 500 c 0
164 500 m 0
 174 500 206 519 206 542 c 0
 206 565 174 584 164 584 c 0
 154 584 122 565 122 542 c 0
 122 519 154 500 164 500 c 0
236 500 m 0
 246 500 278 519 278 542 c 0
 278 565 246 584 236 584 c 0
 226 584 194 565 194 542 c 0
 194 519 226 500 236 500 c 0
55 416 m 0
 65 416 97 435 97 458 c 0
 97 481 65 500 55 500 c 0
 45 500 13 481 13 458 c 0
 13 435 45 416 55 416 c 0
273 416 m 0
 283 416 315 435 315 458 c 0
 315 481 283 500 273 500 c 0
 263 500 231 481 231 458 c 0
 231 435 263 416 273 416 c 0
55 333 m 0
 65 333 97 352 97 375 c 0
 97 398 65 417 55 417 c 0
 45 417 13 398 13 375 c 0
 13 352 45 333 55 333 c 0
91 250 m 0
 101 250 133 269 133 292 c 0
 133 315 101 334 91 334 c 0
 81 334 49 315 49 292 c 0
 49 269 81 250 91 250 c 0
164 250 m 0
 174 250 206 269 206 292 c 0
 206 315 174 334 164 334 c 0
 154 334 122 315 122 292 c 0
 122 269 154 250 164 250 c 0
236 250 m 0
 246 250 278 269 278 292 c 0
 278 315 246 334 236 334 c 0
 226 334 194 315 194 292 c 0
 194 269 226 250 236 250 c 0
273 166 m 0
 283 166 315 185 315 208 c 0
 315 231 283 250 273 250 c 0
 263 250 231 231 231 208 c 0
 231 185 263 166 273 166 c 0
55 83 m 0
 65 83 97 102 97 125 c 0
 97 148 65 167 55 167 c 0
 45 167 13 148 13 125 c 0
 13 102 45 83 55 83 c 0
273 83 m 0
 283 83 315 102 315 125 c 0
 315 148 283 167 273 167 c 0
 263 167 231 148 231 125 c 0
 231 102 263 83 273 83 c 0
91 0 m 0
 101 0 133 19 133 42 c 0
 133 65 101 84 91 84 c 0
 81 84 49 65 49 42 c 0
 49 19 81 0 91 0 c 0
164 0 m 0
 174 0 206 19 206 42 c 0
 206 65 174 84 164 84 c 0
 154 84 122 65 122 42 c 0
 122 19 154 0 164 0 c 0
236 0 m 0
 246 0 278 19 278 42 c 0
 278 65 246 84 236 84 c 0
 226 84 194 65 194 42 c 0
 194 19 226 0 236 0 c 0
EndSplineSet
EndChar

StartChar: T
Encoding: 84 84 52
Width: 364
Flags: HW
LayerCount: 2
Back
Fore
SplineSet
55 500 m 0
 65 500 97 519 97 542 c 0
 97 565 65 584 55 584 c 0
 45 584 13 565 13 542 c 0
 13 519 45 500 55 500 c 0
127 500 m 0
 137 500 169 519 169 542 c 0
 169 565 137 584 127 584 c 0
 117 584 85 565 85 542 c 0
 85 519 117 500 127 500 c 0
200 500 m 0
 210 500 242 519 242 542 c 0
 242 565 210 584 200 584 c 0
 190 584 158 565 158 542 c 0
 158 519 190 500 200 500 c 0
273 500 m 0
 283 500 315 519 315 542 c 0
 315 565 283 584 273 584 c 0
 263 584 231 565 231 542 c 0
 231 519 263 500 273 500 c 0
164 416 m 0
 174 416 206 435 206 458 c 0
 206 481 174 500 164 500 c 0
 154 500 122 481 122 458 c 0
 122 435 154 416 164 416 c 0
164 333 m 0
 174 333 206 352 206 375 c 0
 206 398 174 417 164 417 c 0
 154 417 122 398 122 375 c 0
 122 352 154 333 164 333 c 0
164 250 m 0
 174 250 206 269 206 292 c 0
 206 315 174 334 164 334 c 0
 154 334 122 315 122 292 c 0
 122 269 154 250 164 250 c 0
164 166 m 0
 174 166 206 185 206 208 c 0
 206 231 174 250 164 250 c 0
 154 250 122 231 122 208 c 0
 122 185 154 166 164 166 c 0
164 83 m 0
 174 83 206 102 206 125 c 0
 206 148 174 167 164 167 c 0
 154 167 122 148 122 125 c 0
 122 102 154 83 164 83 c 0
164 0 m 0
 174 0 206 19 206 42 c 0
 206 65 174 84 164 84 c 0
 154 84 122 65 122 42 c 0
 122 19 154 0 164 0 c 0
EndSplineSet
EndChar

StartChar: U
Encoding: 85 85 53
Width: 364
Flags: HW
LayerCount: 2
Back
Fore
SplineSet
55 500 m 0
 65 500 97 519 97 542 c 0
 97 565 65 584 55 584 c 0
 45 584 13 565 13 542 c 0
 13 519 45 500 55 500 c 0
273 500 m 0
 283 500 315 519 315 542 c 0
 315 565 283 584 273 584 c 0
 263 584 231 565 231 542 c 0
 231 519 263 500 273 500 c 0
55 416 m 0
 65 416 97 435 97 458 c 0
 97 481 65 500 55 500 c 0
 45 500 13 481 13 458 c 0
 13 435 45 416 55 416 c 0
273 416 m 0
 283 416 315 435 315 458 c 0
 315 481 283 500 273 500 c 0
 263 500 231 481 231 458 c 0
 231 435 263 416 273 416 c 0
55 333 m 0
 65 333 97 352 97 375 c 0
 97 398 65 417 55 417 c 0
 45 417 13 398 13 375 c 0
 13 352 45 333 55 333 c 0
273 333 m 0
 283 333 315 352 315 375 c 0
 315 398 283 417 273 417 c 0
 263 417 231 398 231 375 c 0
 231 352 263 333 273 333 c 0
55 250 m 0
 65 250 97 269 97 292 c 0
 97 315 65 334 55 334 c 0
 45 334 13 315 13 292 c 0
 13 269 45 250 55 250 c 0
273 250 m 0
 283 250 315 269 315 292 c 0
 315 315 283 334 273 334 c 0
 263 334 231 315 231 292 c 0
 231 269 263 250 273 250 c 0
55 166 m 0
 65 166 97 185 97 208 c 0
 97 231 65 250 55 250 c 0
 45 250 13 231 13 208 c 0
 13 185 45 166 55 166 c 0
273 166 m 0
 283 166 315 185 315 208 c 0
 315 231 283 250 273 250 c 0
 263 250 231 231 231 208 c 0
 231 185 263 166 273 166 c 0
55 83 m 0
 65 83 97 102 97 125 c 0
 97 148 65 167 55 167 c 0
 45 167 13 148 13 125 c 0
 13 102 45 83 55 83 c 0
273 83 m 0
 283 83 315 102 315 125 c 0
 315 148 283 167 273 167 c 0
 263 167 231 148 231 125 c 0
 231 102 263 83 273 83 c 0
91 0 m 0
 101 0 133 19 133 42 c 0
 133 65 101 84 91 84 c 0
 81 84 49 65 49 42 c 0
 49 19 81 0 91 0 c 0
164 0 m 0
 174 0 206 19 206 42 c 0
 206 65 174 84 164 84 c 0
 154 84 122 65 122 42 c 0
 122 19 154 0 164 0 c 0
236 0 m 0
 246 0 278 19 278 42 c 0
 278 65 246 84 236 84 c 0
 226 84 194 65 194 42 c 0
 194 19 226 0 236 0 c 0
EndSplineSet
EndChar

StartChar: V
Encoding: 86 86 54
Width: 364
Flags: HW
LayerCount: 2
Back
Fore
SplineSet
55 500 m 0
 65 500 97 519 97 542 c 0
 97 565 65 584 55 584 c 0
 45 584 13 565 13 542 c 0
 13 519 45 500 55 500 c 0
273 500 m 0
 283 500 315 519 315 542 c 0
 315 565 283 584 273 584 c 0
 263 584 231 565 231 542 c 0
 231 519 263 500 273 500 c 0
55 416 m 0
 65 416 97 435 97 458 c 0
 97 481 65 500 55 500 c 0
 45 500 13 481 13 458 c 0
 13 435 45 416 55 416 c 0
273 416 m 0
 283 416 315 435 315 458 c 0
 315 481 283 500 273 500 c 0
 263 500 231 481 231 458 c 0
 231 435 263 416 273 416 c 0
55 333 m 0
 65 333 97 352 97 375 c 0
 97 398 65 417 55 417 c 0
 45 417 13 398 13 375 c 0
 13 352 45 333 55 333 c 0
273 333 m 0
 283 333 315 352 315 375 c 0
 315 398 283 417 273 417 c 0
 263 417 231 398 231 375 c 0
 231 352 263 333 273 333 c 0
55 250 m 0
 65 250 97 269 97 292 c 0
 97 315 65 334 55 334 c 0
 45 334 13 315 13 292 c 0
 13 269 45 250 55 250 c 0
273 250 m 0
 283 250 315 269 315 292 c 0
 315 315 283 334 273 334 c 0
 263 334 231 315 231 292 c 0
 231 269 263 250 273 250 c 0
91 166 m 0
 101 166 133 185 133 208 c 0
 133 231 101 250 91 250 c 0
 81 250 49 231 49 208 c 0
 49 185 81 166 91 166 c 0
236 166 m 0
 246 166 278 185 278 208 c 0
 278 231 246 250 236 250 c 0
 226 250 194 231 194 208 c 0
 194 185 226 166 236 166 c 0
127 83 m 0
 137 83 169 102 169 125 c 0
 169 148 137 167 127 167 c 0
 117 167 85 148 85 125 c 0
 85 102 117 83 127 83 c 0
200 83 m 0
 210 83 242 102 242 125 c 0
 242 148 210 167 200 167 c 0
 190 167 158 148 158 125 c 0
 158 102 190 83 200 83 c 0
164 0 m 0
 174 0 206 19 206 42 c 0
 206 65 174 84 164 84 c 0
 154 84 122 65 122 42 c 0
 122 19 154 0 164 0 c 0
EndSplineSet
EndChar

StartChar: W
Encoding: 87 87 55
Width: 364
Flags: HW
LayerCount: 2
Back
Fore
SplineSet
55 500 m 0
 65 500 97 519 97 542 c 0
 97 565 65 584 55 584 c 0
 45 584 13 565 13 542 c 0
 13 519 45 500 55 500 c 0
273 500 m 0
 283 500 315 519 315 542 c 0
 315 565 283 584 273 584 c 0
 263 584 231 565 231 542 c 0
 231 519 263 500 273 500 c 0
55 416 m 0
 65 416 97 435 97 458 c 0
 97 481 65 500 55 500 c 0
 45 500 13 481 13 458 c 0
 13 435 45 416 55 416 c 0
273 416 m 0
 283 416 315 435 315 458 c 0
 315 481 283 500 273 500 c 0
 263 500 231 481 231 458 c 0
 231 435 263 416 273 416 c 0
55 333 m 0
 65 333 97 352 97 375 c 0
 97 398 65 417 55 417 c 0
 45 417 13 398 13 375 c 0
 13 352 45 333 55 333 c 0
273 333 m 0
 283 333 315 352 315 375 c 0
 315 398 283 417 273 417 c 0
 263 417 231 398 231 375 c 0
 231 352 263 333 273 333 c 0
55 250 m 0
 65 250 97 269 97 292 c 0
 97 315 65 334 55 334 c 0
 45 334 13 315 13 292 c 0
 13 269 45 250 55 250 c 0
164 250 m 0
 174 250 206 269 206 292 c 0
 206 315 174 334 164 334 c 0
 154 334 122 315 122 292 c 0
 122 269 154 250 164 250 c 0
273 250 m 0
 283 250 315 269 315 292 c 0
 315 315 283 334 273 334 c 0
 263 334 231 315 231 292 c 0
 231 269 263 250 273 250 c 0
55 166 m 0
 65 166 97 185 97 208 c 0
 97 231 65 250 55 250 c 0
 45 250 13 231 13 208 c 0
 13 185 45 166 55 166 c 0
164 166 m 0
 174 166 206 185 206 208 c 0
 206 231 174 250 164 250 c 0
 154 250 122 231 122 208 c 0
 122 185 154 166 164 166 c 0
273 166 m 0
 283 166 315 185 315 208 c 0
 315 231 283 250 273 250 c 0
 263 250 231 231 231 208 c 0
 231 185 263 166 273 166 c 0
55 83 m 0
 65 83 97 102 97 125 c 0
 97 148 65 167 55 167 c 0
 45 167 13 148 13 125 c 0
 13 102 45 83 55 83 c 0
127 83 m 0
 137 83 169 102 169 125 c 0
 169 148 137 167 127 167 c 0
 117 167 85 148 85 125 c 0
 85 102 117 83 127 83 c 0
200 83 m 0
 210 83 242 102 242 125 c 0
 242 148 210 167 200 167 c 0
 190 167 158 148 158 125 c 0
 158 102 190 83 200 83 c 0
273 83 m 0
 283 83 315 102 315 125 c 0
 315 148 283 167 273 167 c 0
 263 167 231 148 231 125 c 0
 231 102 263 83 273 83 c 0
91 0 m 0
 101 0 133 19 133 42 c 0
 133 65 101 84 91 84 c 0
 81 84 49 65 49 42 c 0
 49 19 81 0 91 0 c 0
236 0 m 0
 246 0 278 19 278 42 c 0
 278 65 246 84 236 84 c 0
 226 84 194 65 194 42 c 0
 194 19 226 0 236 0 c 0
EndSplineSet
EndChar

StartChar: X
Encoding: 88 88 56
Width: 364
Flags: HW
LayerCount: 2
Back
Fore
SplineSet
55 500 m 0
 65 500 97 519 97 542 c 0
 97 565 65 584 55 584 c 0
 45 584 13 565 13 542 c 0
 13 519 45 500 55 500 c 0
273 500 m 0
 283 500 315 519 315 542 c 0
 315 565 283 584 273 584 c 0
 263 584 231 565 231 542 c 0
 231 519 263 500 273 500 c 0
91 416 m 0
 101 416 133 435 133 458 c 0
 133 481 101 500 91 500 c 0
 81 500 49 481 49 458 c 0
 49 435 81 416 91 416 c 0
236 416 m 0
 246 416 278 435 278 458 c 0
 278 481 246 500 236 500 c 0
 226 500 194 481 194 458 c 0
 194 435 226 416 236 416 c 0
127 333 m 0
 137 333 169 352 169 375 c 0
 169 398 137 417 127 417 c 0
 117 417 85 398 85 375 c 0
 85 352 117 333 127 333 c 0
200 333 m 0
 210 333 242 352 242 375 c 0
 242 398 210 417 200 417 c 0
 190 417 158 398 158 375 c 0
 158 352 190 333 200 333 c 0
164 250 m 0
 174 250 206 269 206 292 c 0
 206 315 174 334 164 334 c 0
 154 334 122 315 122 292 c 0
 122 269 154 250 164 250 c 0
127 166 m 0
 137 166 169 185 169 208 c 0
 169 231 137 250 127 250 c 0
 117 250 85 231 85 208 c 0
 85 185 117 166 127 166 c 0
200 166 m 0
 210 166 242 185 242 208 c 0
 242 231 210 250 200 250 c 0
 190 250 158 231 158 208 c 0
 158 185 190 166 200 166 c 0
91 83 m 0
 101 83 133 102 133 125 c 0
 133 148 101 167 91 167 c 0
 81 167 49 148 49 125 c 0
 49 102 81 83 91 83 c 0
236 83 m 0
 246 83 278 102 278 125 c 0
 278 148 246 167 236 167 c 0
 226 167 194 148 194 125 c 0
 194 102 226 83 236 83 c 0
55 0 m 0
 65 0 97 19 97 42 c 0
 97 65 65 84 55 84 c 0
 45 84 13 65 13 42 c 0
 13 19 45 0 55 0 c 0
273 0 m 0
 283 0 315 19 315 42 c 0
 315 65 283 84 273 84 c 0
 263 84 231 65 231 42 c 0
 231 19 263 0 273 0 c 0
EndSplineSet
EndChar

StartChar: Y
Encoding: 89 89 57
Width: 364
Flags: HW
LayerCount: 2
Back
Fore
SplineSet
55 500 m 0
 65 500 97 519 97 542 c 0
 97 565 65 584 55 584 c 0
 45 584 13 565 13 542 c 0
 13 519 45 500 55 500 c 0
273 500 m 0
 283 500 315 519 315 542 c 0
 315 565 283 584 273 584 c 0
 263 584 231 565 231 542 c 0
 231 519 263 500 273 500 c 0
91 416 m 0
 101 416 133 435 133 458 c 0
 133 481 101 500 91 500 c 0
 81 500 49 481 49 458 c 0
 49 435 81 416 91 416 c 0
236 416 m 0
 246 416 278 435 278 458 c 0
 278 481 246 500 236 500 c 0
 226 500 194 481 194 458 c 0
 194 435 226 416 236 416 c 0
127 333 m 0
 137 333 169 352 169 375 c 0
 169 398 137 417 127 417 c 0
 117 417 85 398 85 375 c 0
 85 352 117 333 127 333 c 0
200 333 m 0
 210 333 242 352 242 375 c 0
 242 398 210 417 200 417 c 0
 190 417 158 398 158 375 c 0
 158 352 190 333 200 333 c 0
164 250 m 0
 174 250 206 269 206 292 c 0
 206 315 174 334 164 334 c 0
 154 334 122 315 122 292 c 0
 122 269 154 250 164 250 c 0
164 166 m 0
 174 166 206 185 206 208 c 0
 206 231 174 250 164 250 c 0
 154 250 122 231 122 208 c 0
 122 185 154 166 164 166 c 0
164 83 m 0
 174 83 206 102 206 125 c 0
 206 148 174 167 164 167 c 0
 154 167 122 148 122 125 c 0
 122 102 154 83 164 83 c 0
164 0 m 0
 174 0 206 19 206 42 c 0
 206 65 174 84 164 84 c 0
 154 84 122 65 122 42 c 0
 122 19 154 0 164 0 c 0
EndSplineSet
EndChar

StartChar: Z
Encoding: 90 90 58
Width: 364
Flags: HW
LayerCount: 2
Back
Fore
SplineSet
55 500 m 0
 65 500 97 519 97 542 c 0
 97 565 65 584 55 584 c 0
 45 584 13 565 13 542 c 0
 13 519 45 500 55 500 c 0
127 500 m 0
 137 500 169 519 169 542 c 0
 169 565 137 584 127 584 c 0
 117 584 85 565 85 542 c 0
 85 519 117 500 127 500 c 0
200 500 m 0
 210 500 242 519 242 542 c 0
 242 565 210 584 200 584 c 0
 190 584 158 565 158 542 c 0
 158 519 190 500 200 500 c 0
273 500 m 0
 283 500 315 519 315 542 c 0
 315 565 283 584 273 584 c 0
 263 584 231 565 231 542 c 0
 231 519 263 500 273 500 c 0
236 416 m 0
 246 416 278 435 278 458 c 0
 278 481 246 500 236 500 c 0
 226 500 194 481 194 458 c 0
 194 435 226 416 236 416 c 0
200 333 m 0
 210 333 242 352 242 375 c 0
 242 398 210 417 200 417 c 0
 190 417 158 398 158 375 c 0
 158 352 190 333 200 333 c 0
164 250 m 0
 174 250 206 269 206 292 c 0
 206 315 174 334 164 334 c 0
 154 334 122 315 122 292 c 0
 122 269 154 250 164 250 c 0
127 166 m 0
 137 166 169 185 169 208 c 0
 169 231 137 250 127 250 c 0
 117 250 85 231 85 208 c 0
 85 185 117 166 127 166 c 0
91 83 m 0
 101 83 133 102 133 125 c 0
 133 148 101 167 91 167 c 0
 81 167 49 148 49 125 c 0
 49 102 81 83 91 83 c 0
55 0 m 0
 65 0 97 19 97 42 c 0
 97 65 65 84 55 84 c 0
 45 84 13 65 13 42 c 0
 13 19 45 0 55 0 c 0
127 0 m 0
 137 0 169 19 169 42 c 0
 169 65 137 84 127 84 c 0
 117 84 85 65 85 42 c 0
 85 19 117 0 127 0 c 0
200 0 m 0
 210 0 242 19 242 42 c 0
 242 65 210 84 200 84 c 0
 190 84 158 65 158 42 c 0
 158 19 190 0 200 0 c 0
273 0 m 0
 283 0 315 19 315 42 c 0
 315 65 283 84 273 84 c 0
 263 84 231 65 231 42 c 0
 231 19 263 0 273 0 c 0
EndSplineSet
EndChar

StartChar: bracketleft
Encoding: 91 91 59
Width: 364
Flags: HW
LayerCount: 2
Back
Fore
SplineSet
127 500 m 0
 137 500 169 519 169 542 c 0
 169 565 137 584 127 584 c 0
 117 584 85 565 85 542 c 0
 85 519 117 500 127 500 c 0
200 500 m 0
 210 500 242 519 242 542 c 0
 242 565 210 584 200 584 c 0
 190 584 158 565 158 542 c 0
 158 519 190 500 200 500 c 0
273 500 m 0
 283 500 315 519 315 542 c 0
 315 565 283 584 273 584 c 0
 263 584 231 565 231 542 c 0
 231 519 263 500 273 500 c 0
127 416 m 0
 137 416 169 435 169 458 c 0
 169 481 137 500 127 500 c 0
 117 500 85 481 85 458 c 0
 85 435 117 416 127 416 c 0
127 333 m 0
 137 333 169 352 169 375 c 0
 169 398 137 417 127 417 c 0
 117 417 85 398 85 375 c 0
 85 352 117 333 127 333 c 0
127 250 m 0
 137 250 169 269 169 292 c 0
 169 315 137 334 127 334 c 0
 117 334 85 315 85 292 c 0
 85 269 117 250 127 250 c 0
127 166 m 0
 137 166 169 185 169 208 c 0
 169 231 137 250 127 250 c 0
 117 250 85 231 85 208 c 0
 85 185 117 166 127 166 c 0
127 83 m 0
 137 83 169 102 169 125 c 0
 169 148 137 167 127 167 c 0
 117 167 85 148 85 125 c 0
 85 102 117 83 127 83 c 0
127 0 m 0
 137 0 169 19 169 42 c 0
 169 65 137 84 127 84 c 0
 117 84 85 65 85 42 c 0
 85 19 117 0 127 0 c 0
200 0 m 0
 210 0 242 19 242 42 c 0
 242 65 210 84 200 84 c 0
 190 84 158 65 158 42 c 0
 158 19 190 0 200 0 c 0
273 0 m 0
 283 0 315 19 315 42 c 0
 315 65 283 84 273 84 c 0
 263 84 231 65 231 42 c 0
 231 19 263 0 273 0 c 0
EndSplineSet
EndChar

StartChar: backslash
Encoding: 92 92 60
Width: 364
Flags: HW
LayerCount: 2
Back
Fore
SplineSet
55 500 m 0
 65 500 97 519 97 542 c 0
 97 565 65 584 55 584 c 0
 45 584 13 565 13 542 c 0
 13 519 45 500 55 500 c 0
91 416 m 0
 101 416 133 435 133 458 c 0
 133 481 101 500 91 500 c 0
 81 500 49 481 49 458 c 0
 49 435 81 416 91 416 c 0
127 333 m 0
 137 333 169 352 169 375 c 0
 169 398 137 417 127 417 c 0
 117 417 85 398 85 375 c 0
 85 352 117 333 127 333 c 0
164 250 m 0
 174 250 206 269 206 292 c 0
 206 315 174 334 164 334 c 0
 154 334 122 315 122 292 c 0
 122 269 154 250 164 250 c 0
200 166 m 0
 210 166 242 185 242 208 c 0
 242 231 210 250 200 250 c 0
 190 250 158 231 158 208 c 0
 158 185 190 166 200 166 c 0
236 83 m 0
 246 83 278 102 278 125 c 0
 278 148 246 167 236 167 c 0
 226 167 194 148 194 125 c 0
 194 102 226 83 236 83 c 0
273 0 m 0
 283 0 315 19 315 42 c 0
 315 65 283 84 273 84 c 0
 263 84 231 65 231 42 c 0
 231 19 263 0 273 0 c 0
EndSplineSet
EndChar

StartChar: bracketright
Encoding: 93 93 61
Width: 364
Flags: HW
LayerCount: 2
Back
Fore
SplineSet
55 500 m 0
 65 500 97 519 97 542 c 0
 97 565 65 584 55 584 c 0
 45 584 13 565 13 542 c 0
 13 519 45 500 55 500 c 0
127 500 m 0
 137 500 169 519 169 542 c 0
 169 565 137 584 127 584 c 0
 117 584 85 565 85 542 c 0
 85 519 117 500 127 500 c 0
200 500 m 0
 210 500 242 519 242 542 c 0
 242 565 210 584 200 584 c 0
 190 584 158 565 158 542 c 0
 158 519 190 500 200 500 c 0
200 416 m 0
 210 416 242 435 242 458 c 0
 242 481 210 500 200 500 c 0
 190 500 158 481 158 458 c 0
 158 435 190 416 200 416 c 0
200 333 m 0
 210 333 242 352 242 375 c 0
 242 398 210 417 200 417 c 0
 190 417 158 398 158 375 c 0
 158 352 190 333 200 333 c 0
200 250 m 0
 210 250 242 269 242 292 c 0
 242 315 210 334 200 334 c 0
 190 334 158 315 158 292 c 0
 158 269 190 250 200 250 c 0
200 166 m 0
 210 166 242 185 242 208 c 0
 242 231 210 250 200 250 c 0
 190 250 158 231 158 208 c 0
 158 185 190 166 200 166 c 0
200 83 m 0
 210 83 242 102 242 125 c 0
 242 148 210 167 200 167 c 0
 190 167 158 148 158 125 c 0
 158 102 190 83 200 83 c 0
55 0 m 0
 65 0 97 19 97 42 c 0
 97 65 65 84 55 84 c 0
 45 84 13 65 13 42 c 0
 13 19 45 0 55 0 c 0
127 0 m 0
 137 0 169 19 169 42 c 0
 169 65 137 84 127 84 c 0
 117 84 85 65 85 42 c 0
 85 19 117 0 127 0 c 0
200 0 m 0
 210 0 242 19 242 42 c 0
 242 65 210 84 200 84 c 0
 190 84 158 65 158 42 c 0
 158 19 190 0 200 0 c 0
EndSplineSet
EndChar

StartChar: asciicircum
Encoding: 94 94 62
Width: 364
Flags: HW
LayerCount: 2
Back
Fore
SplineSet
91 500 m 0
 101 500 133 519 133 542 c 0
 133 565 101 584 91 584 c 0
 81 584 49 565 49 542 c 0
 49 519 81 500 91 500 c 0
164 500 m 0
 174 500 206 519 206 542 c 0
 206 565 174 584 164 584 c 0
 154 584 122 565 122 542 c 0
 122 519 154 500 164 500 c 0
236 500 m 0
 246 500 278 519 278 542 c 0
 278 565 246 584 236 584 c 0
 226 584 194 565 194 542 c 0
 194 519 226 500 236 500 c 0
55 416 m 0
 65 416 97 435 97 458 c 0
 97 481 65 500 55 500 c 0
 45 500 13 481 13 458 c 0
 13 435 45 416 55 416 c 0
273 416 m 0
 283 416 315 435 315 458 c 0
 315 481 283 500 273 500 c 0
 263 500 231 481 231 458 c 0
 231 435 263 416 273 416 c 0
EndSplineSet
EndChar

StartChar: underscore
Encoding: 95 95 63
Width: 364
Flags: HW
LayerCount: 2
Back
Fore
SplineSet
55 0 m 0
 65 0 97 19 97 42 c 0
 97 65 65 84 55 84 c 0
 45 84 13 65 13 42 c 0
 13 19 45 0 55 0 c 0
127 0 m 0
 137 0 169 19 169 42 c 0
 169 65 137 84 127 84 c 0
 117 84 85 65 85 42 c 0
 85 19 117 0 127 0 c 0
200 0 m 0
 210 0 242 19 242 42 c 0
 242 65 210 84 200 84 c 0
 190 84 158 65 158 42 c 0
 158 19 190 0 200 0 c 0
273 0 m 0
 283 0 315 19 315 42 c 0
 315 65 283 84 273 84 c 0
 263 84 231 65 231 42 c 0
 231 19 263 0 273 0 c 0
EndSplineSet
EndChar

StartChar: grave
Encoding: 96 96 64
Width: 364
Flags: HW
LayerCount: 2
Back
Fore
SplineSet
127 500 m 0
 137 500 169 519 169 542 c 0
 169 565 137 584 127 584 c 0
 117 584 85 565 85 542 c 0
 85 519 117 500 127 500 c 0
164 416 m 0
 174 416 206 435 206 458 c 0
 206 481 174 500 164 500 c 0
 154 500 122 481 122 458 c 0
 122 435 154 416 164 416 c 0
200 333 m 0
 210 333 242 352 242 375 c 0
 242 398 210 417 200 417 c 0
 190 417 158 398 158 375 c 0
 158 352 190 333 200 333 c 0
EndSplineSet
EndChar

StartChar: a
Encoding: 97 97 65
Width: 364
Flags: HW
LayerCount: 2
Back
Fore
SplineSet
91 333 m 0
 101 333 133 352 133 375 c 0
 133 398 101 417 91 417 c 0
 81 417 49 398 49 375 c 0
 49 352 81 333 91 333 c 0
164 333 m 0
 174 333 206 352 206 375 c 0
 206 398 174 417 164 417 c 0
 154 417 122 398 122 375 c 0
 122 352 154 333 164 333 c 0
236 333 m 0
 246 333 278 352 278 375 c 0
 278 398 246 417 236 417 c 0
 226 417 194 398 194 375 c 0
 194 352 226 333 236 333 c 0
273 250 m 0
 283 250 315 269 315 292 c 0
 315 315 283 334 273 334 c 0
 263 334 231 315 231 292 c 0
 231 269 263 250 273 250 c 0
91 166 m 0
 101 166 133 185 133 208 c 0
 133 231 101 250 91 250 c 0
 81 250 49 231 49 208 c 0
 49 185 81 166 91 166 c 0
164 166 m 0
 174 166 206 185 206 208 c 0
 206 231 174 250 164 250 c 0
 154 250 122 231 122 208 c 0
 122 185 154 166 164 166 c 0
236 166 m 0
 246 166 278 185 278 208 c 0
 278 231 246 250 236 250 c 0
 226 250 194 231 194 208 c 0
 194 185 226 166 236 166 c 0
55 83 m 0
 65 83 97 102 97 125 c 0
 97 148 65 167 55 167 c 0
 45 167 13 148 13 125 c 0
 13 102 45 83 55 83 c 0
273 83 m 0
 283 83 315 102 315 125 c 0
 315 148 283 167 273 167 c 0
 263 167 231 148 231 125 c 0
 231 102 263 83 273 83 c 0
91 0 m 0
 101 0 133 19 133 42 c 0
 133 65 101 84 91 84 c 0
 81 84 49 65 49 42 c 0
 49 19 81 0 91 0 c 0
164 0 m 0
 174 0 206 19 206 42 c 0
 206 65 174 84 164 84 c 0
 154 84 122 65 122 42 c 0
 122 19 154 0 164 0 c 0
236 0 m 0
 246 0 278 19 278 42 c 0
 278 65 246 84 236 84 c 0
 226 84 194 65 194 42 c 0
 194 19 226 0 236 0 c 0
EndSplineSet
EndChar

StartChar: b
Encoding: 98 98 66
Width: 364
Flags: HW
LayerCount: 2
Back
Fore
SplineSet
55 500 m 0
 65 500 97 519 97 542 c 0
 97 565 65 584 55 584 c 0
 45 584 13 565 13 542 c 0
 13 519 45 500 55 500 c 0
55 416 m 0
 65 416 97 435 97 458 c 0
 97 481 65 500 55 500 c 0
 45 500 13 481 13 458 c 0
 13 435 45 416 55 416 c 0
91 333 m 0
 101 333 133 352 133 375 c 0
 133 398 101 417 91 417 c 0
 81 417 49 398 49 375 c 0
 49 352 81 333 91 333 c 0
164 333 m 0
 174 333 206 352 206 375 c 0
 206 398 174 417 164 417 c 0
 154 417 122 398 122 375 c 0
 122 352 154 333 164 333 c 0
236 333 m 0
 246 333 278 352 278 375 c 0
 278 398 246 417 236 417 c 0
 226 417 194 398 194 375 c 0
 194 352 226 333 236 333 c 0
55 250 m 0
 65 250 97 269 97 292 c 0
 97 315 65 334 55 334 c 0
 45 334 13 315 13 292 c 0
 13 269 45 250 55 250 c 0
273 250 m 0
 283 250 315 269 315 292 c 0
 315 315 283 334 273 334 c 0
 263 334 231 315 231 292 c 0
 231 269 263 250 273 250 c 0
55 166 m 0
 65 166 97 185 97 208 c 0
 97 231 65 250 55 250 c 0
 45 250 13 231 13 208 c 0
 13 185 45 166 55 166 c 0
273 166 m 0
 283 166 315 185 315 208 c 0
 315 231 283 250 273 250 c 0
 263 250 231 231 231 208 c 0
 231 185 263 166 273 166 c 0
55 83 m 0
 65 83 97 102 97 125 c 0
 97 148 65 167 55 167 c 0
 45 167 13 148 13 125 c 0
 13 102 45 83 55 83 c 0
273 83 m 0
 283 83 315 102 315 125 c 0
 315 148 283 167 273 167 c 0
 263 167 231 148 231 125 c 0
 231 102 263 83 273 83 c 0
55 0 m 0
 65 0 97 19 97 42 c 0
 97 65 65 84 55 84 c 0
 45 84 13 65 13 42 c 0
 13 19 45 0 55 0 c 0
127 0 m 0
 137 0 169 19 169 42 c 0
 169 65 137 84 127 84 c 0
 117 84 85 65 85 42 c 0
 85 19 117 0 127 0 c 0
200 0 m 0
 210 0 242 19 242 42 c 0
 242 65 210 84 200 84 c 0
 190 84 158 65 158 42 c 0
 158 19 190 0 200 0 c 0
EndSplineSet
EndChar

StartChar: c
Encoding: 99 99 67
Width: 364
Flags: HW
LayerCount: 2
Back
Fore
SplineSet
91 333 m 0
 101 333 133 352 133 375 c 0
 133 398 101 417 91 417 c 0
 81 417 49 398 49 375 c 0
 49 352 81 333 91 333 c 0
164 333 m 0
 174 333 206 352 206 375 c 0
 206 398 174 417 164 417 c 0
 154 417 122 398 122 375 c 0
 122 352 154 333 164 333 c 0
236 333 m 0
 246 333 278 352 278 375 c 0
 278 398 246 417 236 417 c 0
 226 417 194 398 194 375 c 0
 194 352 226 333 236 333 c 0
55 250 m 0
 65 250 97 269 97 292 c 0
 97 315 65 334 55 334 c 0
 45 334 13 315 13 292 c 0
 13 269 45 250 55 250 c 0
273 250 m 0
 283 250 315 269 315 292 c 0
 315 315 283 334 273 334 c 0
 263 334 231 315 231 292 c 0
 231 269 263 250 273 250 c 0
55 166 m 0
 65 166 97 185 97 208 c 0
 97 231 65 250 55 250 c 0
 45 250 13 231 13 208 c 0
 13 185 45 166 55 166 c 0
55 83 m 0
 65 83 97 102 97 125 c 0
 97 148 65 167 55 167 c 0
 45 167 13 148 13 125 c 0
 13 102 45 83 55 83 c 0
91 0 m 0
 101 0 133 19 133 42 c 0
 133 65 101 84 91 84 c 0
 81 84 49 65 49 42 c 0
 49 19 81 0 91 0 c 0
164 0 m 0
 174 0 206 19 206 42 c 0
 206 65 174 84 164 84 c 0
 154 84 122 65 122 42 c 0
 122 19 154 0 164 0 c 0
236 0 m 0
 246 0 278 19 278 42 c 0
 278 65 246 84 236 84 c 0
 226 84 194 65 194 42 c 0
 194 19 226 0 236 0 c 0
EndSplineSet
EndChar

StartChar: d
Encoding: 100 100 68
Width: 364
Flags: HW
LayerCount: 2
Back
Fore
SplineSet
273 500 m 0
 283 500 315 519 315 542 c 0
 315 565 283 584 273 584 c 0
 263 584 231 565 231 542 c 0
 231 519 263 500 273 500 c 0
273 416 m 0
 283 416 315 435 315 458 c 0
 315 481 283 500 273 500 c 0
 263 500 231 481 231 458 c 0
 231 435 263 416 273 416 c 0
91 333 m 0
 101 333 133 352 133 375 c 0
 133 398 101 417 91 417 c 0
 81 417 49 398 49 375 c 0
 49 352 81 333 91 333 c 0
164 333 m 0
 174 333 206 352 206 375 c 0
 206 398 174 417 164 417 c 0
 154 417 122 398 122 375 c 0
 122 352 154 333 164 333 c 0
236 333 m 0
 246 333 278 352 278 375 c 0
 278 398 246 417 236 417 c 0
 226 417 194 398 194 375 c 0
 194 352 226 333 236 333 c 0
55 250 m 0
 65 250 97 269 97 292 c 0
 97 315 65 334 55 334 c 0
 45 334 13 315 13 292 c 0
 13 269 45 250 55 250 c 0
273 250 m 0
 283 250 315 269 315 292 c 0
 315 315 283 334 273 334 c 0
 263 334 231 315 231 292 c 0
 231 269 263 250 273 250 c 0
55 166 m 0
 65 166 97 185 97 208 c 0
 97 231 65 250 55 250 c 0
 45 250 13 231 13 208 c 0
 13 185 45 166 55 166 c 0
273 166 m 0
 283 166 315 185 315 208 c 0
 315 231 283 250 273 250 c 0
 263 250 231 231 231 208 c 0
 231 185 263 166 273 166 c 0
55 83 m 0
 65 83 97 102 97 125 c 0
 97 148 65 167 55 167 c 0
 45 167 13 148 13 125 c 0
 13 102 45 83 55 83 c 0
273 83 m 0
 283 83 315 102 315 125 c 0
 315 148 283 167 273 167 c 0
 263 167 231 148 231 125 c 0
 231 102 263 83 273 83 c 0
127 0 m 0
 137 0 169 19 169 42 c 0
 169 65 137 84 127 84 c 0
 117 84 85 65 85 42 c 0
 85 19 117 0 127 0 c 0
200 0 m 0
 210 0 242 19 242 42 c 0
 242 65 210 84 200 84 c 0
 190 84 158 65 158 42 c 0
 158 19 190 0 200 0 c 0
273 0 m 0
 283 0 315 19 315 42 c 0
 315 65 283 84 273 84 c 0
 263 84 231 65 231 42 c 0
 231 19 263 0 273 0 c 0
EndSplineSet
EndChar

StartChar: e
Encoding: 101 101 69
Width: 364
Flags: HW
LayerCount: 2
Back
Fore
SplineSet
91 333 m 0
 101 333 133 352 133 375 c 0
 133 398 101 417 91 417 c 0
 81 417 49 398 49 375 c 0
 49 352 81 333 91 333 c 0
164 333 m 0
 174 333 206 352 206 375 c 0
 206 398 174 417 164 417 c 0
 154 417 122 398 122 375 c 0
 122 352 154 333 164 333 c 0
236 333 m 0
 246 333 278 352 278 375 c 0
 278 398 246 417 236 417 c 0
 226 417 194 398 194 375 c 0
 194 352 226 333 236 333 c 0
55 250 m 0
 65 250 97 269 97 292 c 0
 97 315 65 334 55 334 c 0
 45 334 13 315 13 292 c 0
 13 269 45 250 55 250 c 0
273 250 m 0
 283 250 315 269 315 292 c 0
 315 315 283 334 273 334 c 0
 263 334 231 315 231 292 c 0
 231 269 263 250 273 250 c 0
55 166 m 0
 65 166 97 185 97 208 c 0
 97 231 65 250 55 250 c 0
 45 250 13 231 13 208 c 0
 13 185 45 166 55 166 c 0
127 166 m 0
 137 166 169 185 169 208 c 0
 169 231 137 250 127 250 c 0
 117 250 85 231 85 208 c 0
 85 185 117 166 127 166 c 0
200 166 m 0
 210 166 242 185 242 208 c 0
 242 231 210 250 200 250 c 0
 190 250 158 231 158 208 c 0
 158 185 190 166 200 166 c 0
273 166 m 0
 283 166 315 185 315 208 c 0
 315 231 283 250 273 250 c 0
 263 250 231 231 231 208 c 0
 231 185 263 166 273 166 c 0
55 83 m 0
 65 83 97 102 97 125 c 0
 97 148 65 167 55 167 c 0
 45 167 13 148 13 125 c 0
 13 102 45 83 55 83 c 0
91 0 m 0
 101 0 133 19 133 42 c 0
 133 65 101 84 91 84 c 0
 81 84 49 65 49 42 c 0
 49 19 81 0 91 0 c 0
164 0 m 0
 174 0 206 19 206 42 c 0
 206 65 174 84 164 84 c 0
 154 84 122 65 122 42 c 0
 122 19 154 0 164 0 c 0
236 0 m 0
 246 0 278 19 278 42 c 0
 278 65 246 84 236 84 c 0
 226 84 194 65 194 42 c 0
 194 19 226 0 236 0 c 0
EndSplineSet
EndChar

StartChar: f
Encoding: 102 102 70
Width: 364
Flags: HW
LayerCount: 2
Back
Fore
SplineSet
164 500 m 0
 174 500 206 519 206 542 c 0
 206 565 174 584 164 584 c 0
 154 584 122 565 122 542 c 0
 122 519 154 500 164 500 c 0
236 500 m 0
 246 500 278 519 278 542 c 0
 278 565 246 584 236 584 c 0
 226 584 194 565 194 542 c 0
 194 519 226 500 236 500 c 0
127 416 m 0
 137 416 169 435 169 458 c 0
 169 481 137 500 127 500 c 0
 117 500 85 481 85 458 c 0
 85 435 117 416 127 416 c 0
273 416 m 0
 283 416 315 435 315 458 c 0
 315 481 283 500 273 500 c 0
 263 500 231 481 231 458 c 0
 231 435 263 416 273 416 c 0
55 333 m 0
 65 333 97 352 97 375 c 0
 97 398 65 417 55 417 c 0
 45 417 13 398 13 375 c 0
 13 352 45 333 55 333 c 0
127 333 m 0
 137 333 169 352 169 375 c 0
 169 398 137 417 127 417 c 0
 117 417 85 398 85 375 c 0
 85 352 117 333 127 333 c 0
200 333 m 0
 210 333 242 352 242 375 c 0
 242 398 210 417 200 417 c 0
 190 417 158 398 158 375 c 0
 158 352 190 333 200 333 c 0
127 250 m 0
 137 250 169 269 169 292 c 0
 169 315 137 334 127 334 c 0
 117 334 85 315 85 292 c 0
 85 269 117 250 127 250 c 0
127 166 m 0
 137 166 169 185 169 208 c 0
 169 231 137 250 127 250 c 0
 117 250 85 231 85 208 c 0
 85 185 117 166 127 166 c 0
127 83 m 0
 137 83 169 102 169 125 c 0
 169 148 137 167 127 167 c 0
 117 167 85 148 85 125 c 0
 85 102 117 83 127 83 c 0
127 0 m 0
 137 0 169 19 169 42 c 0
 169 65 137 84 127 84 c 0
 117 84 85 65 85 42 c 0
 85 19 117 0 127 0 c 0
EndSplineSet
EndChar

StartChar: g
Encoding: 103 103 71
Width: 364
Flags: HW
LayerCount: 2
Back
Fore
SplineSet
273 416 m 0
 283 416 315 435 315 458 c 0
 315 481 283 500 273 500 c 0
 263 500 231 481 231 458 c 0
 231 435 263 416 273 416 c 0
91 333 m 0
 101 333 133 352 133 375 c 0
 133 398 101 417 91 417 c 0
 81 417 49 398 49 375 c 0
 49 352 81 333 91 333 c 0
164 333 m 0
 174 333 206 352 206 375 c 0
 206 398 174 417 164 417 c 0
 154 417 122 398 122 375 c 0
 122 352 154 333 164 333 c 0
236 333 m 0
 246 333 278 352 278 375 c 0
 278 398 246 417 236 417 c 0
 226 417 194 398 194 375 c 0
 194 352 226 333 236 333 c 0
55 250 m 0
 65 250 97 269 97 292 c 0
 97 315 65 334 55 334 c 0
 45 334 13 315 13 292 c 0
 13 269 45 250 55 250 c 0
273 250 m 0
 283 250 315 269 315 292 c 0
 315 315 283 334 273 334 c 0
 263 334 231 315 231 292 c 0
 231 269 263 250 273 250 c 0
91 166 m 0
 101 166 133 185 133 208 c 0
 133 231 101 250 91 250 c 0
 81 250 49 231 49 208 c 0
 49 185 81 166 91 166 c 0
164 166 m 0
 174 166 206 185 206 208 c 0
 206 231 174 250 164 250 c 0
 154 250 122 231 122 208 c 0
 122 185 154 166 164 166 c 0
236 166 m 0
 246 166 278 185 278 208 c 0
 278 231 246 250 236 250 c 0
 226 250 194 231 194 208 c 0
 194 185 226 166 236 166 c 0
273 83 m 0
 283 83 315 102 315 125 c 0
 315 148 283 167 273 167 c 0
 263 167 231 148 231 125 c 0
 231 102 263 83 273 83 c 0
55 0 m 0
 65 0 97 19 97 42 c 0
 97 65 65 84 55 84 c 0
 45 84 13 65 13 42 c 0
 13 19 45 0 55 0 c 0
127 0 m 0
 137 0 169 19 169 42 c 0
 169 65 137 84 127 84 c 0
 117 84 85 65 85 42 c 0
 85 19 117 0 127 0 c 0
200 0 m 0
 210 0 242 19 242 42 c 0
 242 65 210 84 200 84 c 0
 190 84 158 65 158 42 c 0
 158 19 190 0 200 0 c 0
273 0 m 0
 283 0 315 19 315 42 c 0
 315 65 283 84 273 84 c 0
 263 84 231 65 231 42 c 0
 231 19 263 0 273 0 c 0
EndSplineSet
EndChar

StartChar: h
Encoding: 104 104 72
Width: 364
Flags: HW
LayerCount: 2
Back
Fore
SplineSet
55 500 m 0
 65 500 97 519 97 542 c 0
 97 565 65 584 55 584 c 0
 45 584 13 565 13 542 c 0
 13 519 45 500 55 500 c 0
55 416 m 0
 65 416 97 435 97 458 c 0
 97 481 65 500 55 500 c 0
 45 500 13 481 13 458 c 0
 13 435 45 416 55 416 c 0
91 333 m 0
 101 333 133 352 133 375 c 0
 133 398 101 417 91 417 c 0
 81 417 49 398 49 375 c 0
 49 352 81 333 91 333 c 0
164 333 m 0
 174 333 206 352 206 375 c 0
 206 398 174 417 164 417 c 0
 154 417 122 398 122 375 c 0
 122 352 154 333 164 333 c 0
236 333 m 0
 246 333 278 352 278 375 c 0
 278 398 246 417 236 417 c 0
 226 417 194 398 194 375 c 0
 194 352 226 333 236 333 c 0
55 250 m 0
 65 250 97 269 97 292 c 0
 97 315 65 334 55 334 c 0
 45 334 13 315 13 292 c 0
 13 269 45 250 55 250 c 0
273 250 m 0
 283 250 315 269 315 292 c 0
 315 315 283 334 273 334 c 0
 263 334 231 315 231 292 c 0
 231 269 263 250 273 250 c 0
55 166 m 0
 65 166 97 185 97 208 c 0
 97 231 65 250 55 250 c 0
 45 250 13 231 13 208 c 0
 13 185 45 166 55 166 c 0
273 166 m 0
 283 166 315 185 315 208 c 0
 315 231 283 250 273 250 c 0
 263 250 231 231 231 208 c 0
 231 185 263 166 273 166 c 0
55 83 m 0
 65 83 97 102 97 125 c 0
 97 148 65 167 55 167 c 0
 45 167 13 148 13 125 c 0
 13 102 45 83 55 83 c 0
273 83 m 0
 283 83 315 102 315 125 c 0
 315 148 283 167 273 167 c 0
 263 167 231 148 231 125 c 0
 231 102 263 83 273 83 c 0
55 0 m 0
 65 0 97 19 97 42 c 0
 97 65 65 84 55 84 c 0
 45 84 13 65 13 42 c 0
 13 19 45 0 55 0 c 0
273 0 m 0
 283 0 315 19 315 42 c 0
 315 65 283 84 273 84 c 0
 263 84 231 65 231 42 c 0
 231 19 263 0 273 0 c 0
EndSplineSet
EndChar

StartChar: i
Encoding: 105 105 73
Width: 364
Flags: HW
LayerCount: 2
Back
Fore
SplineSet
164 500 m 0
 174 500 206 519 206 542 c 0
 206 565 174 584 164 584 c 0
 154 584 122 565 122 542 c 0
 122 519 154 500 164 500 c 0
91 333 m 0
 101 333 133 352 133 375 c 0
 133 398 101 417 91 417 c 0
 81 417 49 398 49 375 c 0
 49 352 81 333 91 333 c 0
164 333 m 0
 174 333 206 352 206 375 c 0
 206 398 174 417 164 417 c 0
 154 417 122 398 122 375 c 0
 122 352 154 333 164 333 c 0
164 250 m 0
 174 250 206 269 206 292 c 0
 206 315 174 334 164 334 c 0
 154 334 122 315 122 292 c 0
 122 269 154 250 164 250 c 0
164 166 m 0
 174 166 206 185 206 208 c 0
 206 231 174 250 164 250 c 0
 154 250 122 231 122 208 c 0
 122 185 154 166 164 166 c 0
164 83 m 0
 174 83 206 102 206 125 c 0
 206 148 174 167 164 167 c 0
 154 167 122 148 122 125 c 0
 122 102 154 83 164 83 c 0
91 0 m 0
 101 0 133 19 133 42 c 0
 133 65 101 84 91 84 c 0
 81 84 49 65 49 42 c 0
 49 19 81 0 91 0 c 0
164 0 m 0
 174 0 206 19 206 42 c 0
 206 65 174 84 164 84 c 0
 154 84 122 65 122 42 c 0
 122 19 154 0 164 0 c 0
236 0 m 0
 246 0 278 19 278 42 c 0
 278 65 246 84 236 84 c 0
 226 84 194 65 194 42 c 0
 194 19 226 0 236 0 c 0
EndSplineSet
EndChar

StartChar: j
Encoding: 106 106 74
Width: 364
Flags: HW
LayerCount: 2
Back
Fore
SplineSet
273 500 m 0
 283 500 315 519 315 542 c 0
 315 565 283 584 273 584 c 0
 263 584 231 565 231 542 c 0
 231 519 263 500 273 500 c 0
273 333 m 0
 283 333 315 352 315 375 c 0
 315 398 283 417 273 417 c 0
 263 417 231 398 231 375 c 0
 231 352 263 333 273 333 c 0
273 250 m 0
 283 250 315 269 315 292 c 0
 315 315 283 334 273 334 c 0
 263 334 231 315 231 292 c 0
 231 269 263 250 273 250 c 0
273 166 m 0
 283 166 315 185 315 208 c 0
 315 231 283 250 273 250 c 0
 263 250 231 231 231 208 c 0
 231 185 263 166 273 166 c 0
55 83 m 0
 65 83 97 102 97 125 c 0
 97 148 65 167 55 167 c 0
 45 167 13 148 13 125 c 0
 13 102 45 83 55 83 c 0
273 83 m 0
 283 83 315 102 315 125 c 0
 315 148 283 167 273 167 c 0
 263 167 231 148 231 125 c 0
 231 102 263 83 273 83 c 0
91 0 m 0
 101 0 133 19 133 42 c 0
 133 65 101 84 91 84 c 0
 81 84 49 65 49 42 c 0
 49 19 81 0 91 0 c 0
164 0 m 0
 174 0 206 19 206 42 c 0
 206 65 174 84 164 84 c 0
 154 84 122 65 122 42 c 0
 122 19 154 0 164 0 c 0
236 0 m 0
 246 0 278 19 278 42 c 0
 278 65 246 84 236 84 c 0
 226 84 194 65 194 42 c 0
 194 19 226 0 236 0 c 0
EndSplineSet
EndChar

StartChar: k
Encoding: 107 107 75
Width: 364
Flags: HW
LayerCount: 2
Back
Fore
SplineSet
55 500 m 0
 65 500 97 519 97 542 c 0
 97 565 65 584 55 584 c 0
 45 584 13 565 13 542 c 0
 13 519 45 500 55 500 c 0
55 416 m 0
 65 416 97 435 97 458 c 0
 97 481 65 500 55 500 c 0
 45 500 13 481 13 458 c 0
 13 435 45 416 55 416 c 0
55 333 m 0
 65 333 97 352 97 375 c 0
 97 398 65 417 55 417 c 0
 45 417 13 398 13 375 c 0
 13 352 45 333 55 333 c 0
200 333 m 0
 210 333 242 352 242 375 c 0
 242 398 210 417 200 417 c 0
 190 417 158 398 158 375 c 0
 158 352 190 333 200 333 c 0
55 250 m 0
 65 250 97 269 97 292 c 0
 97 315 65 334 55 334 c 0
 45 334 13 315 13 292 c 0
 13 269 45 250 55 250 c 0
164 250 m 0
 174 250 206 269 206 292 c 0
 206 315 174 334 164 334 c 0
 154 334 122 315 122 292 c 0
 122 269 154 250 164 250 c 0
55 166 m 0
 65 166 97 185 97 208 c 0
 97 231 65 250 55 250 c 0
 45 250 13 231 13 208 c 0
 13 185 45 166 55 166 c 0
127 166 m 0
 137 166 169 185 169 208 c 0
 169 231 137 250 127 250 c 0
 117 250 85 231 85 208 c 0
 85 185 117 166 127 166 c 0
55 83 m 0
 65 83 97 102 97 125 c 0
 97 148 65 167 55 167 c 0
 45 167 13 148 13 125 c 0
 13 102 45 83 55 83 c 0
200 83 m 0
 210 83 242 102 242 125 c 0
 242 148 210 167 200 167 c 0
 190 167 158 148 158 125 c 0
 158 102 190 83 200 83 c 0
55 0 m 0
 65 0 97 19 97 42 c 0
 97 65 65 84 55 84 c 0
 45 84 13 65 13 42 c 0
 13 19 45 0 55 0 c 0
273 0 m 0
 283 0 315 19 315 42 c 0
 315 65 283 84 273 84 c 0
 263 84 231 65 231 42 c 0
 231 19 263 0 273 0 c 0
EndSplineSet
EndChar

StartChar: l
Encoding: 108 108 76
Width: 364
Flags: HW
LayerCount: 2
Back
Fore
SplineSet
91 500 m 0
 101 500 133 519 133 542 c 0
 133 565 101 584 91 584 c 0
 81 584 49 565 49 542 c 0
 49 519 81 500 91 500 c 0
164 500 m 0
 174 500 206 519 206 542 c 0
 206 565 174 584 164 584 c 0
 154 584 122 565 122 542 c 0
 122 519 154 500 164 500 c 0
164 416 m 0
 174 416 206 435 206 458 c 0
 206 481 174 500 164 500 c 0
 154 500 122 481 122 458 c 0
 122 435 154 416 164 416 c 0
164 333 m 0
 174 333 206 352 206 375 c 0
 206 398 174 417 164 417 c 0
 154 417 122 398 122 375 c 0
 122 352 154 333 164 333 c 0
164 250 m 0
 174 250 206 269 206 292 c 0
 206 315 174 334 164 334 c 0
 154 334 122 315 122 292 c 0
 122 269 154 250 164 250 c 0
164 166 m 0
 174 166 206 185 206 208 c 0
 206 231 174 250 164 250 c 0
 154 250 122 231 122 208 c 0
 122 185 154 166 164 166 c 0
164 83 m 0
 174 83 206 102 206 125 c 0
 206 148 174 167 164 167 c 0
 154 167 122 148 122 125 c 0
 122 102 154 83 164 83 c 0
91 0 m 0
 101 0 133 19 133 42 c 0
 133 65 101 84 91 84 c 0
 81 84 49 65 49 42 c 0
 49 19 81 0 91 0 c 0
164 0 m 0
 174 0 206 19 206 42 c 0
 206 65 174 84 164 84 c 0
 154 84 122 65 122 42 c 0
 122 19 154 0 164 0 c 0
236 0 m 0
 246 0 278 19 278 42 c 0
 278 65 246 84 236 84 c 0
 226 84 194 65 194 42 c 0
 194 19 226 0 236 0 c 0
EndSplineSet
EndChar

StartChar: m
Encoding: 109 109 77
Width: 364
Flags: HW
LayerCount: 2
Back
Fore
SplineSet
55 333 m 0
 65 333 97 352 97 375 c 0
 97 398 65 417 55 417 c 0
 45 417 13 398 13 375 c 0
 13 352 45 333 55 333 c 0
127 333 m 0
 137 333 169 352 169 375 c 0
 169 398 137 417 127 417 c 0
 117 417 85 398 85 375 c 0
 85 352 117 333 127 333 c 0
200 333 m 0
 210 333 242 352 242 375 c 0
 242 398 210 417 200 417 c 0
 190 417 158 398 158 375 c 0
 158 352 190 333 200 333 c 0
55 250 m 0
 65 250 97 269 97 292 c 0
 97 315 65 334 55 334 c 0
 45 334 13 315 13 292 c 0
 13 269 45 250 55 250 c 0
164 250 m 0
 174 250 206 269 206 292 c 0
 206 315 174 334 164 334 c 0
 154 334 122 315 122 292 c 0
 122 269 154 250 164 250 c 0
273 250 m 0
 283 250 315 269 315 292 c 0
 315 315 283 334 273 334 c 0
 263 334 231 315 231 292 c 0
 231 269 263 250 273 250 c 0
55 166 m 0
 65 166 97 185 97 208 c 0
 97 231 65 250 55 250 c 0
 45 250 13 231 13 208 c 0
 13 185 45 166 55 166 c 0
164 166 m 0
 174 166 206 185 206 208 c 0
 206 231 174 250 164 250 c 0
 154 250 122 231 122 208 c 0
 122 185 154 166 164 166 c 0
273 166 m 0
 283 166 315 185 315 208 c 0
 315 231 283 250 273 250 c 0
 263 250 231 231 231 208 c 0
 231 185 263 166 273 166 c 0
55 83 m 0
 65 83 97 102 97 125 c 0
 97 148 65 167 55 167 c 0
 45 167 13 148 13 125 c 0
 13 102 45 83 55 83 c 0
164 83 m 0
 174 83 206 102 206 125 c 0
 206 148 174 167 164 167 c 0
 154 167 122 148 122 125 c 0
 122 102 154 83 164 83 c 0
273 83 m 0
 283 83 315 102 315 125 c 0
 315 148 283 167 273 167 c 0
 263 167 231 148 231 125 c 0
 231 102 263 83 273 83 c 0
55 0 m 0
 65 0 97 19 97 42 c 0
 97 65 65 84 55 84 c 0
 45 84 13 65 13 42 c 0
 13 19 45 0 55 0 c 0
164 0 m 0
 174 0 206 19 206 42 c 0
 206 65 174 84 164 84 c 0
 154 84 122 65 122 42 c 0
 122 19 154 0 164 0 c 0
273 0 m 0
 283 0 315 19 315 42 c 0
 315 65 283 84 273 84 c 0
 263 84 231 65 231 42 c 0
 231 19 263 0 273 0 c 0
EndSplineSet
EndChar

StartChar: n
Encoding: 110 110 78
Width: 364
Flags: HW
LayerCount: 2
Back
Fore
SplineSet
55 333 m 0
 65 333 97 352 97 375 c 0
 97 398 65 417 55 417 c 0
 45 417 13 398 13 375 c 0
 13 352 45 333 55 333 c 0
127 333 m 0
 137 333 169 352 169 375 c 0
 169 398 137 417 127 417 c 0
 117 417 85 398 85 375 c 0
 85 352 117 333 127 333 c 0
200 333 m 0
 210 333 242 352 242 375 c 0
 242 398 210 417 200 417 c 0
 190 417 158 398 158 375 c 0
 158 352 190 333 200 333 c 0
55 250 m 0
 65 250 97 269 97 292 c 0
 97 315 65 334 55 334 c 0
 45 334 13 315 13 292 c 0
 13 269 45 250 55 250 c 0
273 250 m 0
 283 250 315 269 315 292 c 0
 315 315 283 334 273 334 c 0
 263 334 231 315 231 292 c 0
 231 269 263 250 273 250 c 0
55 166 m 0
 65 166 97 185 97 208 c 0
 97 231 65 250 55 250 c 0
 45 250 13 231 13 208 c 0
 13 185 45 166 55 166 c 0
273 166 m 0
 283 166 315 185 315 208 c 0
 315 231 283 250 273 250 c 0
 263 250 231 231 231 208 c 0
 231 185 263 166 273 166 c 0
55 83 m 0
 65 83 97 102 97 125 c 0
 97 148 65 167 55 167 c 0
 45 167 13 148 13 125 c 0
 13 102 45 83 55 83 c 0
273 83 m 0
 283 83 315 102 315 125 c 0
 315 148 283 167 273 167 c 0
 263 167 231 148 231 125 c 0
 231 102 263 83 273 83 c 0
55 0 m 0
 65 0 97 19 97 42 c 0
 97 65 65 84 55 84 c 0
 45 84 13 65 13 42 c 0
 13 19 45 0 55 0 c 0
273 0 m 0
 283 0 315 19 315 42 c 0
 315 65 283 84 273 84 c 0
 263 84 231 65 231 42 c 0
 231 19 263 0 273 0 c 0
EndSplineSet
EndChar

StartChar: o
Encoding: 111 111 79
Width: 364
Flags: HW
LayerCount: 2
Back
Fore
SplineSet
91 333 m 0
 101 333 133 352 133 375 c 0
 133 398 101 417 91 417 c 0
 81 417 49 398 49 375 c 0
 49 352 81 333 91 333 c 0
164 333 m 0
 174 333 206 352 206 375 c 0
 206 398 174 417 164 417 c 0
 154 417 122 398 122 375 c 0
 122 352 154 333 164 333 c 0
236 333 m 0
 246 333 278 352 278 375 c 0
 278 398 246 417 236 417 c 0
 226 417 194 398 194 375 c 0
 194 352 226 333 236 333 c 0
55 250 m 0
 65 250 97 269 97 292 c 0
 97 315 65 334 55 334 c 0
 45 334 13 315 13 292 c 0
 13 269 45 250 55 250 c 0
273 250 m 0
 283 250 315 269 315 292 c 0
 315 315 283 334 273 334 c 0
 263 334 231 315 231 292 c 0
 231 269 263 250 273 250 c 0
55 166 m 0
 65 166 97 185 97 208 c 0
 97 231 65 250 55 250 c 0
 45 250 13 231 13 208 c 0
 13 185 45 166 55 166 c 0
273 166 m 0
 283 166 315 185 315 208 c 0
 315 231 283 250 273 250 c 0
 263 250 231 231 231 208 c 0
 231 185 263 166 273 166 c 0
55 83 m 0
 65 83 97 102 97 125 c 0
 97 148 65 167 55 167 c 0
 45 167 13 148 13 125 c 0
 13 102 45 83 55 83 c 0
273 83 m 0
 283 83 315 102 315 125 c 0
 315 148 283 167 273 167 c 0
 263 167 231 148 231 125 c 0
 231 102 263 83 273 83 c 0
91 0 m 0
 101 0 133 19 133 42 c 0
 133 65 101 84 91 84 c 0
 81 84 49 65 49 42 c 0
 49 19 81 0 91 0 c 0
164 0 m 0
 174 0 206 19 206 42 c 0
 206 65 174 84 164 84 c 0
 154 84 122 65 122 42 c 0
 122 19 154 0 164 0 c 0
236 0 m 0
 246 0 278 19 278 42 c 0
 278 65 246 84 236 84 c 0
 226 84 194 65 194 42 c 0
 194 19 226 0 236 0 c 0
EndSplineSet
EndChar

StartChar: p
Encoding: 112 112 80
Width: 364
Flags: HW
LayerCount: 2
Back
Fore
SplineSet
55 333 m 0
 65 333 97 352 97 375 c 0
 97 398 65 417 55 417 c 0
 45 417 13 398 13 375 c 0
 13 352 45 333 55 333 c 0
127 333 m 0
 137 333 169 352 169 375 c 0
 169 398 137 417 127 417 c 0
 117 417 85 398 85 375 c 0
 85 352 117 333 127 333 c 0
200 333 m 0
 210 333 242 352 242 375 c 0
 242 398 210 417 200 417 c 0
 190 417 158 398 158 375 c 0
 158 352 190 333 200 333 c 0
55 250 m 0
 65 250 97 269 97 292 c 0
 97 315 65 334 55 334 c 0
 45 334 13 315 13 292 c 0
 13 269 45 250 55 250 c 0
273 250 m 0
 283 250 315 269 315 292 c 0
 315 315 283 334 273 334 c 0
 263 334 231 315 231 292 c 0
 231 269 263 250 273 250 c 0
55 166 m 0
 65 166 97 185 97 208 c 0
 97 231 65 250 55 250 c 0
 45 250 13 231 13 208 c 0
 13 185 45 166 55 166 c 0
127 166 m 0
 137 166 169 185 169 208 c 0
 169 231 137 250 127 250 c 0
 117 250 85 231 85 208 c 0
 85 185 117 166 127 166 c 0
200 166 m 0
 210 166 242 185 242 208 c 0
 242 231 210 250 200 250 c 0
 190 250 158 231 158 208 c 0
 158 185 190 166 200 166 c 0
55 83 m 0
 65 83 97 102 97 125 c 0
 97 148 65 167 55 167 c 0
 45 167 13 148 13 125 c 0
 13 102 45 83 55 83 c 0
55 0 m 0
 65 0 97 19 97 42 c 0
 97 65 65 84 55 84 c 0
 45 84 13 65 13 42 c 0
 13 19 45 0 55 0 c 0
EndSplineSet
EndChar

StartChar: q
Encoding: 113 113 81
Width: 364
Flags: HW
LayerCount: 2
Back
Fore
SplineSet
91 333 m 0
 101 333 133 352 133 375 c 0
 133 398 101 417 91 417 c 0
 81 417 49 398 49 375 c 0
 49 352 81 333 91 333 c 0
164 333 m 0
 174 333 206 352 206 375 c 0
 206 398 174 417 164 417 c 0
 154 417 122 398 122 375 c 0
 122 352 154 333 164 333 c 0
236 333 m 0
 246 333 278 352 278 375 c 0
 278 398 246 417 236 417 c 0
 226 417 194 398 194 375 c 0
 194 352 226 333 236 333 c 0
55 250 m 0
 65 250 97 269 97 292 c 0
 97 315 65 334 55 334 c 0
 45 334 13 315 13 292 c 0
 13 269 45 250 55 250 c 0
273 250 m 0
 283 250 315 269 315 292 c 0
 315 315 283 334 273 334 c 0
 263 334 231 315 231 292 c 0
 231 269 263 250 273 250 c 0
55 166 m 0
 65 166 97 185 97 208 c 0
 97 231 65 250 55 250 c 0
 45 250 13 231 13 208 c 0
 13 185 45 166 55 166 c 0
200 166 m 0
 210 166 242 185 242 208 c 0
 242 231 210 250 200 250 c 0
 190 250 158 231 158 208 c 0
 158 185 190 166 200 166 c 0
273 166 m 0
 283 166 315 185 315 208 c 0
 315 231 283 250 273 250 c 0
 263 250 231 231 231 208 c 0
 231 185 263 166 273 166 c 0
55 83 m 0
 65 83 97 102 97 125 c 0
 97 148 65 167 55 167 c 0
 45 167 13 148 13 125 c 0
 13 102 45 83 55 83 c 0
236 83 m 0
 246 83 278 102 278 125 c 0
 278 148 246 167 236 167 c 0
 226 167 194 148 194 125 c 0
 194 102 226 83 236 83 c 0
91 0 m 0
 101 0 133 19 133 42 c 0
 133 65 101 84 91 84 c 0
 81 84 49 65 49 42 c 0
 49 19 81 0 91 0 c 0
164 0 m 0
 174 0 206 19 206 42 c 0
 206 65 174 84 164 84 c 0
 154 84 122 65 122 42 c 0
 122 19 154 0 164 0 c 0
273 0 m 0
 283 0 315 19 315 42 c 0
 315 65 283 84 273 84 c 0
 263 84 231 65 231 42 c 0
 231 19 263 0 273 0 c 0
EndSplineSet
EndChar

StartChar: r
Encoding: 114 114 82
Width: 364
Flags: HW
LayerCount: 2
Back
Fore
SplineSet
91 333 m 0
 101 333 133 352 133 375 c 0
 133 398 101 417 91 417 c 0
 81 417 49 398 49 375 c 0
 49 352 81 333 91 333 c 0
164 333 m 0
 174 333 206 352 206 375 c 0
 206 398 174 417 164 417 c 0
 154 417 122 398 122 375 c 0
 122 352 154 333 164 333 c 0
236 333 m 0
 246 333 278 352 278 375 c 0
 278 398 246 417 236 417 c 0
 226 417 194 398 194 375 c 0
 194 352 226 333 236 333 c 0
127 250 m 0
 137 250 169 269 169 292 c 0
 169 315 137 334 127 334 c 0
 117 334 85 315 85 292 c 0
 85 269 117 250 127 250 c 0
273 250 m 0
 283 250 315 269 315 292 c 0
 315 315 283 334 273 334 c 0
 263 334 231 315 231 292 c 0
 231 269 263 250 273 250 c 0
127 166 m 0
 137 166 169 185 169 208 c 0
 169 231 137 250 127 250 c 0
 117 250 85 231 85 208 c 0
 85 185 117 166 127 166 c 0
127 83 m 0
 137 83 169 102 169 125 c 0
 169 148 137 167 127 167 c 0
 117 167 85 148 85 125 c 0
 85 102 117 83 127 83 c 0
127 0 m 0
 137 0 169 19 169 42 c 0
 169 65 137 84 127 84 c 0
 117 84 85 65 85 42 c 0
 85 19 117 0 127 0 c 0
EndSplineSet
EndChar

StartChar: s
Encoding: 115 115 83
Width: 364
Flags: HW
LayerCount: 2
Back
Fore
SplineSet
91 333 m 0
 101 333 133 352 133 375 c 0
 133 398 101 417 91 417 c 0
 81 417 49 398 49 375 c 0
 49 352 81 333 91 333 c 0
164 333 m 0
 174 333 206 352 206 375 c 0
 206 398 174 417 164 417 c 0
 154 417 122 398 122 375 c 0
 122 352 154 333 164 333 c 0
236 333 m 0
 246 333 278 352 278 375 c 0
 278 398 246 417 236 417 c 0
 226 417 194 398 194 375 c 0
 194 352 226 333 236 333 c 0
55 250 m 0
 65 250 97 269 97 292 c 0
 97 315 65 334 55 334 c 0
 45 334 13 315 13 292 c 0
 13 269 45 250 55 250 c 0
91 166 m 0
 101 166 133 185 133 208 c 0
 133 231 101 250 91 250 c 0
 81 250 49 231 49 208 c 0
 49 185 81 166 91 166 c 0
164 166 m 0
 174 166 206 185 206 208 c 0
 206 231 174 250 164 250 c 0
 154 250 122 231 122 208 c 0
 122 185 154 166 164 166 c 0
236 166 m 0
 246 166 278 185 278 208 c 0
 278 231 246 250 236 250 c 0
 226 250 194 231 194 208 c 0
 194 185 226 166 236 166 c 0
273 83 m 0
 283 83 315 102 315 125 c 0
 315 148 283 167 273 167 c 0
 263 167 231 148 231 125 c 0
 231 102 263 83 273 83 c 0
91 0 m 0
 101 0 133 19 133 42 c 0
 133 65 101 84 91 84 c 0
 81 84 49 65 49 42 c 0
 49 19 81 0 91 0 c 0
164 0 m 0
 174 0 206 19 206 42 c 0
 206 65 174 84 164 84 c 0
 154 84 122 65 122 42 c 0
 122 19 154 0 164 0 c 0
236 0 m 0
 246 0 278 19 278 42 c 0
 278 65 246 84 236 84 c 0
 226 84 194 65 194 42 c 0
 194 19 226 0 236 0 c 0
EndSplineSet
EndChar

StartChar: t
Encoding: 116 116 84
Width: 364
Flags: HW
LayerCount: 2
Back
Fore
SplineSet
127 500 m 0
 137 500 169 519 169 542 c 0
 169 565 137 584 127 584 c 0
 117 584 85 565 85 542 c 0
 85 519 117 500 127 500 c 0
127 416 m 0
 137 416 169 435 169 458 c 0
 169 481 137 500 127 500 c 0
 117 500 85 481 85 458 c 0
 85 435 117 416 127 416 c 0
55 333 m 0
 65 333 97 352 97 375 c 0
 97 398 65 417 55 417 c 0
 45 417 13 398 13 375 c 0
 13 352 45 333 55 333 c 0
127 333 m 0
 137 333 169 352 169 375 c 0
 169 398 137 417 127 417 c 0
 117 417 85 398 85 375 c 0
 85 352 117 333 127 333 c 0
200 333 m 0
 210 333 242 352 242 375 c 0
 242 398 210 417 200 417 c 0
 190 417 158 398 158 375 c 0
 158 352 190 333 200 333 c 0
127 250 m 0
 137 250 169 269 169 292 c 0
 169 315 137 334 127 334 c 0
 117 334 85 315 85 292 c 0
 85 269 117 250 127 250 c 0
127 166 m 0
 137 166 169 185 169 208 c 0
 169 231 137 250 127 250 c 0
 117 250 85 231 85 208 c 0
 85 185 117 166 127 166 c 0
127 83 m 0
 137 83 169 102 169 125 c 0
 169 148 137 167 127 167 c 0
 117 167 85 148 85 125 c 0
 85 102 117 83 127 83 c 0
273 83 m 0
 283 83 315 102 315 125 c 0
 315 148 283 167 273 167 c 0
 263 167 231 148 231 125 c 0
 231 102 263 83 273 83 c 0
164 0 m 0
 174 0 206 19 206 42 c 0
 206 65 174 84 164 84 c 0
 154 84 122 65 122 42 c 0
 122 19 154 0 164 0 c 0
236 0 m 0
 246 0 278 19 278 42 c 0
 278 65 246 84 236 84 c 0
 226 84 194 65 194 42 c 0
 194 19 226 0 236 0 c 0
EndSplineSet
EndChar

StartChar: u
Encoding: 117 117 85
Width: 364
Flags: HW
LayerCount: 2
Back
Fore
SplineSet
55 333 m 0
 65 333 97 352 97 375 c 0
 97 398 65 417 55 417 c 0
 45 417 13 398 13 375 c 0
 13 352 45 333 55 333 c 0
273 333 m 0
 283 333 315 352 315 375 c 0
 315 398 283 417 273 417 c 0
 263 417 231 398 231 375 c 0
 231 352 263 333 273 333 c 0
55 250 m 0
 65 250 97 269 97 292 c 0
 97 315 65 334 55 334 c 0
 45 334 13 315 13 292 c 0
 13 269 45 250 55 250 c 0
273 250 m 0
 283 250 315 269 315 292 c 0
 315 315 283 334 273 334 c 0
 263 334 231 315 231 292 c 0
 231 269 263 250 273 250 c 0
55 166 m 0
 65 166 97 185 97 208 c 0
 97 231 65 250 55 250 c 0
 45 250 13 231 13 208 c 0
 13 185 45 166 55 166 c 0
273 166 m 0
 283 166 315 185 315 208 c 0
 315 231 283 250 273 250 c 0
 263 250 231 231 231 208 c 0
 231 185 263 166 273 166 c 0
55 83 m 0
 65 83 97 102 97 125 c 0
 97 148 65 167 55 167 c 0
 45 167 13 148 13 125 c 0
 13 102 45 83 55 83 c 0
273 83 m 0
 283 83 315 102 315 125 c 0
 315 148 283 167 273 167 c 0
 263 167 231 148 231 125 c 0
 231 102 263 83 273 83 c 0
127 0 m 0
 137 0 169 19 169 42 c 0
 169 65 137 84 127 84 c 0
 117 84 85 65 85 42 c 0
 85 19 117 0 127 0 c 0
200 0 m 0
 210 0 242 19 242 42 c 0
 242 65 210 84 200 84 c 0
 190 84 158 65 158 42 c 0
 158 19 190 0 200 0 c 0
273 0 m 0
 283 0 315 19 315 42 c 0
 315 65 283 84 273 84 c 0
 263 84 231 65 231 42 c 0
 231 19 263 0 273 0 c 0
EndSplineSet
EndChar

StartChar: v
Encoding: 118 118 86
Width: 364
Flags: HW
LayerCount: 2
Back
Fore
SplineSet
55 333 m 0
 65 333 97 352 97 375 c 0
 97 398 65 417 55 417 c 0
 45 417 13 398 13 375 c 0
 13 352 45 333 55 333 c 0
273 333 m 0
 283 333 315 352 315 375 c 0
 315 398 283 417 273 417 c 0
 263 417 231 398 231 375 c 0
 231 352 263 333 273 333 c 0
55 250 m 0
 65 250 97 269 97 292 c 0
 97 315 65 334 55 334 c 0
 45 334 13 315 13 292 c 0
 13 269 45 250 55 250 c 0
273 250 m 0
 283 250 315 269 315 292 c 0
 315 315 283 334 273 334 c 0
 263 334 231 315 231 292 c 0
 231 269 263 250 273 250 c 0
91 166 m 0
 101 166 133 185 133 208 c 0
 133 231 101 250 91 250 c 0
 81 250 49 231 49 208 c 0
 49 185 81 166 91 166 c 0
236 166 m 0
 246 166 278 185 278 208 c 0
 278 231 246 250 236 250 c 0
 226 250 194 231 194 208 c 0
 194 185 226 166 236 166 c 0
127 83 m 0
 137 83 169 102 169 125 c 0
 169 148 137 167 127 167 c 0
 117 167 85 148 85 125 c 0
 85 102 117 83 127 83 c 0
200 83 m 0
 210 83 242 102 242 125 c 0
 242 148 210 167 200 167 c 0
 190 167 158 148 158 125 c 0
 158 102 190 83 200 83 c 0
164 0 m 0
 174 0 206 19 206 42 c 0
 206 65 174 84 164 84 c 0
 154 84 122 65 122 42 c 0
 122 19 154 0 164 0 c 0
EndSplineSet
EndChar

StartChar: w
Encoding: 119 119 87
Width: 364
Flags: HW
LayerCount: 2
Back
Fore
SplineSet
55 333 m 0
 65 333 97 352 97 375 c 0
 97 398 65 417 55 417 c 0
 45 417 13 398 13 375 c 0
 13 352 45 333 55 333 c 0
273 333 m 0
 283 333 315 352 315 375 c 0
 315 398 283 417 273 417 c 0
 263 417 231 398 231 375 c 0
 231 352 263 333 273 333 c 0
55 250 m 0
 65 250 97 269 97 292 c 0
 97 315 65 334 55 334 c 0
 45 334 13 315 13 292 c 0
 13 269 45 250 55 250 c 0
273 250 m 0
 283 250 315 269 315 292 c 0
 315 315 283 334 273 334 c 0
 263 334 231 315 231 292 c 0
 231 269 263 250 273 250 c 0
55 166 m 0
 65 166 97 185 97 208 c 0
 97 231 65 250 55 250 c 0
 45 250 13 231 13 208 c 0
 13 185 45 166 55 166 c 0
164 166 m 0
 174 166 206 185 206 208 c 0
 206 231 174 250 164 250 c 0
 154 250 122 231 122 208 c 0
 122 185 154 166 164 166 c 0
273 166 m 0
 283 166 315 185 315 208 c 0
 315 231 283 250 273 250 c 0
 263 250 231 231 231 208 c 0
 231 185 263 166 273 166 c 0
55 83 m 0
 65 83 97 102 97 125 c 0
 97 148 65 167 55 167 c 0
 45 167 13 148 13 125 c 0
 13 102 45 83 55 83 c 0
127 83 m 0
 137 83 169 102 169 125 c 0
 169 148 137 167 127 167 c 0
 117 167 85 148 85 125 c 0
 85 102 117 83 127 83 c 0
200 83 m 0
 210 83 242 102 242 125 c 0
 242 148 210 167 200 167 c 0
 190 167 158 148 158 125 c 0
 158 102 190 83 200 83 c 0
273 83 m 0
 283 83 315 102 315 125 c 0
 315 148 283 167 273 167 c 0
 263 167 231 148 231 125 c 0
 231 102 263 83 273 83 c 0
91 0 m 0
 101 0 133 19 133 42 c 0
 133 65 101 84 91 84 c 0
 81 84 49 65 49 42 c 0
 49 19 81 0 91 0 c 0
236 0 m 0
 246 0 278 19 278 42 c 0
 278 65 246 84 236 84 c 0
 226 84 194 65 194 42 c 0
 194 19 226 0 236 0 c 0
EndSplineSet
EndChar

StartChar: x
Encoding: 120 120 88
Width: 364
Flags: HW
LayerCount: 2
Back
Fore
SplineSet
55 333 m 0
 65 333 97 352 97 375 c 0
 97 398 65 417 55 417 c 0
 45 417 13 398 13 375 c 0
 13 352 45 333 55 333 c 0
273 333 m 0
 283 333 315 352 315 375 c 0
 315 398 283 417 273 417 c 0
 263 417 231 398 231 375 c 0
 231 352 263 333 273 333 c 0
91 250 m 0
 101 250 133 269 133 292 c 0
 133 315 101 334 91 334 c 0
 81 334 49 315 49 292 c 0
 49 269 81 250 91 250 c 0
236 250 m 0
 246 250 278 269 278 292 c 0
 278 315 246 334 236 334 c 0
 226 334 194 315 194 292 c 0
 194 269 226 250 236 250 c 0
164 166 m 0
 174 166 206 185 206 208 c 0
 206 231 174 250 164 250 c 0
 154 250 122 231 122 208 c 0
 122 185 154 166 164 166 c 0
91 83 m 0
 101 83 133 102 133 125 c 0
 133 148 101 167 91 167 c 0
 81 167 49 148 49 125 c 0
 49 102 81 83 91 83 c 0
236 83 m 0
 246 83 278 102 278 125 c 0
 278 148 246 167 236 167 c 0
 226 167 194 148 194 125 c 0
 194 102 226 83 236 83 c 0
55 0 m 0
 65 0 97 19 97 42 c 0
 97 65 65 84 55 84 c 0
 45 84 13 65 13 42 c 0
 13 19 45 0 55 0 c 0
273 0 m 0
 283 0 315 19 315 42 c 0
 315 65 283 84 273 84 c 0
 263 84 231 65 231 42 c 0
 231 19 263 0 273 0 c 0
EndSplineSet
EndChar

StartChar: y
Encoding: 121 121 89
Width: 364
Flags: HW
LayerCount: 2
Back
Fore
SplineSet
55 333 m 0
 65 333 97 352 97 375 c 0
 97 398 65 417 55 417 c 0
 45 417 13 398 13 375 c 0
 13 352 45 333 55 333 c 0
273 333 m 0
 283 333 315 352 315 375 c 0
 315 398 283 417 273 417 c 0
 263 417 231 398 231 375 c 0
 231 352 263 333 273 333 c 0
55 250 m 0
 65 250 97 269 97 292 c 0
 97 315 65 334 55 334 c 0
 45 334 13 315 13 292 c 0
 13 269 45 250 55 250 c 0
273 250 m 0
 283 250 315 269 315 292 c 0
 315 315 283 334 273 334 c 0
 263 334 231 315 231 292 c 0
 231 269 263 250 273 250 c 0
91 166 m 0
 101 166 133 185 133 208 c 0
 133 231 101 250 91 250 c 0
 81 250 49 231 49 208 c 0
 49 185 81 166 91 166 c 0
164 166 m 0
 174 166 206 185 206 208 c 0
 206 231 174 250 164 250 c 0
 154 250 122 231 122 208 c 0
 122 185 154 166 164 166 c 0
236 166 m 0
 246 166 278 185 278 208 c 0
 278 231 246 250 236 250 c 0
 226 250 194 231 194 208 c 0
 194 185 226 166 236 166 c 0
273 83 m 0
 283 83 315 102 315 125 c 0
 315 148 283 167 273 167 c 0
 263 167 231 148 231 125 c 0
 231 102 263 83 273 83 c 0
91 0 m 0
 101 0 133 19 133 42 c 0
 133 65 101 84 91 84 c 0
 81 84 49 65 49 42 c 0
 49 19 81 0 91 0 c 0
164 0 m 0
 174 0 206 19 206 42 c 0
 206 65 174 84 164 84 c 0
 154 84 122 65 122 42 c 0
 122 19 154 0 164 0 c 0
236 0 m 0
 246 0 278 19 278 42 c 0
 278 65 246 84 236 84 c 0
 226 84 194 65 194 42 c 0
 194 19 226 0 236 0 c 0
EndSplineSet
EndChar

StartChar: z
Encoding: 122 122 90
Width: 364
Flags: HW
LayerCount: 2
Back
Fore
SplineSet
55 333 m 0
 65 333 97 352 97 375 c 0
 97 398 65 417 55 417 c 0
 45 417 13 398 13 375 c 0
 13 352 45 333 55 333 c 0
127 333 m 0
 137 333 169 352 169 375 c 0
 169 398 137 417 127 417 c 0
 117 417 85 398 85 375 c 0
 85 352 117 333 127 333 c 0
200 333 m 0
 210 333 242 352 242 375 c 0
 242 398 210 417 200 417 c 0
 190 417 158 398 158 375 c 0
 158 352 190 333 200 333 c 0
273 333 m 0
 283 333 315 352 315 375 c 0
 315 398 283 417 273 417 c 0
 263 417 231 398 231 375 c 0
 231 352 263 333 273 333 c 0
236 250 m 0
 246 250 278 269 278 292 c 0
 278 315 246 334 236 334 c 0
 226 334 194 315 194 292 c 0
 194 269 226 250 236 250 c 0
164 166 m 0
 174 166 206 185 206 208 c 0
 206 231 174 250 164 250 c 0
 154 250 122 231 122 208 c 0
 122 185 154 166 164 166 c 0
91 83 m 0
 101 83 133 102 133 125 c 0
 133 148 101 167 91 167 c 0
 81 167 49 148 49 125 c 0
 49 102 81 83 91 83 c 0
55 0 m 0
 65 0 97 19 97 42 c 0
 97 65 65 84 55 84 c 0
 45 84 13 65 13 42 c 0
 13 19 45 0 55 0 c 0
127 0 m 0
 137 0 169 19 169 42 c 0
 169 65 137 84 127 84 c 0
 117 84 85 65 85 42 c 0
 85 19 117 0 127 0 c 0
200 0 m 0
 210 0 242 19 242 42 c 0
 242 65 210 84 200 84 c 0
 190 84 158 65 158 42 c 0
 158 19 190 0 200 0 c 0
273 0 m 0
 283 0 315 19 315 42 c 0
 315 65 283 84 273 84 c 0
 263 84 231 65 231 42 c 0
 231 19 263 0 273 0 c 0
EndSplineSet
EndChar

StartChar: braceleft
Encoding: 123 123 91
Width: 364
Flags: HW
LayerCount: 2
Back
Fore
SplineSet
200 500 m 0
 210 500 242 519 242 542 c 0
 242 565 210 584 200 584 c 0
 190 584 158 565 158 542 c 0
 158 519 190 500 200 500 c 0
273 500 m 0
 283 500 315 519 315 542 c 0
 315 565 283 584 273 584 c 0
 263 584 231 565 231 542 c 0
 231 519 263 500 273 500 c 0
164 416 m 0
 174 416 206 435 206 458 c 0
 206 481 174 500 164 500 c 0
 154 500 122 481 122 458 c 0
 122 435 154 416 164 416 c 0
164 333 m 0
 174 333 206 352 206 375 c 0
 206 398 174 417 164 417 c 0
 154 417 122 398 122 375 c 0
 122 352 154 333 164 333 c 0
55 250 m 0
 65 250 97 269 97 292 c 0
 97 315 65 334 55 334 c 0
 45 334 13 315 13 292 c 0
 13 269 45 250 55 250 c 0
127 250 m 0
 137 250 169 269 169 292 c 0
 169 315 137 334 127 334 c 0
 117 334 85 315 85 292 c 0
 85 269 117 250 127 250 c 0
164 166 m 0
 174 166 206 185 206 208 c 0
 206 231 174 250 164 250 c 0
 154 250 122 231 122 208 c 0
 122 185 154 166 164 166 c 0
164 83 m 0
 174 83 206 102 206 125 c 0
 206 148 174 167 164 167 c 0
 154 167 122 148 122 125 c 0
 122 102 154 83 164 83 c 0
200 0 m 0
 210 0 242 19 242 42 c 0
 242 65 210 84 200 84 c 0
 190 84 158 65 158 42 c 0
 158 19 190 0 200 0 c 0
273 0 m 0
 283 0 315 19 315 42 c 0
 315 65 283 84 273 84 c 0
 263 84 231 65 231 42 c 0
 231 19 263 0 273 0 c 0
EndSplineSet
EndChar

StartChar: bar
Encoding: 124 124 92
Width: 364
Flags: HW
LayerCount: 2
Back
Fore
SplineSet
164 500 m 0
 174 500 206 519 206 542 c 0
 206 565 174 584 164 584 c 0
 154 584 122 565 122 542 c 0
 122 519 154 500 164 500 c 0
164 416 m 0
 174 416 206 435 206 458 c 0
 206 481 174 500 164 500 c 0
 154 500 122 481 122 458 c 0
 122 435 154 416 164 416 c 0
164 333 m 0
 174 333 206 352 206 375 c 0
 206 398 174 417 164 417 c 0
 154 417 122 398 122 375 c 0
 122 352 154 333 164 333 c 0
164 250 m 0
 174 250 206 269 206 292 c 0
 206 315 174 334 164 334 c 0
 154 334 122 315 122 292 c 0
 122 269 154 250 164 250 c 0
164 166 m 0
 174 166 206 185 206 208 c 0
 206 231 174 250 164 250 c 0
 154 250 122 231 122 208 c 0
 122 185 154 166 164 166 c 0
164 83 m 0
 174 83 206 102 206 125 c 0
 206 148 174 167 164 167 c 0
 154 167 122 148 122 125 c 0
 122 102 154 83 164 83 c 0
164 0 m 0
 174 0 206 19 206 42 c 0
 206 65 174 84 164 84 c 0
 154 84 122 65 122 42 c 0
 122 19 154 0 164 0 c 0
EndSplineSet
EndChar

StartChar: braceright
Encoding: 125 125 93
Width: 364
Flags: HW
LayerCount: 2
Back
Fore
SplineSet
55 500 m 0
 65 500 97 519 97 542 c 0
 97 565 65 584 55 584 c 0
 45 584 13 565 13 542 c 0
 13 519 45 500 55 500 c 0
127 500 m 0
 137 500 169 519 169 542 c 0
 169 565 137 584 127 584 c 0
 117 584 85 565 85 542 c 0
 85 519 117 500 127 500 c 0
164 416 m 0
 174 416 206 435 206 458 c 0
 206 481 174 500 164 500 c 0
 154 500 122 481 122 458 c 0
 122 435 154 416 164 416 c 0
164 333 m 0
 174 333 206 352 206 375 c 0
 206 398 174 417 164 417 c 0
 154 417 122 398 122 375 c 0
 122 352 154 333 164 333 c 0
200 250 m 0
 210 250 242 269 242 292 c 0
 242 315 210 334 200 334 c 0
 190 334 158 315 158 292 c 0
 158 269 190 250 200 250 c 0
273 250 m 0
 283 250 315 269 315 292 c 0
 315 315 283 334 273 334 c 0
 263 334 231 315 231 292 c 0
 231 269 263 250 273 250 c 0
164 166 m 0
 174 166 206 185 206 208 c 0
 206 231 174 250 164 250 c 0
 154 250 122 231 122 208 c 0
 122 185 154 166 164 166 c 0
164 83 m 0
 174 83 206 102 206 125 c 0
 206 148 174 167 164 167 c 0
 154 167 122 148 122 125 c 0
 122 102 154 83 164 83 c 0
55 0 m 0
 65 0 97 19 97 42 c 0
 97 65 65 84 55 84 c 0
 45 84 13 65 13 42 c 0
 13 19 45 0 55 0 c 0
127 0 m 0
 137 0 169 19 169 42 c 0
 169 65 137 84 127 84 c 0
 117 84 85 65 85 42 c 0
 85 19 117 0 127 0 c 0
EndSplineSet
EndChar

StartChar: asciitilde
Encoding: 126 126 94
Width: 364
Flags: HW
LayerCount: 2
Back
Fore
SplineSet
127 500 m 0
 137 500 169 519 169 542 c 0
 169 565 137 584 127 584 c 0
 117 584 85 565 85 542 c 0
 85 519 117 500 127 500 c 0
273 500 m 0
 283 500 315 519 315 542 c 0
 315 565 283 584 273 584 c 0
 263 584 231 565 231 542 c 0
 231 519 263 500 273 500 c 0
91 416 m 0
 101 416 133 435 133 458 c 0
 133 481 101 500 91 500 c 0
 81 500 49 481 49 458 c 0
 49 435 81 416 91 416 c 0
164 416 m 0
 174 416 206 435 206 458 c 0
 206 481 174 500 164 500 c 0
 154 500 122 481 122 458 c 0
 122 435 154 416 164 416 c 0
236 416 m 0
 246 416 278 435 278 458 c 0
 278 481 246 500 236 500 c 0
 226 500 194 481 194 458 c 0
 194 435 226 416 236 416 c 0
55 333 m 0
 65 333 97 352 97 375 c 0
 97 398 65 417 55 417 c 0
 45 417 13 398 13 375 c 0
 13 352 45 333 55 333 c 0
200 333 m 0
 210 333 242 352 242 375 c 0
 242 398 210 417 200 417 c 0
 190 417 158 398 158 375 c 0
 158 352 190 333 200 333 c 0
EndSplineSet
EndChar

StartChar: registered
Encoding: 174 174 95
Width: 364
Flags: HW
LayerCount: 2
Back
Fore
SplineSet
164 500 m 0
 174 500 206 519 206 542 c 0
 206 565 174 584 164 584 c 0
 154 584 122 565 122 542 c 0
 122 519 154 500 164 500 c 0
236 500 m 0
 246 500 278 519 278 542 c 0
 278 565 246 584 236 584 c 0
 226 584 194 565 194 542 c 0
 194 519 226 500 236 500 c 0
127 416 m 0
 137 416 169 435 169 458 c 0
 169 481 137 500 127 500 c 0
 117 500 85 481 85 458 c 0
 85 435 117 416 127 416 c 0
273 416 m 0
 283 416 315 435 315 458 c 0
 315 481 283 500 273 500 c 0
 263 500 231 481 231 458 c 0
 231 435 263 416 273 416 c 0
127 333 m 0
 137 333 169 352 169 375 c 0
 169 398 137 417 127 417 c 0
 117 417 85 398 85 375 c 0
 85 352 117 333 127 333 c 0
55 250 m 0
 65 250 97 269 97 292 c 0
 97 315 65 334 55 334 c 0
 45 334 13 315 13 292 c 0
 13 269 45 250 55 250 c 0
127 250 m 0
 137 250 169 269 169 292 c 0
 169 315 137 334 127 334 c 0
 117 334 85 315 85 292 c 0
 85 269 117 250 127 250 c 0
200 250 m 0
 210 250 242 269 242 292 c 0
 242 315 210 334 200 334 c 0
 190 334 158 315 158 292 c 0
 158 269 190 250 200 250 c 0
127 166 m 0
 137 166 169 185 169 208 c 0
 169 231 137 250 127 250 c 0
 117 250 85 231 85 208 c 0
 85 185 117 166 127 166 c 0
127 83 m 0
 137 83 169 102 169 125 c 0
 169 148 137 167 127 167 c 0
 117 167 85 148 85 125 c 0
 85 102 117 83 127 83 c 0
55 0 m 0
 65 0 97 19 97 42 c 0
 97 65 65 84 55 84 c 0
 45 84 13 65 13 42 c 0
 13 19 45 0 55 0 c 0
127 0 m 0
 137 0 169 19 169 42 c 0
 169 65 137 84 127 84 c 0
 117 84 85 65 85 42 c 0
 85 19 117 0 127 0 c 0
200 0 m 0
 210 0 242 19 242 42 c 0
 242 65 210 84 200 84 c 0
 190 84 158 65 158 42 c 0
 158 19 190 0 200 0 c 0
273 0 m 0
 283 0 315 19 315 42 c 0
 315 65 283 84 273 84 c 0
 263 84 231 65 231 42 c 0
 231 19 263 0 273 0 c 0
EndSplineSet
EndChar

StartChar: Adieresis
Encoding: 196 196 96
Width: 364
Flags: HW
LayerCount: 2
Back
Fore
SplineSet
91 500 m 0
 101 500 133 519 133 542 c 0
 133 565 101 584 91 584 c 0
 81 584 49 565 49 542 c 0
 49 519 81 500 91 500 c 0
236 500 m 0
 246 500 278 519 278 542 c 0
 278 565 246 584 236 584 c 0
 226 584 194 565 194 542 c 0
 194 519 226 500 236 500 c 0
164 416 m 0
 174 416 206 435 206 458 c 0
 206 481 174 500 164 500 c 0
 154 500 122 481 122 458 c 0
 122 435 154 416 164 416 c 0
127 333 m 0
 137 333 169 352 169 375 c 0
 169 398 137 417 127 417 c 0
 117 417 85 398 85 375 c 0
 85 352 117 333 127 333 c 0
200 333 m 0
 210 333 242 352 242 375 c 0
 242 398 210 417 200 417 c 0
 190 417 158 398 158 375 c 0
 158 352 190 333 200 333 c 0
91 250 m 0
 101 250 133 269 133 292 c 0
 133 315 101 334 91 334 c 0
 81 334 49 315 49 292 c 0
 49 269 81 250 91 250 c 0
236 250 m 0
 246 250 278 269 278 292 c 0
 278 315 246 334 236 334 c 0
 226 334 194 315 194 292 c 0
 194 269 226 250 236 250 c 0
55 166 m 0
 65 166 97 185 97 208 c 0
 97 231 65 250 55 250 c 0
 45 250 13 231 13 208 c 0
 13 185 45 166 55 166 c 0
273 166 m 0
 283 166 315 185 315 208 c 0
 315 231 283 250 273 250 c 0
 263 250 231 231 231 208 c 0
 231 185 263 166 273 166 c 0
55 83 m 0
 65 83 97 102 97 125 c 0
 97 148 65 167 55 167 c 0
 45 167 13 148 13 125 c 0
 13 102 45 83 55 83 c 0
127 83 m 0
 137 83 169 102 169 125 c 0
 169 148 137 167 127 167 c 0
 117 167 85 148 85 125 c 0
 85 102 117 83 127 83 c 0
200 83 m 0
 210 83 242 102 242 125 c 0
 242 148 210 167 200 167 c 0
 190 167 158 148 158 125 c 0
 158 102 190 83 200 83 c 0
273 83 m 0
 283 83 315 102 315 125 c 0
 315 148 283 167 273 167 c 0
 263 167 231 148 231 125 c 0
 231 102 263 83 273 83 c 0
55 0 m 0
 65 0 97 19 97 42 c 0
 97 65 65 84 55 84 c 0
 45 84 13 65 13 42 c 0
 13 19 45 0 55 0 c 0
273 0 m 0
 283 0 315 19 315 42 c 0
 315 65 283 84 273 84 c 0
 263 84 231 65 231 42 c 0
 231 19 263 0 273 0 c 0
EndSplineSet
EndChar

StartChar: adieresis
Encoding: 228 228 97
Width: 364
Flags: HW
LayerCount: 2
Back
Fore
SplineSet
91 500 m 0
 101 500 133 519 133 542 c 0
 133 565 101 584 91 584 c 0
 81 584 49 565 49 542 c 0
 49 519 81 500 91 500 c 0
236 500 m 0
 246 500 278 519 278 542 c 0
 278 565 246 584 236 584 c 0
 226 584 194 565 194 542 c 0
 194 519 226 500 236 500 c 0
91 333 m 0
 101 333 133 352 133 375 c 0
 133 398 101 417 91 417 c 0
 81 417 49 398 49 375 c 0
 49 352 81 333 91 333 c 0
164 333 m 0
 174 333 206 352 206 375 c 0
 206 398 174 417 164 417 c 0
 154 417 122 398 122 375 c 0
 122 352 154 333 164 333 c 0
236 333 m 0
 246 333 278 352 278 375 c 0
 278 398 246 417 236 417 c 0
 226 417 194 398 194 375 c 0
 194 352 226 333 236 333 c 0
273 250 m 0
 283 250 315 269 315 292 c 0
 315 315 283 334 273 334 c 0
 263 334 231 315 231 292 c 0
 231 269 263 250 273 250 c 0
91 166 m 0
 101 166 133 185 133 208 c 0
 133 231 101 250 91 250 c 0
 81 250 49 231 49 208 c 0
 49 185 81 166 91 166 c 0
164 166 m 0
 174 166 206 185 206 208 c 0
 206 231 174 250 164 250 c 0
 154 250 122 231 122 208 c 0
 122 185 154 166 164 166 c 0
236 166 m 0
 246 166 278 185 278 208 c 0
 278 231 246 250 236 250 c 0
 226 250 194 231 194 208 c 0
 194 185 226 166 236 166 c 0
55 83 m 0
 65 83 97 102 97 125 c 0
 97 148 65 167 55 167 c 0
 45 167 13 148 13 125 c 0
 13 102 45 83 55 83 c 0
273 83 m 0
 283 83 315 102 315 125 c 0
 315 148 283 167 273 167 c 0
 263 167 231 148 231 125 c 0
 231 102 263 83 273 83 c 0
91 0 m 0
 101 0 133 19 133 42 c 0
 133 65 101 84 91 84 c 0
 81 84 49 65 49 42 c 0
 49 19 81 0 91 0 c 0
164 0 m 0
 174 0 206 19 206 42 c 0
 206 65 174 84 164 84 c 0
 154 84 122 65 122 42 c 0
 122 19 154 0 164 0 c 0
236 0 m 0
 246 0 278 19 278 42 c 0
 278 65 246 84 236 84 c 0
 226 84 194 65 194 42 c 0
 194 19 226 0 236 0 c 0
EndSplineSet
EndChar

StartChar: Aring
Encoding: 197 197 98
Width: 364
Flags: HW
LayerCount: 2
Back
Fore
SplineSet
164 500 m 0
 174 500 206 519 206 542 c 0
 206 565 174 584 164 584 c 0
 154 584 122 565 122 542 c 0
 122 519 154 500 164 500 c 0
127 416 m 0
 137 416 169 435 169 458 c 0
 169 481 137 500 127 500 c 0
 117 500 85 481 85 458 c 0
 85 435 117 416 127 416 c 0
200 416 m 0
 210 416 242 435 242 458 c 0
 242 481 210 500 200 500 c 0
 190 500 158 481 158 458 c 0
 158 435 190 416 200 416 c 0
164 333 m 0
 174 333 206 352 206 375 c 0
 206 398 174 417 164 417 c 0
 154 417 122 398 122 375 c 0
 122 352 154 333 164 333 c 0
127 250 m 0
 137 250 169 269 169 292 c 0
 169 315 137 334 127 334 c 0
 117 334 85 315 85 292 c 0
 85 269 117 250 127 250 c 0
200 250 m 0
 210 250 242 269 242 292 c 0
 242 315 210 334 200 334 c 0
 190 334 158 315 158 292 c 0
 158 269 190 250 200 250 c 0
91 166 m 0
 101 166 133 185 133 208 c 0
 133 231 101 250 91 250 c 0
 81 250 49 231 49 208 c 0
 49 185 81 166 91 166 c 0
236 166 m 0
 246 166 278 185 278 208 c 0
 278 231 246 250 236 250 c 0
 226 250 194 231 194 208 c 0
 194 185 226 166 236 166 c 0
55 83 m 0
 65 83 97 102 97 125 c 0
 97 148 65 167 55 167 c 0
 45 167 13 148 13 125 c 0
 13 102 45 83 55 83 c 0
127 83 m 0
 137 83 169 102 169 125 c 0
 169 148 137 167 127 167 c 0
 117 167 85 148 85 125 c 0
 85 102 117 83 127 83 c 0
200 83 m 0
 210 83 242 102 242 125 c 0
 242 148 210 167 200 167 c 0
 190 167 158 148 158 125 c 0
 158 102 190 83 200 83 c 0
273 83 m 0
 283 83 315 102 315 125 c 0
 315 148 283 167 273 167 c 0
 263 167 231 148 231 125 c 0
 231 102 263 83 273 83 c 0
55 0 m 0
 65 0 97 19 97 42 c 0
 97 65 65 84 55 84 c 0
 45 84 13 65 13 42 c 0
 13 19 45 0 55 0 c 0
273 0 m 0
 283 0 315 19 315 42 c 0
 315 65 283 84 273 84 c 0
 263 84 231 65 231 42 c 0
 231 19 263 0 273 0 c 0
EndSplineSet
EndChar

StartChar: aring
Encoding: 229 229 99
Width: 364
Flags: HW
LayerCount: 2
Back
Fore
SplineSet
164 500 m 0
 174 500 206 519 206 542 c 0
 206 565 174 584 164 584 c 0
 154 584 122 565 122 542 c 0
 122 519 154 500 164 500 c 0
127 416 m 0
 137 416 169 435 169 458 c 0
 169 481 137 500 127 500 c 0
 117 500 85 481 85 458 c 0
 85 435 117 416 127 416 c 0
200 416 m 0
 210 416 242 435 242 458 c 0
 242 481 210 500 200 500 c 0
 190 500 158 481 158 458 c 0
 158 435 190 416 200 416 c 0
164 333 m 0
 174 333 206 352 206 375 c 0
 206 398 174 417 164 417 c 0
 154 417 122 398 122 375 c 0
 122 352 154 333 164 333 c 0
91 250 m 0
 101 250 133 269 133 292 c 0
 133 315 101 334 91 334 c 0
 81 334 49 315 49 292 c 0
 49 269 81 250 91 250 c 0
164 250 m 0
 174 250 206 269 206 292 c 0
 206 315 174 334 164 334 c 0
 154 334 122 315 122 292 c 0
 122 269 154 250 164 250 c 0
236 250 m 0
 246 250 278 269 278 292 c 0
 278 315 246 334 236 334 c 0
 226 334 194 315 194 292 c 0
 194 269 226 250 236 250 c 0
55 166 m 0
 65 166 97 185 97 208 c 0
 97 231 65 250 55 250 c 0
 45 250 13 231 13 208 c 0
 13 185 45 166 55 166 c 0
236 166 m 0
 246 166 278 185 278 208 c 0
 278 231 246 250 236 250 c 0
 226 250 194 231 194 208 c 0
 194 185 226 166 236 166 c 0
55 83 m 0
 65 83 97 102 97 125 c 0
 97 148 65 167 55 167 c 0
 45 167 13 148 13 125 c 0
 13 102 45 83 55 83 c 0
236 83 m 0
 246 83 278 102 278 125 c 0
 278 148 246 167 236 167 c 0
 226 167 194 148 194 125 c 0
 194 102 226 83 236 83 c 0
91 0 m 0
 101 0 133 19 133 42 c 0
 133 65 101 84 91 84 c 0
 81 84 49 65 49 42 c 0
 49 19 81 0 91 0 c 0
164 0 m 0
 174 0 206 19 206 42 c 0
 206 65 174 84 164 84 c 0
 154 84 122 65 122 42 c 0
 122 19 154 0 164 0 c 0
273 0 m 0
 283 0 315 19 315 42 c 0
 315 65 283 84 273 84 c 0
 263 84 231 65 231 42 c 0
 231 19 263 0 273 0 c 0
EndSplineSet
EndChar

StartChar: Eacute
Encoding: 201 201 100
Width: 364
Flags: HW
LayerCount: 2
Back
Fore
SplineSet
200 500 m 0
 210 500 242 519 242 542 c 0
 242 565 210 584 200 584 c 0
 190 584 158 565 158 542 c 0
 158 519 190 500 200 500 c 0
164 416 m 0
 174 416 206 435 206 458 c 0
 206 481 174 500 164 500 c 0
 154 500 122 481 122 458 c 0
 122 435 154 416 164 416 c 0
55 333 m 0
 65 333 97 352 97 375 c 0
 97 398 65 417 55 417 c 0
 45 417 13 398 13 375 c 0
 13 352 45 333 55 333 c 0
127 333 m 0
 137 333 169 352 169 375 c 0
 169 398 137 417 127 417 c 0
 117 417 85 398 85 375 c 0
 85 352 117 333 127 333 c 0
200 333 m 0
 210 333 242 352 242 375 c 0
 242 398 210 417 200 417 c 0
 190 417 158 398 158 375 c 0
 158 352 190 333 200 333 c 0
273 333 m 0
 283 333 315 352 315 375 c 0
 315 398 283 417 273 417 c 0
 263 417 231 398 231 375 c 0
 231 352 263 333 273 333 c 0
55 250 m 0
 65 250 97 269 97 292 c 0
 97 315 65 334 55 334 c 0
 45 334 13 315 13 292 c 0
 13 269 45 250 55 250 c 0
55 166 m 0
 65 166 97 185 97 208 c 0
 97 231 65 250 55 250 c 0
 45 250 13 231 13 208 c 0
 13 185 45 166 55 166 c 0
127 166 m 0
 137 166 169 185 169 208 c 0
 169 231 137 250 127 250 c 0
 117 250 85 231 85 208 c 0
 85 185 117 166 127 166 c 0
200 166 m 0
 210 166 242 185 242 208 c 0
 242 231 210 250 200 250 c 0
 190 250 158 231 158 208 c 0
 158 185 190 166 200 166 c 0
55 83 m 0
 65 83 97 102 97 125 c 0
 97 148 65 167 55 167 c 0
 45 167 13 148 13 125 c 0
 13 102 45 83 55 83 c 0
55 0 m 0
 65 0 97 19 97 42 c 0
 97 65 65 84 55 84 c 0
 45 84 13 65 13 42 c 0
 13 19 45 0 55 0 c 0
127 0 m 0
 137 0 169 19 169 42 c 0
 169 65 137 84 127 84 c 0
 117 84 85 65 85 42 c 0
 85 19 117 0 127 0 c 0
200 0 m 0
 210 0 242 19 242 42 c 0
 242 65 210 84 200 84 c 0
 190 84 158 65 158 42 c 0
 158 19 190 0 200 0 c 0
273 0 m 0
 283 0 315 19 315 42 c 0
 315 65 283 84 273 84 c 0
 263 84 231 65 231 42 c 0
 231 19 263 0 273 0 c 0
EndSplineSet
EndChar

StartChar: eacute
Encoding: 233 233 101
Width: 364
Flags: HW
LayerCount: 2
Back
Fore
SplineSet
200 500 m 0
 210 500 242 519 242 542 c 0
 242 565 210 584 200 584 c 0
 190 584 158 565 158 542 c 0
 158 519 190 500 200 500 c 0
164 416 m 0
 174 416 206 435 206 458 c 0
 206 481 174 500 164 500 c 0
 154 500 122 481 122 458 c 0
 122 435 154 416 164 416 c 0
91 333 m 0
 101 333 133 352 133 375 c 0
 133 398 101 417 91 417 c 0
 81 417 49 398 49 375 c 0
 49 352 81 333 91 333 c 0
164 333 m 0
 174 333 206 352 206 375 c 0
 206 398 174 417 164 417 c 0
 154 417 122 398 122 375 c 0
 122 352 154 333 164 333 c 0
236 333 m 0
 246 333 278 352 278 375 c 0
 278 398 246 417 236 417 c 0
 226 417 194 398 194 375 c 0
 194 352 226 333 236 333 c 0
55 250 m 0
 65 250 97 269 97 292 c 0
 97 315 65 334 55 334 c 0
 45 334 13 315 13 292 c 0
 13 269 45 250 55 250 c 0
273 250 m 0
 283 250 315 269 315 292 c 0
 315 315 283 334 273 334 c 0
 263 334 231 315 231 292 c 0
 231 269 263 250 273 250 c 0
55 166 m 0
 65 166 97 185 97 208 c 0
 97 231 65 250 55 250 c 0
 45 250 13 231 13 208 c 0
 13 185 45 166 55 166 c 0
127 166 m 0
 137 166 169 185 169 208 c 0
 169 231 137 250 127 250 c 0
 117 250 85 231 85 208 c 0
 85 185 117 166 127 166 c 0
200 166 m 0
 210 166 242 185 242 208 c 0
 242 231 210 250 200 250 c 0
 190 250 158 231 158 208 c 0
 158 185 190 166 200 166 c 0
273 166 m 0
 283 166 315 185 315 208 c 0
 315 231 283 250 273 250 c 0
 263 250 231 231 231 208 c 0
 231 185 263 166 273 166 c 0
55 83 m 0
 65 83 97 102 97 125 c 0
 97 148 65 167 55 167 c 0
 45 167 13 148 13 125 c 0
 13 102 45 83 55 83 c 0
91 0 m 0
 101 0 133 19 133 42 c 0
 133 65 101 84 91 84 c 0
 81 84 49 65 49 42 c 0
 49 19 81 0 91 0 c 0
164 0 m 0
 174 0 206 19 206 42 c 0
 206 65 174 84 164 84 c 0
 154 84 122 65 122 42 c 0
 122 19 154 0 164 0 c 0
236 0 m 0
 246 0 278 19 278 42 c 0
 278 65 246 84 236 84 c 0
 226 84 194 65 194 42 c 0
 194 19 226 0 236 0 c 0
EndSplineSet
EndChar

StartChar: Odieresis
Encoding: 214 214 102
Width: 364
Flags: HW
LayerCount: 2
Back
Fore
SplineSet
55 500 m 0
 65 500 97 519 97 542 c 0
 97 565 65 584 55 584 c 0
 45 584 13 565 13 542 c 0
 13 519 45 500 55 500 c 0
273 500 m 0
 283 500 315 519 315 542 c 0
 315 565 283 584 273 584 c 0
 263 584 231 565 231 542 c 0
 231 519 263 500 273 500 c 0
127 416 m 0
 137 416 169 435 169 458 c 0
 169 481 137 500 127 500 c 0
 117 500 85 481 85 458 c 0
 85 435 117 416 127 416 c 0
200 416 m 0
 210 416 242 435 242 458 c 0
 242 481 210 500 200 500 c 0
 190 500 158 481 158 458 c 0
 158 435 190 416 200 416 c 0
91 333 m 0
 101 333 133 352 133 375 c 0
 133 398 101 417 91 417 c 0
 81 417 49 398 49 375 c 0
 49 352 81 333 91 333 c 0
236 333 m 0
 246 333 278 352 278 375 c 0
 278 398 246 417 236 417 c 0
 226 417 194 398 194 375 c 0
 194 352 226 333 236 333 c 0
55 250 m 0
 65 250 97 269 97 292 c 0
 97 315 65 334 55 334 c 0
 45 334 13 315 13 292 c 0
 13 269 45 250 55 250 c 0
273 250 m 0
 283 250 315 269 315 292 c 0
 315 315 283 334 273 334 c 0
 263 334 231 315 231 292 c 0
 231 269 263 250 273 250 c 0
55 166 m 0
 65 166 97 185 97 208 c 0
 97 231 65 250 55 250 c 0
 45 250 13 231 13 208 c 0
 13 185 45 166 55 166 c 0
273 166 m 0
 283 166 315 185 315 208 c 0
 315 231 283 250 273 250 c 0
 263 250 231 231 231 208 c 0
 231 185 263 166 273 166 c 0
91 83 m 0
 101 83 133 102 133 125 c 0
 133 148 101 167 91 167 c 0
 81 167 49 148 49 125 c 0
 49 102 81 83 91 83 c 0
236 83 m 0
 246 83 278 102 278 125 c 0
 278 148 246 167 236 167 c 0
 226 167 194 148 194 125 c 0
 194 102 226 83 236 83 c 0
127 0 m 0
 137 0 169 19 169 42 c 0
 169 65 137 84 127 84 c 0
 117 84 85 65 85 42 c 0
 85 19 117 0 127 0 c 0
200 0 m 0
 210 0 242 19 242 42 c 0
 242 65 210 84 200 84 c 0
 190 84 158 65 158 42 c 0
 158 19 190 0 200 0 c 0
EndSplineSet
EndChar

StartChar: odieresis
Encoding: 246 246 103
Width: 364
Flags: HW
LayerCount: 2
Back
Fore
SplineSet
91 500 m 0
 101 500 133 519 133 542 c 0
 133 565 101 584 91 584 c 0
 81 584 49 565 49 542 c 0
 49 519 81 500 91 500 c 0
236 500 m 0
 246 500 278 519 278 542 c 0
 278 565 246 584 236 584 c 0
 226 584 194 565 194 542 c 0
 194 519 226 500 236 500 c 0
91 333 m 0
 101 333 133 352 133 375 c 0
 133 398 101 417 91 417 c 0
 81 417 49 398 49 375 c 0
 49 352 81 333 91 333 c 0
164 333 m 0
 174 333 206 352 206 375 c 0
 206 398 174 417 164 417 c 0
 154 417 122 398 122 375 c 0
 122 352 154 333 164 333 c 0
236 333 m 0
 246 333 278 352 278 375 c 0
 278 398 246 417 236 417 c 0
 226 417 194 398 194 375 c 0
 194 352 226 333 236 333 c 0
55 250 m 0
 65 250 97 269 97 292 c 0
 97 315 65 334 55 334 c 0
 45 334 13 315 13 292 c 0
 13 269 45 250 55 250 c 0
273 250 m 0
 283 250 315 269 315 292 c 0
 315 315 283 334 273 334 c 0
 263 334 231 315 231 292 c 0
 231 269 263 250 273 250 c 0
55 166 m 0
 65 166 97 185 97 208 c 0
 97 231 65 250 55 250 c 0
 45 250 13 231 13 208 c 0
 13 185 45 166 55 166 c 0
273 166 m 0
 283 166 315 185 315 208 c 0
 315 231 283 250 273 250 c 0
 263 250 231 231 231 208 c 0
 231 185 263 166 273 166 c 0
55 83 m 0
 65 83 97 102 97 125 c 0
 97 148 65 167 55 167 c 0
 45 167 13 148 13 125 c 0
 13 102 45 83 55 83 c 0
273 83 m 0
 283 83 315 102 315 125 c 0
 315 148 283 167 273 167 c 0
 263 167 231 148 231 125 c 0
 231 102 263 83 273 83 c 0
91 0 m 0
 101 0 133 19 133 42 c 0
 133 65 101 84 91 84 c 0
 81 84 49 65 49 42 c 0
 49 19 81 0 91 0 c 0
164 0 m 0
 174 0 206 19 206 42 c 0
 206 65 174 84 164 84 c 0
 154 84 122 65 122 42 c 0
 122 19 154 0 164 0 c 0
236 0 m 0
 246 0 278 19 278 42 c 0
 278 65 246 84 236 84 c 0
 226 84 194 65 194 42 c 0
 194 19 226 0 236 0 c 0
EndSplineSet
EndChar

StartChar: Udieresis
Encoding: 220 220 104
Width: 364
Flags: HW
LayerCount: 2
Back
Fore
SplineSet
55 500 m 0
 65 500 97 519 97 542 c 0
 97 565 65 584 55 584 c 0
 45 584 13 565 13 542 c 0
 13 519 45 500 55 500 c 0
273 500 m 0
 283 500 315 519 315 542 c 0
 315 565 283 584 273 584 c 0
 263 584 231 565 231 542 c 0
 231 519 263 500 273 500 c 0
55 333 m 0
 65 333 97 352 97 375 c 0
 97 398 65 417 55 417 c 0
 45 417 13 398 13 375 c 0
 13 352 45 333 55 333 c 0
273 333 m 0
 283 333 315 352 315 375 c 0
 315 398 283 417 273 417 c 0
 263 417 231 398 231 375 c 0
 231 352 263 333 273 333 c 0
55 250 m 0
 65 250 97 269 97 292 c 0
 97 315 65 334 55 334 c 0
 45 334 13 315 13 292 c 0
 13 269 45 250 55 250 c 0
273 250 m 0
 283 250 315 269 315 292 c 0
 315 315 283 334 273 334 c 0
 263 334 231 315 231 292 c 0
 231 269 263 250 273 250 c 0
55 166 m 0
 65 166 97 185 97 208 c 0
 97 231 65 250 55 250 c 0
 45 250 13 231 13 208 c 0
 13 185 45 166 55 166 c 0
273 166 m 0
 283 166 315 185 315 208 c 0
 315 231 283 250 273 250 c 0
 263 250 231 231 231 208 c 0
 231 185 263 166 273 166 c 0
55 83 m 0
 65 83 97 102 97 125 c 0
 97 148 65 167 55 167 c 0
 45 167 13 148 13 125 c 0
 13 102 45 83 55 83 c 0
273 83 m 0
 283 83 315 102 315 125 c 0
 315 148 283 167 273 167 c 0
 263 167 231 148 231 125 c 0
 231 102 263 83 273 83 c 0
91 0 m 0
 101 0 133 19 133 42 c 0
 133 65 101 84 91 84 c 0
 81 84 49 65 49 42 c 0
 49 19 81 0 91 0 c 0
164 0 m 0
 174 0 206 19 206 42 c 0
 206 65 174 84 164 84 c 0
 154 84 122 65 122 42 c 0
 122 19 154 0 164 0 c 0
236 0 m 0
 246 0 278 19 278 42 c 0
 278 65 246 84 236 84 c 0
 226 84 194 65 194 42 c 0
 194 19 226 0 236 0 c 0
EndSplineSet
EndChar

StartChar: udieresis
Encoding: 252 252 105
Width: 364
Flags: HW
LayerCount: 2
Back
Fore
SplineSet
91 500 m 0
 101 500 133 519 133 542 c 0
 133 565 101 584 91 584 c 0
 81 584 49 565 49 542 c 0
 49 519 81 500 91 500 c 0
236 500 m 0
 246 500 278 519 278 542 c 0
 278 565 246 584 236 584 c 0
 226 584 194 565 194 542 c 0
 194 519 226 500 236 500 c 0
55 333 m 0
 65 333 97 352 97 375 c 0
 97 398 65 417 55 417 c 0
 45 417 13 398 13 375 c 0
 13 352 45 333 55 333 c 0
273 333 m 0
 283 333 315 352 315 375 c 0
 315 398 283 417 273 417 c 0
 263 417 231 398 231 375 c 0
 231 352 263 333 273 333 c 0
55 250 m 0
 65 250 97 269 97 292 c 0
 97 315 65 334 55 334 c 0
 45 334 13 315 13 292 c 0
 13 269 45 250 55 250 c 0
273 250 m 0
 283 250 315 269 315 292 c 0
 315 315 283 334 273 334 c 0
 263 334 231 315 231 292 c 0
 231 269 263 250 273 250 c 0
55 166 m 0
 65 166 97 185 97 208 c 0
 97 231 65 250 55 250 c 0
 45 250 13 231 13 208 c 0
 13 185 45 166 55 166 c 0
273 166 m 0
 283 166 315 185 315 208 c 0
 315 231 283 250 273 250 c 0
 263 250 231 231 231 208 c 0
 231 185 263 166 273 166 c 0
55 83 m 0
 65 83 97 102 97 125 c 0
 97 148 65 167 55 167 c 0
 45 167 13 148 13 125 c 0
 13 102 45 83 55 83 c 0
273 83 m 0
 283 83 315 102 315 125 c 0
 315 148 283 167 273 167 c 0
 263 167 231 148 231 125 c 0
 231 102 263 83 273 83 c 0
127 0 m 0
 137 0 169 19 169 42 c 0
 169 65 137 84 127 84 c 0
 117 84 85 65 85 42 c 0
 85 19 117 0 127 0 c 0
200 0 m 0
 210 0 242 19 242 42 c 0
 242 65 210 84 200 84 c 0
 190 84 158 65 158 42 c 0
 158 19 190 0 200 0 c 0
273 0 m 0
 283 0 315 19 315 42 c 0
 315 65 283 84 273 84 c 0
 263 84 231 65 231 42 c 0
 231 19 263 0 273 0 c 0
EndSplineSet
EndChar

StartChar: AE
Encoding: 198 198 106
Width: 364
Flags: HW
LayerCount: 2
Back
Fore
SplineSet
127 500 m 0
 137 500 169 519 169 542 c 0
 169 565 137 584 127 584 c 0
 117 584 85 565 85 542 c 0
 85 519 117 500 127 500 c 0
200 500 m 0
 210 500 242 519 242 542 c 0
 242 565 210 584 200 584 c 0
 190 584 158 565 158 542 c 0
 158 519 190 500 200 500 c 0
273 500 m 0
 283 500 315 519 315 542 c 0
 315 565 283 584 273 584 c 0
 263 584 231 565 231 542 c 0
 231 519 263 500 273 500 c 0
91 416 m 0
 101 416 133 435 133 458 c 0
 133 481 101 500 91 500 c 0
 81 500 49 481 49 458 c 0
 49 435 81 416 91 416 c 0
200 416 m 0
 210 416 242 435 242 458 c 0
 242 481 210 500 200 500 c 0
 190 500 158 481 158 458 c 0
 158 435 190 416 200 416 c 0
55 333 m 0
 65 333 97 352 97 375 c 0
 97 398 65 417 55 417 c 0
 45 417 13 398 13 375 c 0
 13 352 45 333 55 333 c 0
200 333 m 0
 210 333 242 352 242 375 c 0
 242 398 210 417 200 417 c 0
 190 417 158 398 158 375 c 0
 158 352 190 333 200 333 c 0
55 250 m 0
 65 250 97 269 97 292 c 0
 97 315 65 334 55 334 c 0
 45 334 13 315 13 292 c 0
 13 269 45 250 55 250 c 0
127 250 m 0
 137 250 169 269 169 292 c 0
 169 315 137 334 127 334 c 0
 117 334 85 315 85 292 c 0
 85 269 117 250 127 250 c 0
200 250 m 0
 210 250 242 269 242 292 c 0
 242 315 210 334 200 334 c 0
 190 334 158 315 158 292 c 0
 158 269 190 250 200 250 c 0
273 250 m 0
 283 250 315 269 315 292 c 0
 315 315 283 334 273 334 c 0
 263 334 231 315 231 292 c 0
 231 269 263 250 273 250 c 0
55 166 m 0
 65 166 97 185 97 208 c 0
 97 231 65 250 55 250 c 0
 45 250 13 231 13 208 c 0
 13 185 45 166 55 166 c 0
200 166 m 0
 210 166 242 185 242 208 c 0
 242 231 210 250 200 250 c 0
 190 250 158 231 158 208 c 0
 158 185 190 166 200 166 c 0
55 83 m 0
 65 83 97 102 97 125 c 0
 97 148 65 167 55 167 c 0
 45 167 13 148 13 125 c 0
 13 102 45 83 55 83 c 0
200 83 m 0
 210 83 242 102 242 125 c 0
 242 148 210 167 200 167 c 0
 190 167 158 148 158 125 c 0
 158 102 190 83 200 83 c 0
55 0 m 0
 65 0 97 19 97 42 c 0
 97 65 65 84 55 84 c 0
 45 84 13 65 13 42 c 0
 13 19 45 0 55 0 c 0
200 0 m 0
 210 0 242 19 242 42 c 0
 242 65 210 84 200 84 c 0
 190 84 158 65 158 42 c 0
 158 19 190 0 200 0 c 0
273 0 m 0
 283 0 315 19 315 42 c 0
 315 65 283 84 273 84 c 0
 263 84 231 65 231 42 c 0
 231 19 263 0 273 0 c 0
EndSplineSet
EndChar

StartChar: ae
Encoding: 230 230 107
Width: 364
Flags: HW
LayerCount: 2
Back
Fore
SplineSet
55 333 m 0
 65 333 97 352 97 375 c 0
 97 398 65 417 55 417 c 0
 45 417 13 398 13 375 c 0
 13 352 45 333 55 333 c 0
127 333 m 0
 137 333 169 352 169 375 c 0
 169 398 137 417 127 417 c 0
 117 417 85 398 85 375 c 0
 85 352 117 333 127 333 c 0
200 333 m 0
 210 333 242 352 242 375 c 0
 242 398 210 417 200 417 c 0
 190 417 158 398 158 375 c 0
 158 352 190 333 200 333 c 0
273 333 m 0
 283 333 315 352 315 375 c 0
 315 398 283 417 273 417 c 0
 263 417 231 398 231 375 c 0
 231 352 263 333 273 333 c 0
164 250 m 0
 174 250 206 269 206 292 c 0
 206 315 174 334 164 334 c 0
 154 334 122 315 122 292 c 0
 122 269 154 250 164 250 c 0
273 250 m 0
 283 250 315 269 315 292 c 0
 315 315 283 334 273 334 c 0
 263 334 231 315 231 292 c 0
 231 269 263 250 273 250 c 0
91 166 m 0
 101 166 133 185 133 208 c 0
 133 231 101 250 91 250 c 0
 81 250 49 231 49 208 c 0
 49 185 81 166 91 166 c 0
164 166 m 0
 174 166 206 185 206 208 c 0
 206 231 174 250 164 250 c 0
 154 250 122 231 122 208 c 0
 122 185 154 166 164 166 c 0
236 166 m 0
 246 166 278 185 278 208 c 0
 278 231 246 250 236 250 c 0
 226 250 194 231 194 208 c 0
 194 185 226 166 236 166 c 0
55 83 m 0
 65 83 97 102 97 125 c 0
 97 148 65 167 55 167 c 0
 45 167 13 148 13 125 c 0
 13 102 45 83 55 83 c 0
164 83 m 0
 174 83 206 102 206 125 c 0
 206 148 174 167 164 167 c 0
 154 167 122 148 122 125 c 0
 122 102 154 83 164 83 c 0
55 0 m 0
 65 0 97 19 97 42 c 0
 97 65 65 84 55 84 c 0
 45 84 13 65 13 42 c 0
 13 19 45 0 55 0 c 0
127 0 m 0
 137 0 169 19 169 42 c 0
 169 65 137 84 127 84 c 0
 117 84 85 65 85 42 c 0
 85 19 117 0 127 0 c 0
200 0 m 0
 210 0 242 19 242 42 c 0
 242 65 210 84 200 84 c 0
 190 84 158 65 158 42 c 0
 158 19 190 0 200 0 c 0
273 0 m 0
 283 0 315 19 315 42 c 0
 315 65 283 84 273 84 c 0
 263 84 231 65 231 42 c 0
 231 19 263 0 273 0 c 0
EndSplineSet
EndChar

StartChar: Oslash
Encoding: 216 216 108
Width: 364
Flags: HW
LayerCount: 2
Back
Fore
SplineSet
127 500 m 0
 137 500 169 519 169 542 c 0
 169 565 137 584 127 584 c 0
 117 584 85 565 85 542 c 0
 85 519 117 500 127 500 c 0
200 500 m 0
 210 500 242 519 242 542 c 0
 242 565 210 584 200 584 c 0
 190 584 158 565 158 542 c 0
 158 519 190 500 200 500 c 0
91 416 m 0
 101 416 133 435 133 458 c 0
 133 481 101 500 91 500 c 0
 81 500 49 481 49 458 c 0
 49 435 81 416 91 416 c 0
236 416 m 0
 246 416 278 435 278 458 c 0
 278 481 246 500 236 500 c 0
 226 500 194 481 194 458 c 0
 194 435 226 416 236 416 c 0
55 333 m 0
 65 333 97 352 97 375 c 0
 97 398 65 417 55 417 c 0
 45 417 13 398 13 375 c 0
 13 352 45 333 55 333 c 0
200 333 m 0
 210 333 242 352 242 375 c 0
 242 398 210 417 200 417 c 0
 190 417 158 398 158 375 c 0
 158 352 190 333 200 333 c 0
273 333 m 0
 283 333 315 352 315 375 c 0
 315 398 283 417 273 417 c 0
 263 417 231 398 231 375 c 0
 231 352 263 333 273 333 c 0
55 250 m 0
 65 250 97 269 97 292 c 0
 97 315 65 334 55 334 c 0
 45 334 13 315 13 292 c 0
 13 269 45 250 55 250 c 0
164 250 m 0
 174 250 206 269 206 292 c 0
 206 315 174 334 164 334 c 0
 154 334 122 315 122 292 c 0
 122 269 154 250 164 250 c 0
273 250 m 0
 283 250 315 269 315 292 c 0
 315 315 283 334 273 334 c 0
 263 334 231 315 231 292 c 0
 231 269 263 250 273 250 c 0
55 166 m 0
 65 166 97 185 97 208 c 0
 97 231 65 250 55 250 c 0
 45 250 13 231 13 208 c 0
 13 185 45 166 55 166 c 0
127 166 m 0
 137 166 169 185 169 208 c 0
 169 231 137 250 127 250 c 0
 117 250 85 231 85 208 c 0
 85 185 117 166 127 166 c 0
273 166 m 0
 283 166 315 185 315 208 c 0
 315 231 283 250 273 250 c 0
 263 250 231 231 231 208 c 0
 231 185 263 166 273 166 c 0
91 83 m 0
 101 83 133 102 133 125 c 0
 133 148 101 167 91 167 c 0
 81 167 49 148 49 125 c 0
 49 102 81 83 91 83 c 0
236 83 m 0
 246 83 278 102 278 125 c 0
 278 148 246 167 236 167 c 0
 226 167 194 148 194 125 c 0
 194 102 226 83 236 83 c 0
127 0 m 0
 137 0 169 19 169 42 c 0
 169 65 137 84 127 84 c 0
 117 84 85 65 85 42 c 0
 85 19 117 0 127 0 c 0
200 0 m 0
 210 0 242 19 242 42 c 0
 242 65 210 84 200 84 c 0
 190 84 158 65 158 42 c 0
 158 19 190 0 200 0 c 0
EndSplineSet
EndChar

StartChar: oslash
Encoding: 248 248 109
Width: 364
Flags: HW
LayerCount: 2
Back
Fore
SplineSet
91 333 m 0
 101 333 133 352 133 375 c 0
 133 398 101 417 91 417 c 0
 81 417 49 398 49 375 c 0
 49 352 81 333 91 333 c 0
164 333 m 0
 174 333 206 352 206 375 c 0
 206 398 174 417 164 417 c 0
 154 417 122 398 122 375 c 0
 122 352 154 333 164 333 c 0
236 333 m 0
 246 333 278 352 278 375 c 0
 278 398 246 417 236 417 c 0
 226 417 194 398 194 375 c 0
 194 352 226 333 236 333 c 0
55 250 m 0
 65 250 97 269 97 292 c 0
 97 315 65 334 55 334 c 0
 45 334 13 315 13 292 c 0
 13 269 45 250 55 250 c 0
200 250 m 0
 210 250 242 269 242 292 c 0
 242 315 210 334 200 334 c 0
 190 334 158 315 158 292 c 0
 158 269 190 250 200 250 c 0
273 250 m 0
 283 250 315 269 315 292 c 0
 315 315 283 334 273 334 c 0
 263 334 231 315 231 292 c 0
 231 269 263 250 273 250 c 0
55 166 m 0
 65 166 97 185 97 208 c 0
 97 231 65 250 55 250 c 0
 45 250 13 231 13 208 c 0
 13 185 45 166 55 166 c 0
164 166 m 0
 174 166 206 185 206 208 c 0
 206 231 174 250 164 250 c 0
 154 250 122 231 122 208 c 0
 122 185 154 166 164 166 c 0
273 166 m 0
 283 166 315 185 315 208 c 0
 315 231 283 250 273 250 c 0
 263 250 231 231 231 208 c 0
 231 185 263 166 273 166 c 0
55 83 m 0
 65 83 97 102 97 125 c 0
 97 148 65 167 55 167 c 0
 45 167 13 148 13 125 c 0
 13 102 45 83 55 83 c 0
127 83 m 0
 137 83 169 102 169 125 c 0
 169 148 137 167 127 167 c 0
 117 167 85 148 85 125 c 0
 85 102 117 83 127 83 c 0
273 83 m 0
 283 83 315 102 315 125 c 0
 315 148 283 167 273 167 c 0
 263 167 231 148 231 125 c 0
 231 102 263 83 273 83 c 0
91 0 m 0
 101 0 133 19 133 42 c 0
 133 65 101 84 91 84 c 0
 81 84 49 65 49 42 c 0
 49 19 81 0 91 0 c 0
164 0 m 0
 174 0 206 19 206 42 c 0
 206 65 174 84 164 84 c 0
 154 84 122 65 122 42 c 0
 122 19 154 0 164 0 c 0
236 0 m 0
 246 0 278 19 278 42 c 0
 278 65 246 84 236 84 c 0
 226 84 194 65 194 42 c 0
 194 19 226 0 236 0 c 0
EndSplineSet
EndChar

StartChar: section
Encoding: 167 167 110
Width: 364
Flags: HW
LayerCount: 2
Back
Fore
SplineSet
164 500 m 0
 174 500 206 519 206 542 c 0
 206 565 174 584 164 584 c 0
 154 584 122 565 122 542 c 0
 122 519 154 500 164 500 c 0
236 500 m 0
 246 500 278 519 278 542 c 0
 278 565 246 584 236 584 c 0
 226 584 194 565 194 542 c 0
 194 519 226 500 236 500 c 0
127 416 m 0
 137 416 169 435 169 458 c 0
 169 481 137 500 127 500 c 0
 117 500 85 481 85 458 c 0
 85 435 117 416 127 416 c 0
127 333 m 0
 137 333 169 352 169 375 c 0
 169 398 137 417 127 417 c 0
 117 417 85 398 85 375 c 0
 85 352 117 333 127 333 c 0
200 333 m 0
 210 333 242 352 242 375 c 0
 242 398 210 417 200 417 c 0
 190 417 158 398 158 375 c 0
 158 352 190 333 200 333 c 0
91 250 m 0
 101 250 133 269 133 292 c 0
 133 315 101 334 91 334 c 0
 81 334 49 315 49 292 c 0
 49 269 81 250 91 250 c 0
236 250 m 0
 246 250 278 269 278 292 c 0
 278 315 246 334 236 334 c 0
 226 334 194 315 194 292 c 0
 194 269 226 250 236 250 c 0
127 166 m 0
 137 166 169 185 169 208 c 0
 169 231 137 250 127 250 c 0
 117 250 85 231 85 208 c 0
 85 185 117 166 127 166 c 0
200 166 m 0
 210 166 242 185 242 208 c 0
 242 231 210 250 200 250 c 0
 190 250 158 231 158 208 c 0
 158 185 190 166 200 166 c 0
200 83 m 0
 210 83 242 102 242 125 c 0
 242 148 210 167 200 167 c 0
 190 167 158 148 158 125 c 0
 158 102 190 83 200 83 c 0
91 0 m 0
 101 0 133 19 133 42 c 0
 133 65 101 84 91 84 c 0
 81 84 49 65 49 42 c 0
 49 19 81 0 91 0 c 0
164 0 m 0
 174 0 206 19 206 42 c 0
 206 65 174 84 164 84 c 0
 154 84 122 65 122 42 c 0
 122 19 154 0 164 0 c 0
EndSplineSet
EndChar

StartChar: degree
Encoding: 176 176 111
Width: 364
Flags: HW
LayerCount: 2
Back
Fore
SplineSet
127 500 m 0
 137 500 169 519 169 542 c 0
 169 565 137 584 127 584 c 0
 117 584 85 565 85 542 c 0
 85 519 117 500 127 500 c 0
200 500 m 0
 210 500 242 519 242 542 c 0
 242 565 210 584 200 584 c 0
 190 584 158 565 158 542 c 0
 158 519 190 500 200 500 c 0
91 416 m 0
 101 416 133 435 133 458 c 0
 133 481 101 500 91 500 c 0
 81 500 49 481 49 458 c 0
 49 435 81 416 91 416 c 0
236 416 m 0
 246 416 278 435 278 458 c 0
 278 481 246 500 236 500 c 0
 226 500 194 481 194 458 c 0
 194 435 226 416 236 416 c 0
127 333 m 0
 137 333 169 352 169 375 c 0
 169 398 137 417 127 417 c 0
 117 417 85 398 85 375 c 0
 85 352 117 333 127 333 c 0
200 333 m 0
 210 333 242 352 242 375 c 0
 242 398 210 417 200 417 c 0
 190 417 158 398 158 375 c 0
 158 352 190 333 200 333 c 0
EndSplineSet
EndChar

StartChar: ccedilla
Encoding: 231 231 112
Width: 364
Flags: HW
LayerCount: 2
Back
Fore
SplineSet
91 416 m 0
 101 416 133 435 133 458 c 0
 133 481 101 500 91 500 c 0
 81 500 49 481 49 458 c 0
 49 435 81 416 91 416 c 0
164 416 m 0
 174 416 206 435 206 458 c 0
 206 481 174 500 164 500 c 0
 154 500 122 481 122 458 c 0
 122 435 154 416 164 416 c 0
236 416 m 0
 246 416 278 435 278 458 c 0
 278 481 246 500 236 500 c 0
 226 500 194 481 194 458 c 0
 194 435 226 416 236 416 c 0
55 333 m 0
 65 333 97 352 97 375 c 0
 97 398 65 417 55 417 c 0
 45 417 13 398 13 375 c 0
 13 352 45 333 55 333 c 0
273 333 m 0
 283 333 315 352 315 375 c 0
 315 398 283 417 273 417 c 0
 263 417 231 398 231 375 c 0
 231 352 263 333 273 333 c 0
55 250 m 0
 65 250 97 269 97 292 c 0
 97 315 65 334 55 334 c 0
 45 334 13 315 13 292 c 0
 13 269 45 250 55 250 c 0
55 166 m 0
 65 166 97 185 97 208 c 0
 97 231 65 250 55 250 c 0
 45 250 13 231 13 208 c 0
 13 185 45 166 55 166 c 0
91 83 m 0
 101 83 133 102 133 125 c 0
 133 148 101 167 91 167 c 0
 81 167 49 148 49 125 c 0
 49 102 81 83 91 83 c 0
164 83 m 0
 174 83 206 102 206 125 c 0
 206 148 174 167 164 167 c 0
 154 167 122 148 122 125 c 0
 122 102 154 83 164 83 c 0
236 83 m 0
 246 83 278 102 278 125 c 0
 278 148 246 167 236 167 c 0
 226 167 194 148 194 125 c 0
 194 102 226 83 236 83 c 0
164 0 m 0
 174 0 206 19 206 42 c 0
 206 65 174 84 164 84 c 0
 154 84 122 65 122 42 c 0
 122 19 154 0 164 0 c 0
EndSplineSet
EndChar

StartChar: dieresis
Encoding: 168 168 113
Width: 364
Flags: HW
LayerCount: 2
Back
Fore
SplineSet
91 500 m 0
 101 500 133 519 133 542 c 0
 133 565 101 584 91 584 c 0
 81 584 49 565 49 542 c 0
 49 519 81 500 91 500 c 0
236 500 m 0
 246 500 278 519 278 542 c 0
 278 565 246 584 236 584 c 0
 226 584 194 565 194 542 c 0
 194 519 226 500 236 500 c 0
EndSplineSet
EndChar

StartChar: germandbls
Encoding: 223 223 114
Width: 364
Flags: HW
LayerCount: 2
Back
Fore
SplineSet
91 500 m 0
 101 500 133 519 133 542 c 0
 133 565 101 584 91 584 c 0
 81 584 49 565 49 542 c 0
 49 519 81 500 91 500 c 0
164 500 m 0
 174 500 206 519 206 542 c 0
 206 565 174 584 164 584 c 0
 154 584 122 565 122 542 c 0
 122 519 154 500 164 500 c 0
55 416 m 0
 65 416 97 435 97 458 c 0
 97 481 65 500 55 500 c 0
 45 500 13 481 13 458 c 0
 13 435 45 416 55 416 c 0
200 416 m 0
 210 416 242 435 242 458 c 0
 242 481 210 500 200 500 c 0
 190 500 158 481 158 458 c 0
 158 435 190 416 200 416 c 0
55 333 m 0
 65 333 97 352 97 375 c 0
 97 398 65 417 55 417 c 0
 45 417 13 398 13 375 c 0
 13 352 45 333 55 333 c 0
164 333 m 0
 174 333 206 352 206 375 c 0
 206 398 174 417 164 417 c 0
 154 417 122 398 122 375 c 0
 122 352 154 333 164 333 c 0
55 250 m 0
 65 250 97 269 97 292 c 0
 97 315 65 334 55 334 c 0
 45 334 13 315 13 292 c 0
 13 269 45 250 55 250 c 0
127 250 m 0
 137 250 169 269 169 292 c 0
 169 315 137 334 127 334 c 0
 117 334 85 315 85 292 c 0
 85 269 117 250 127 250 c 0
200 250 m 0
 210 250 242 269 242 292 c 0
 242 315 210 334 200 334 c 0
 190 334 158 315 158 292 c 0
 158 269 190 250 200 250 c 0
55 166 m 0
 65 166 97 185 97 208 c 0
 97 231 65 250 55 250 c 0
 45 250 13 231 13 208 c 0
 13 185 45 166 55 166 c 0
236 166 m 0
 246 166 278 185 278 208 c 0
 278 231 246 250 236 250 c 0
 226 250 194 231 194 208 c 0
 194 185 226 166 236 166 c 0
55 83 m 0
 65 83 97 102 97 125 c 0
 97 148 65 167 55 167 c 0
 45 167 13 148 13 125 c 0
 13 102 45 83 55 83 c 0
236 83 m 0
 246 83 278 102 278 125 c 0
 278 148 246 167 236 167 c 0
 226 167 194 148 194 125 c 0
 194 102 226 83 236 83 c 0
55 0 m 0
 65 0 97 19 97 42 c 0
 97 65 65 84 55 84 c 0
 45 84 13 65 13 42 c 0
 13 19 45 0 55 0 c 0
127 0 m 0
 137 0 169 19 169 42 c 0
 169 65 137 84 127 84 c 0
 117 84 85 65 85 42 c 0
 85 19 117 0 127 0 c 0
200 0 m 0
 210 0 242 19 242 42 c 0
 242 65 210 84 200 84 c 0
 190 84 158 65 158 42 c 0
 158 19 190 0 200 0 c 0
EndSplineSet
EndChar

StartChar: agrave
Encoding: 224 224 115
Width: 364
Flags: HW
LayerCount: 2
Back
Fore
SplineSet
127 500 m 0
 137 500 169 519 169 542 c 0
 169 565 137 584 127 584 c 0
 117 584 85 565 85 542 c 0
 85 519 117 500 127 500 c 0
164 416 m 0
 174 416 206 435 206 458 c 0
 206 481 174 500 164 500 c 0
 154 500 122 481 122 458 c 0
 122 435 154 416 164 416 c 0
91 333 m 0
 101 333 133 352 133 375 c 0
 133 398 101 417 91 417 c 0
 81 417 49 398 49 375 c 0
 49 352 81 333 91 333 c 0
164 333 m 0
 174 333 206 352 206 375 c 0
 206 398 174 417 164 417 c 0
 154 417 122 398 122 375 c 0
 122 352 154 333 164 333 c 0
236 333 m 0
 246 333 278 352 278 375 c 0
 278 398 246 417 236 417 c 0
 226 417 194 398 194 375 c 0
 194 352 226 333 236 333 c 0
273 250 m 0
 283 250 315 269 315 292 c 0
 315 315 283 334 273 334 c 0
 263 334 231 315 231 292 c 0
 231 269 263 250 273 250 c 0
91 166 m 0
 101 166 133 185 133 208 c 0
 133 231 101 250 91 250 c 0
 81 250 49 231 49 208 c 0
 49 185 81 166 91 166 c 0
164 166 m 0
 174 166 206 185 206 208 c 0
 206 231 174 250 164 250 c 0
 154 250 122 231 122 208 c 0
 122 185 154 166 164 166 c 0
236 166 m 0
 246 166 278 185 278 208 c 0
 278 231 246 250 236 250 c 0
 226 250 194 231 194 208 c 0
 194 185 226 166 236 166 c 0
55 83 m 0
 65 83 97 102 97 125 c 0
 97 148 65 167 55 167 c 0
 45 167 13 148 13 125 c 0
 13 102 45 83 55 83 c 0
273 83 m 0
 283 83 315 102 315 125 c 0
 315 148 283 167 273 167 c 0
 263 167 231 148 231 125 c 0
 231 102 263 83 273 83 c 0
91 0 m 0
 101 0 133 19 133 42 c 0
 133 65 101 84 91 84 c 0
 81 84 49 65 49 42 c 0
 49 19 81 0 91 0 c 0
164 0 m 0
 174 0 206 19 206 42 c 0
 206 65 174 84 164 84 c 0
 154 84 122 65 122 42 c 0
 122 19 154 0 164 0 c 0
236 0 m 0
 246 0 278 19 278 42 c 0
 278 65 246 84 236 84 c 0
 226 84 194 65 194 42 c 0
 194 19 226 0 236 0 c 0
EndSplineSet
EndChar

StartChar: lessequal
Encoding: 8804 8804 116
Width: 364
Flags: HW
LayerCount: 2
Back
Fore
SplineSet
200 500 m 0
 210 500 242 519 242 542 c 0
 242 565 210 584 200 584 c 0
 190 584 158 565 158 542 c 0
 158 519 190 500 200 500 c 0
164 416 m 0
 174 416 206 435 206 458 c 0
 206 481 174 500 164 500 c 0
 154 500 122 481 122 458 c 0
 122 435 154 416 164 416 c 0
127 333 m 0
 137 333 169 352 169 375 c 0
 169 398 137 417 127 417 c 0
 117 417 85 398 85 375 c 0
 85 352 117 333 127 333 c 0
164 250 m 0
 174 250 206 269 206 292 c 0
 206 315 174 334 164 334 c 0
 154 334 122 315 122 292 c 0
 122 269 154 250 164 250 c 0
200 166 m 0
 210 166 242 185 242 208 c 0
 242 231 210 250 200 250 c 0
 190 250 158 231 158 208 c 0
 158 185 190 166 200 166 c 0
55 0 m 0
 65 0 97 19 97 42 c 0
 97 65 65 84 55 84 c 0
 45 84 13 65 13 42 c 0
 13 19 45 0 55 0 c 0
127 0 m 0
 137 0 169 19 169 42 c 0
 169 65 137 84 127 84 c 0
 117 84 85 65 85 42 c 0
 85 19 117 0 127 0 c 0
200 0 m 0
 210 0 242 19 242 42 c 0
 242 65 210 84 200 84 c 0
 190 84 158 65 158 42 c 0
 158 19 190 0 200 0 c 0
273 0 m 0
 283 0 315 19 315 42 c 0
 315 65 283 84 273 84 c 0
 263 84 231 65 231 42 c 0
 231 19 263 0 273 0 c 0
EndSplineSet
EndChar

StartChar: logicalor
Encoding: 8744 8744 117
Width: 364
Flags: HW
LayerCount: 2
Back
Fore
SplineSet
55 333 m 0
 65 333 97 352 97 375 c 0
 97 398 65 417 55 417 c 0
 45 417 13 398 13 375 c 0
 13 352 45 333 55 333 c 0
273 333 m 0
 283 333 315 352 315 375 c 0
 315 398 283 417 273 417 c 0
 263 417 231 398 231 375 c 0
 231 352 263 333 273 333 c 0
91 250 m 0
 101 250 133 269 133 292 c 0
 133 315 101 334 91 334 c 0
 81 334 49 315 49 292 c 0
 49 269 81 250 91 250 c 0
236 250 m 0
 246 250 278 269 278 292 c 0
 278 315 246 334 236 334 c 0
 226 334 194 315 194 292 c 0
 194 269 226 250 236 250 c 0
127 166 m 0
 137 166 169 185 169 208 c 0
 169 231 137 250 127 250 c 0
 117 250 85 231 85 208 c 0
 85 185 117 166 127 166 c 0
200 166 m 0
 210 166 242 185 242 208 c 0
 242 231 210 250 200 250 c 0
 190 250 158 231 158 208 c 0
 158 185 190 166 200 166 c 0
164 83 m 0
 174 83 206 102 206 125 c 0
 206 148 174 167 164 167 c 0
 154 167 122 148 122 125 c 0
 122 102 154 83 164 83 c 0
EndSplineSet
EndChar

StartChar: logicaland
Encoding: 8743 8743 118
Width: 364
Flags: HW
LayerCount: 2
Back
Fore
SplineSet
164 416 m 0
 174 416 206 435 206 458 c 0
 206 481 174 500 164 500 c 0
 154 500 122 481 122 458 c 0
 122 435 154 416 164 416 c 0
127 333 m 0
 137 333 169 352 169 375 c 0
 169 398 137 417 127 417 c 0
 117 417 85 398 85 375 c 0
 85 352 117 333 127 333 c 0
200 333 m 0
 210 333 242 352 242 375 c 0
 242 398 210 417 200 417 c 0
 190 417 158 398 158 375 c 0
 158 352 190 333 200 333 c 0
91 250 m 0
 101 250 133 269 133 292 c 0
 133 315 101 334 91 334 c 0
 81 334 49 315 49 292 c 0
 49 269 81 250 91 250 c 0
236 250 m 0
 246 250 278 269 278 292 c 0
 278 315 246 334 236 334 c 0
 226 334 194 315 194 292 c 0
 194 269 226 250 236 250 c 0
55 166 m 0
 65 166 97 185 97 208 c 0
 97 231 65 250 55 250 c 0
 45 250 13 231 13 208 c 0
 13 185 45 166 55 166 c 0
273 166 m 0
 283 166 315 185 315 208 c 0
 315 231 283 250 273 250 c 0
 263 250 231 231 231 208 c 0
 231 185 263 166 273 166 c 0
EndSplineSet
EndChar

StartChar: notequal
Encoding: 8800 8800 119
Width: 364
Flags: HW
LayerCount: 2
Back
Fore
SplineSet
273 500 m 0
 283 500 315 519 315 542 c 0
 315 565 283 584 273 584 c 0
 263 584 231 565 231 542 c 0
 231 519 263 500 273 500 c 0
236 416 m 0
 246 416 278 435 278 458 c 0
 278 481 246 500 236 500 c 0
 226 500 194 481 194 458 c 0
 194 435 226 416 236 416 c 0
55 333 m 0
 65 333 97 352 97 375 c 0
 97 398 65 417 55 417 c 0
 45 417 13 398 13 375 c 0
 13 352 45 333 55 333 c 0
127 333 m 0
 137 333 169 352 169 375 c 0
 169 398 137 417 127 417 c 0
 117 417 85 398 85 375 c 0
 85 352 117 333 127 333 c 0
200 333 m 0
 210 333 242 352 242 375 c 0
 242 398 210 417 200 417 c 0
 190 417 158 398 158 375 c 0
 158 352 190 333 200 333 c 0
273 333 m 0
 283 333 315 352 315 375 c 0
 315 398 283 417 273 417 c 0
 263 417 231 398 231 375 c 0
 231 352 263 333 273 333 c 0
164 250 m 0
 174 250 206 269 206 292 c 0
 206 315 174 334 164 334 c 0
 154 334 122 315 122 292 c 0
 122 269 154 250 164 250 c 0
55 166 m 0
 65 166 97 185 97 208 c 0
 97 231 65 250 55 250 c 0
 45 250 13 231 13 208 c 0
 13 185 45 166 55 166 c 0
127 166 m 0
 137 166 169 185 169 208 c 0
 169 231 137 250 127 250 c 0
 117 250 85 231 85 208 c 0
 85 185 117 166 127 166 c 0
200 166 m 0
 210 166 242 185 242 208 c 0
 242 231 210 250 200 250 c 0
 190 250 158 231 158 208 c 0
 158 185 190 166 200 166 c 0
273 166 m 0
 283 166 315 185 315 208 c 0
 315 231 283 250 273 250 c 0
 263 250 231 231 231 208 c 0
 231 185 263 166 273 166 c 0
91 83 m 0
 101 83 133 102 133 125 c 0
 133 148 101 167 91 167 c 0
 81 167 49 148 49 125 c 0
 49 102 81 83 91 83 c 0
55 0 m 0
 65 0 97 19 97 42 c 0
 97 65 65 84 55 84 c 0
 45 84 13 65 13 42 c 0
 13 19 45 0 55 0 c 0
EndSplineSet
EndChar

StartChar: divide
Encoding: 247 247 120
Width: 364
Flags: HW
LayerCount: 2
Back
Fore
SplineSet
164 416 m 0
 174 416 206 435 206 458 c 0
 206 481 174 500 164 500 c 0
 154 500 122 481 122 458 c 0
 122 435 154 416 164 416 c 0
55 250 m 0
 65 250 97 269 97 292 c 0
 97 315 65 334 55 334 c 0
 45 334 13 315 13 292 c 0
 13 269 45 250 55 250 c 0
127 250 m 0
 137 250 169 269 169 292 c 0
 169 315 137 334 127 334 c 0
 117 334 85 315 85 292 c 0
 85 269 117 250 127 250 c 0
200 250 m 0
 210 250 242 269 242 292 c 0
 242 315 210 334 200 334 c 0
 190 334 158 315 158 292 c 0
 158 269 190 250 200 250 c 0
273 250 m 0
 283 250 315 269 315 292 c 0
 315 315 283 334 273 334 c 0
 263 334 231 315 231 292 c 0
 231 269 263 250 273 250 c 0
164 83 m 0
 174 83 206 102 206 125 c 0
 206 148 174 167 164 167 c 0
 154 167 122 148 122 125 c 0
 122 102 154 83 164 83 c 0
EndSplineSet
EndChar

StartChar: multiply
Encoding: 215 215 121
Width: 364
Flags: HW
LayerCount: 2
Back
Fore
SplineSet
91 416 m 0
 101 416 133 435 133 458 c 0
 133 481 101 500 91 500 c 0
 81 500 49 481 49 458 c 0
 49 435 81 416 91 416 c 0
236 416 m 0
 246 416 278 435 278 458 c 0
 278 481 246 500 236 500 c 0
 226 500 194 481 194 458 c 0
 194 435 226 416 236 416 c 0
127 333 m 0
 137 333 169 352 169 375 c 0
 169 398 137 417 127 417 c 0
 117 417 85 398 85 375 c 0
 85 352 117 333 127 333 c 0
200 333 m 0
 210 333 242 352 242 375 c 0
 242 398 210 417 200 417 c 0
 190 417 158 398 158 375 c 0
 158 352 190 333 200 333 c 0
164 250 m 0
 174 250 206 269 206 292 c 0
 206 315 174 334 164 334 c 0
 154 334 122 315 122 292 c 0
 122 269 154 250 164 250 c 0
127 166 m 0
 137 166 169 185 169 208 c 0
 169 231 137 250 127 250 c 0
 117 250 85 231 85 208 c 0
 85 185 117 166 127 166 c 0
200 166 m 0
 210 166 242 185 242 208 c 0
 242 231 210 250 200 250 c 0
 190 250 158 231 158 208 c 0
 158 185 190 166 200 166 c 0
91 83 m 0
 101 83 133 102 133 125 c 0
 133 148 101 167 91 167 c 0
 81 167 49 148 49 125 c 0
 49 102 81 83 91 83 c 0
236 83 m 0
 246 83 278 102 278 125 c 0
 278 148 246 167 236 167 c 0
 226 167 194 148 194 125 c 0
 194 102 226 83 236 83 c 0
EndSplineSet
EndChar

StartChar: uni203E
Encoding: 8254 8254 122
Width: 364
Flags: HW
LayerCount: 2
Back
Fore
SplineSet
55 500 m 0
 65 500 97 519 97 542 c 0
 97 565 65 584 55 584 c 0
 45 584 13 565 13 542 c 0
 13 519 45 500 55 500 c 0
127 500 m 0
 137 500 169 519 169 542 c 0
 169 565 137 584 127 584 c 0
 117 584 85 565 85 542 c 0
 85 519 117 500 127 500 c 0
200 500 m 0
 210 500 242 519 242 542 c 0
 242 565 210 584 200 584 c 0
 190 584 158 565 158 542 c 0
 158 519 190 500 200 500 c 0
273 500 m 0
 283 500 315 519 315 542 c 0
 315 565 283 584 273 584 c 0
 263 584 231 565 231 542 c 0
 231 519 263 500 273 500 c 0
EndSplineSet
EndChar

StartChar: uni237A
Encoding: 9082 9082 123
Width: 364
Flags: HW
LayerCount: 2
Back
Fore
SplineSet
91 333 m 0
 101 333 133 352 133 375 c 0
 133 398 101 417 91 417 c 0
 81 417 49 398 49 375 c 0
 49 352 81 333 91 333 c 0
164 333 m 0
 174 333 206 352 206 375 c 0
 206 398 174 417 164 417 c 0
 154 417 122 398 122 375 c 0
 122 352 154 333 164 333 c 0
273 333 m 0
 283 333 315 352 315 375 c 0
 315 398 283 417 273 417 c 0
 263 417 231 398 231 375 c 0
 231 352 263 333 273 333 c 0
55 250 m 0
 65 250 97 269 97 292 c 0
 97 315 65 334 55 334 c 0
 45 334 13 315 13 292 c 0
 13 269 45 250 55 250 c 0
200 250 m 0
 210 250 242 269 242 292 c 0
 242 315 210 334 200 334 c 0
 190 334 158 315 158 292 c 0
 158 269 190 250 200 250 c 0
55 166 m 0
 65 166 97 185 97 208 c 0
 97 231 65 250 55 250 c 0
 45 250 13 231 13 208 c 0
 13 185 45 166 55 166 c 0
200 166 m 0
 210 166 242 185 242 208 c 0
 242 231 210 250 200 250 c 0
 190 250 158 231 158 208 c 0
 158 185 190 166 200 166 c 0
55 83 m 0
 65 83 97 102 97 125 c 0
 97 148 65 167 55 167 c 0
 45 167 13 148 13 125 c 0
 13 102 45 83 55 83 c 0
200 83 m 0
 210 83 242 102 242 125 c 0
 242 148 210 167 200 167 c 0
 190 167 158 148 158 125 c 0
 158 102 190 83 200 83 c 0
91 0 m 0
 101 0 133 19 133 42 c 0
 133 65 101 84 91 84 c 0
 81 84 49 65 49 42 c 0
 49 19 81 0 91 0 c 0
164 0 m 0
 174 0 206 19 206 42 c 0
 206 65 174 84 164 84 c 0
 154 84 122 65 122 42 c 0
 122 19 154 0 164 0 c 0
273 0 m 0
 283 0 315 19 315 42 c 0
 315 65 283 84 273 84 c 0
 263 84 231 65 231 42 c 0
 231 19 263 0 273 0 c 0
EndSplineSet
EndChar

StartChar: perpendicular
Encoding: 8869 8869 124
Width: 364
Flags: HW
LayerCount: 2
Back
Fore
SplineSet
164 250 m 0
 174 250 206 269 206 292 c 0
 206 315 174 334 164 334 c 0
 154 334 122 315 122 292 c 0
 122 269 154 250 164 250 c 0
164 166 m 0
 174 166 206 185 206 208 c 0
 206 231 174 250 164 250 c 0
 154 250 122 231 122 208 c 0
 122 185 154 166 164 166 c 0
164 83 m 0
 174 83 206 102 206 125 c 0
 206 148 174 167 164 167 c 0
 154 167 122 148 122 125 c 0
 122 102 154 83 164 83 c 0
55 0 m 0
 65 0 97 19 97 42 c 0
 97 65 65 84 55 84 c 0
 45 84 13 65 13 42 c 0
 13 19 45 0 55 0 c 0
127 0 m 0
 137 0 169 19 169 42 c 0
 169 65 137 84 127 84 c 0
 117 84 85 65 85 42 c 0
 85 19 117 0 127 0 c 0
200 0 m 0
 210 0 242 19 242 42 c 0
 242 65 210 84 200 84 c 0
 190 84 158 65 158 42 c 0
 158 19 190 0 200 0 c 0
273 0 m 0
 283 0 315 19 315 42 c 0
 315 65 283 84 273 84 c 0
 263 84 231 65 231 42 c 0
 231 19 263 0 273 0 c 0
EndSplineSet
EndChar

StartChar: intersection
Encoding: 8745 8745 125
Width: 364
Flags: HW
LayerCount: 2
Back
Fore
SplineSet
127 333 m 0
 137 333 169 352 169 375 c 0
 169 398 137 417 127 417 c 0
 117 417 85 398 85 375 c 0
 85 352 117 333 127 333 c 0
200 333 m 0
 210 333 242 352 242 375 c 0
 242 398 210 417 200 417 c 0
 190 417 158 398 158 375 c 0
 158 352 190 333 200 333 c 0
91 250 m 0
 101 250 133 269 133 292 c 0
 133 315 101 334 91 334 c 0
 81 334 49 315 49 292 c 0
 49 269 81 250 91 250 c 0
236 250 m 0
 246 250 278 269 278 292 c 0
 278 315 246 334 236 334 c 0
 226 334 194 315 194 292 c 0
 194 269 226 250 236 250 c 0
91 166 m 0
 101 166 133 185 133 208 c 0
 133 231 101 250 91 250 c 0
 81 250 49 231 49 208 c 0
 49 185 81 166 91 166 c 0
236 166 m 0
 246 166 278 185 278 208 c 0
 278 231 246 250 236 250 c 0
 226 250 194 231 194 208 c 0
 194 185 226 166 236 166 c 0
91 83 m 0
 101 83 133 102 133 125 c 0
 133 148 101 167 91 167 c 0
 81 167 49 148 49 125 c 0
 49 102 81 83 91 83 c 0
236 83 m 0
 246 83 278 102 278 125 c 0
 278 148 246 167 236 167 c 0
 226 167 194 148 194 125 c 0
 194 102 226 83 236 83 c 0
91 0 m 0
 101 0 133 19 133 42 c 0
 133 65 101 84 91 84 c 0
 81 84 49 65 49 42 c 0
 49 19 81 0 91 0 c 0
236 0 m 0
 246 0 278 19 278 42 c 0
 278 65 246 84 236 84 c 0
 226 84 194 65 194 42 c 0
 194 19 226 0 236 0 c 0
EndSplineSet
EndChar

StartChar: uni230A
Encoding: 8970 8970 126
Width: 364
Flags: HW
LayerCount: 2
Back
Fore
SplineSet
91 500 m 0
 101 500 133 519 133 542 c 0
 133 565 101 584 91 584 c 0
 81 584 49 565 49 542 c 0
 49 519 81 500 91 500 c 0
91 416 m 0
 101 416 133 435 133 458 c 0
 133 481 101 500 91 500 c 0
 81 500 49 481 49 458 c 0
 49 435 81 416 91 416 c 0
91 333 m 0
 101 333 133 352 133 375 c 0
 133 398 101 417 91 417 c 0
 81 417 49 398 49 375 c 0
 49 352 81 333 91 333 c 0
91 250 m 0
 101 250 133 269 133 292 c 0
 133 315 101 334 91 334 c 0
 81 334 49 315 49 292 c 0
 49 269 81 250 91 250 c 0
91 166 m 0
 101 166 133 185 133 208 c 0
 133 231 101 250 91 250 c 0
 81 250 49 231 49 208 c 0
 49 185 81 166 91 166 c 0
91 83 m 0
 101 83 133 102 133 125 c 0
 133 148 101 167 91 167 c 0
 81 167 49 148 49 125 c 0
 49 102 81 83 91 83 c 0
91 0 m 0
 101 0 133 19 133 42 c 0
 133 65 101 84 91 84 c 0
 81 84 49 65 49 42 c 0
 49 19 81 0 91 0 c 0
164 0 m 0
 174 0 206 19 206 42 c 0
 206 65 174 84 164 84 c 0
 154 84 122 65 122 42 c 0
 122 19 154 0 164 0 c 0
236 0 m 0
 246 0 278 19 278 42 c 0
 278 65 246 84 236 84 c 0
 226 84 194 65 194 42 c 0
 194 19 226 0 236 0 c 0
EndSplineSet
EndChar

StartChar: gradient
Encoding: 8711 8711 127
Width: 364
Flags: HW
LayerCount: 2
Back
Fore
SplineSet
55 416 m 0
 65 416 97 435 97 458 c 0
 97 481 65 500 55 500 c 0
 45 500 13 481 13 458 c 0
 13 435 45 416 55 416 c 0
127 416 m 0
 137 416 169 435 169 458 c 0
 169 481 137 500 127 500 c 0
 117 500 85 481 85 458 c 0
 85 435 117 416 127 416 c 0
200 416 m 0
 210 416 242 435 242 458 c 0
 242 481 210 500 200 500 c 0
 190 500 158 481 158 458 c 0
 158 435 190 416 200 416 c 0
273 416 m 0
 283 416 315 435 315 458 c 0
 315 481 283 500 273 500 c 0
 263 500 231 481 231 458 c 0
 231 435 263 416 273 416 c 0
55 333 m 0
 65 333 97 352 97 375 c 0
 97 398 65 417 55 417 c 0
 45 417 13 398 13 375 c 0
 13 352 45 333 55 333 c 0
273 333 m 0
 283 333 315 352 315 375 c 0
 315 398 283 417 273 417 c 0
 263 417 231 398 231 375 c 0
 231 352 263 333 273 333 c 0
91 250 m 0
 101 250 133 269 133 292 c 0
 133 315 101 334 91 334 c 0
 81 334 49 315 49 292 c 0
 49 269 81 250 91 250 c 0
236 250 m 0
 246 250 278 269 278 292 c 0
 278 315 246 334 236 334 c 0
 226 334 194 315 194 292 c 0
 194 269 226 250 236 250 c 0
127 166 m 0
 137 166 169 185 169 208 c 0
 169 231 137 250 127 250 c 0
 117 250 85 231 85 208 c 0
 85 185 117 166 127 166 c 0
200 166 m 0
 210 166 242 185 242 208 c 0
 242 231 210 250 200 250 c 0
 190 250 158 231 158 208 c 0
 158 185 190 166 200 166 c 0
164 83 m 0
 174 83 206 102 206 125 c 0
 206 148 174 167 164 167 c 0
 154 167 122 148 122 125 c 0
 122 102 154 83 164 83 c 0
EndSplineSet
EndChar

StartChar: Delta
Encoding: 8710 8710 128
Width: 364
Flags: HW
LayerCount: 2
Back
Fore
SplineSet
164 416 m 0
 174 416 206 435 206 458 c 0
 206 481 174 500 164 500 c 0
 154 500 122 481 122 458 c 0
 122 435 154 416 164 416 c 0
127 333 m 0
 137 333 169 352 169 375 c 0
 169 398 137 417 127 417 c 0
 117 417 85 398 85 375 c 0
 85 352 117 333 127 333 c 0
200 333 m 0
 210 333 242 352 242 375 c 0
 242 398 210 417 200 417 c 0
 190 417 158 398 158 375 c 0
 158 352 190 333 200 333 c 0
91 250 m 0
 101 250 133 269 133 292 c 0
 133 315 101 334 91 334 c 0
 81 334 49 315 49 292 c 0
 49 269 81 250 91 250 c 0
236 250 m 0
 246 250 278 269 278 292 c 0
 278 315 246 334 236 334 c 0
 226 334 194 315 194 292 c 0
 194 269 226 250 236 250 c 0
55 166 m 0
 65 166 97 185 97 208 c 0
 97 231 65 250 55 250 c 0
 45 250 13 231 13 208 c 0
 13 185 45 166 55 166 c 0
273 166 m 0
 283 166 315 185 315 208 c 0
 315 231 283 250 273 250 c 0
 263 250 231 231 231 208 c 0
 231 185 263 166 273 166 c 0
55 83 m 0
 65 83 97 102 97 125 c 0
 97 148 65 167 55 167 c 0
 45 167 13 148 13 125 c 0
 13 102 45 83 55 83 c 0
127 83 m 0
 137 83 169 102 169 125 c 0
 169 148 137 167 127 167 c 0
 117 167 85 148 85 125 c 0
 85 102 117 83 127 83 c 0
200 83 m 0
 210 83 242 102 242 125 c 0
 242 148 210 167 200 167 c 0
 190 167 158 148 158 125 c 0
 158 102 190 83 200 83 c 0
273 83 m 0
 283 83 315 102 315 125 c 0
 315 148 283 167 273 167 c 0
 263 167 231 148 231 125 c 0
 231 102 263 83 273 83 c 0
EndSplineSet
EndChar

StartChar: uni2218
Encoding: 8728 8728 129
Width: 364
Flags: HW
LayerCount: 2
Back
Fore
SplineSet
127 333 m 0
 137 333 169 352 169 375 c 0
 169 398 137 417 127 417 c 0
 117 417 85 398 85 375 c 0
 85 352 117 333 127 333 c 0
200 333 m 0
 210 333 242 352 242 375 c 0
 242 398 210 417 200 417 c 0
 190 417 158 398 158 375 c 0
 158 352 190 333 200 333 c 0
91 250 m 0
 101 250 133 269 133 292 c 0
 133 315 101 334 91 334 c 0
 81 334 49 315 49 292 c 0
 49 269 81 250 91 250 c 0
236 250 m 0
 246 250 278 269 278 292 c 0
 278 315 246 334 236 334 c 0
 226 334 194 315 194 292 c 0
 194 269 226 250 236 250 c 0
127 166 m 0
 137 166 169 185 169 208 c 0
 169 231 137 250 127 250 c 0
 117 250 85 231 85 208 c 0
 85 185 117 166 127 166 c 0
200 166 m 0
 210 166 242 185 242 208 c 0
 242 231 210 250 200 250 c 0
 190 250 158 231 158 208 c 0
 158 185 190 166 200 166 c 0
EndSplineSet
EndChar

StartChar: uni2395
Encoding: 9109 9109 130
Width: 364
Flags: HW
LayerCount: 2
Back
Fore
SplineSet
55 500 m 0
 65 500 97 519 97 542 c 0
 97 565 65 584 55 584 c 0
 45 584 13 565 13 542 c 0
 13 519 45 500 55 500 c 0
127 500 m 0
 137 500 169 519 169 542 c 0
 169 565 137 584 127 584 c 0
 117 584 85 565 85 542 c 0
 85 519 117 500 127 500 c 0
200 500 m 0
 210 500 242 519 242 542 c 0
 242 565 210 584 200 584 c 0
 190 584 158 565 158 542 c 0
 158 519 190 500 200 500 c 0
273 500 m 0
 283 500 315 519 315 542 c 0
 315 565 283 584 273 584 c 0
 263 584 231 565 231 542 c 0
 231 519 263 500 273 500 c 0
55 416 m 0
 65 416 97 435 97 458 c 0
 97 481 65 500 55 500 c 0
 45 500 13 481 13 458 c 0
 13 435 45 416 55 416 c 0
273 416 m 0
 283 416 315 435 315 458 c 0
 315 481 283 500 273 500 c 0
 263 500 231 481 231 458 c 0
 231 435 263 416 273 416 c 0
55 333 m 0
 65 333 97 352 97 375 c 0
 97 398 65 417 55 417 c 0
 45 417 13 398 13 375 c 0
 13 352 45 333 55 333 c 0
273 333 m 0
 283 333 315 352 315 375 c 0
 315 398 283 417 273 417 c 0
 263 417 231 398 231 375 c 0
 231 352 263 333 273 333 c 0
55 250 m 0
 65 250 97 269 97 292 c 0
 97 315 65 334 55 334 c 0
 45 334 13 315 13 292 c 0
 13 269 45 250 55 250 c 0
273 250 m 0
 283 250 315 269 315 292 c 0
 315 315 283 334 273 334 c 0
 263 334 231 315 231 292 c 0
 231 269 263 250 273 250 c 0
55 166 m 0
 65 166 97 185 97 208 c 0
 97 231 65 250 55 250 c 0
 45 250 13 231 13 208 c 0
 13 185 45 166 55 166 c 0
273 166 m 0
 283 166 315 185 315 208 c 0
 315 231 283 250 273 250 c 0
 263 250 231 231 231 208 c 0
 231 185 263 166 273 166 c 0
55 83 m 0
 65 83 97 102 97 125 c 0
 97 148 65 167 55 167 c 0
 45 167 13 148 13 125 c 0
 13 102 45 83 55 83 c 0
273 83 m 0
 283 83 315 102 315 125 c 0
 315 148 283 167 273 167 c 0
 263 167 231 148 231 125 c 0
 231 102 263 83 273 83 c 0
55 0 m 0
 65 0 97 19 97 42 c 0
 97 65 65 84 55 84 c 0
 45 84 13 65 13 42 c 0
 13 19 45 0 55 0 c 0
127 0 m 0
 137 0 169 19 169 42 c 0
 169 65 137 84 127 84 c 0
 117 84 85 65 85 42 c 0
 85 19 117 0 127 0 c 0
200 0 m 0
 210 0 242 19 242 42 c 0
 242 65 210 84 200 84 c 0
 190 84 158 65 158 42 c 0
 158 19 190 0 200 0 c 0
273 0 m 0
 283 0 315 19 315 42 c 0
 315 65 283 84 273 84 c 0
 263 84 231 65 231 42 c 0
 231 19 263 0 273 0 c 0
EndSplineSet
EndChar

StartChar: uni22A4
Encoding: 8868 8868 131
Width: 364
Flags: HW
LayerCount: 2
Back
Fore
SplineSet
55 250 m 0
 65 250 97 269 97 292 c 0
 97 315 65 334 55 334 c 0
 45 334 13 315 13 292 c 0
 13 269 45 250 55 250 c 0
127 250 m 0
 137 250 169 269 169 292 c 0
 169 315 137 334 127 334 c 0
 117 334 85 315 85 292 c 0
 85 269 117 250 127 250 c 0
200 250 m 0
 210 250 242 269 242 292 c 0
 242 315 210 334 200 334 c 0
 190 334 158 315 158 292 c 0
 158 269 190 250 200 250 c 0
273 250 m 0
 283 250 315 269 315 292 c 0
 315 315 283 334 273 334 c 0
 263 334 231 315 231 292 c 0
 231 269 263 250 273 250 c 0
164 166 m 0
 174 166 206 185 206 208 c 0
 206 231 174 250 164 250 c 0
 154 250 122 231 122 208 c 0
 122 185 154 166 164 166 c 0
164 83 m 0
 174 83 206 102 206 125 c 0
 206 148 174 167 164 167 c 0
 154 167 122 148 122 125 c 0
 122 102 154 83 164 83 c 0
164 0 m 0
 174 0 206 19 206 42 c 0
 206 65 174 84 164 84 c 0
 154 84 122 65 122 42 c 0
 122 19 154 0 164 0 c 0
EndSplineSet
EndChar

StartChar: uni22C6
Encoding: 8902 8902 132
Width: 364
Flags: HW
LayerCount: 2
Back
Fore
SplineSet
164 416 m 0
 174 416 206 435 206 458 c 0
 206 481 174 500 164 500 c 0
 154 500 122 481 122 458 c 0
 122 435 154 416 164 416 c 0
91 333 m 0
 101 333 133 352 133 375 c 0
 133 398 101 417 91 417 c 0
 81 417 49 398 49 375 c 0
 49 352 81 333 91 333 c 0
164 333 m 0
 174 333 206 352 206 375 c 0
 206 398 174 417 164 417 c 0
 154 417 122 398 122 375 c 0
 122 352 154 333 164 333 c 0
236 333 m 0
 246 333 278 352 278 375 c 0
 278 398 246 417 236 417 c 0
 226 417 194 398 194 375 c 0
 194 352 226 333 236 333 c 0
127 250 m 0
 137 250 169 269 169 292 c 0
 169 315 137 334 127 334 c 0
 117 334 85 315 85 292 c 0
 85 269 117 250 127 250 c 0
200 250 m 0
 210 250 242 269 242 292 c 0
 242 315 210 334 200 334 c 0
 190 334 158 315 158 292 c 0
 158 269 190 250 200 250 c 0
127 166 m 0
 137 166 169 185 169 208 c 0
 169 231 137 250 127 250 c 0
 117 250 85 231 85 208 c 0
 85 185 117 166 127 166 c 0
200 166 m 0
 210 166 242 185 242 208 c 0
 242 231 210 250 200 250 c 0
 190 250 158 231 158 208 c 0
 158 185 190 166 200 166 c 0
91 83 m 0
 101 83 133 102 133 125 c 0
 133 148 101 167 91 167 c 0
 81 167 49 148 49 125 c 0
 49 102 81 83 91 83 c 0
236 83 m 0
 246 83 278 102 278 125 c 0
 278 148 246 167 236 167 c 0
 226 167 194 148 194 125 c 0
 194 102 226 83 236 83 c 0
EndSplineSet
EndChar

StartChar: uni2308
Encoding: 8968 8968 133
Width: 364
Flags: HW
LayerCount: 2
Back
Fore
SplineSet
91 500 m 0
 101 500 133 519 133 542 c 0
 133 565 101 584 91 584 c 0
 81 584 49 565 49 542 c 0
 49 519 81 500 91 500 c 0
164 500 m 0
 174 500 206 519 206 542 c 0
 206 565 174 584 164 584 c 0
 154 584 122 565 122 542 c 0
 122 519 154 500 164 500 c 0
236 500 m 0
 246 500 278 519 278 542 c 0
 278 565 246 584 236 584 c 0
 226 584 194 565 194 542 c 0
 194 519 226 500 236 500 c 0
91 416 m 0
 101 416 133 435 133 458 c 0
 133 481 101 500 91 500 c 0
 81 500 49 481 49 458 c 0
 49 435 81 416 91 416 c 0
91 333 m 0
 101 333 133 352 133 375 c 0
 133 398 101 417 91 417 c 0
 81 417 49 398 49 375 c 0
 49 352 81 333 91 333 c 0
91 250 m 0
 101 250 133 269 133 292 c 0
 133 315 101 334 91 334 c 0
 81 334 49 315 49 292 c 0
 49 269 81 250 91 250 c 0
91 166 m 0
 101 166 133 185 133 208 c 0
 133 231 101 250 91 250 c 0
 81 250 49 231 49 208 c 0
 49 185 81 166 91 166 c 0
91 83 m 0
 101 83 133 102 133 125 c 0
 133 148 101 167 91 167 c 0
 81 167 49 148 49 125 c 0
 49 102 81 83 91 83 c 0
91 0 m 0
 101 0 133 19 133 42 c 0
 133 65 101 84 91 84 c 0
 81 84 49 65 49 42 c 0
 49 19 81 0 91 0 c 0
EndSplineSet
EndChar

